<svg id="svg" version="1.1" xmlns="http://www.w3.org/2000/svg" xmlns:xlink="http://www.w3.org/1999/xlink" width="400" height="400.81632653061223" viewBox="0, 0, 400,400.81632653061223"><g id="svgg"><path id="path0" d="M196.882 0.296 C 198.358 0.373,200.878 0.373,202.482 0.297 C 204.087 0.221,202.880 0.158,199.800 0.158 C 196.720 0.157,195.407 0.219,196.882 0.296 M186.500 0.676 C 186.885 0.776,187.515 0.776,187.900 0.676 C 188.285 0.575,187.970 0.493,187.200 0.493 C 186.430 0.493,186.115 0.575,186.500 0.676 M212.100 0.676 C 212.485 0.776,213.115 0.776,213.500 0.676 C 213.885 0.575,213.570 0.493,212.800 0.493 C 212.030 0.493,211.715 0.575,212.100 0.676 M195.900 10.295 C 197.055 10.376,198.945 10.376,200.100 10.295 C 201.255 10.214,200.310 10.148,198.000 10.148 C 195.690 10.148,194.745 10.214,195.900 10.295 M210.705 10.683 C 211.202 10.779,211.922 10.775,212.305 10.675 C 212.687 10.575,212.280 10.496,211.400 10.501 C 210.520 10.505,210.207 10.587,210.705 10.683 M216.900 11.076 C 217.285 11.176,217.915 11.176,218.300 11.076 C 218.685 10.975,218.370 10.893,217.600 10.893 C 216.830 10.893,216.515 10.975,216.900 11.076 M127.200 13.600 C 126.715 13.914,126.772 13.989,127.500 13.994 C 127.995 13.997,128.400 13.820,128.400 13.600 C 128.400 13.099,127.976 13.099,127.200 13.600 M123.212 15.184 C 122.888 15.389,122.721 15.654,122.841 15.774 C 122.960 15.894,123.405 15.729,123.829 15.409 C 124.673 14.771,124.160 14.585,123.212 15.184 M279.600 16.824 C 279.600 17.057,279.780 17.136,280.000 17.000 C 280.220 16.864,280.400 16.954,280.400 17.200 C 280.400 17.446,280.580 17.536,280.800 17.400 C 281.020 17.264,281.200 17.354,281.200 17.600 C 281.200 17.846,281.404 17.921,281.654 17.767 C 281.947 17.585,281.770 17.299,281.154 16.957 C 279.981 16.307,279.600 16.274,279.600 16.824 M118.457 17.156 C 118.079 17.396,118.049 17.583,118.357 17.774 C 118.601 17.924,118.800 17.846,118.800 17.600 C 118.800 17.354,118.980 17.264,119.200 17.400 C 119.420 17.536,119.600 17.457,119.600 17.224 C 119.600 16.714,119.192 16.690,118.457 17.156 M114.900 18.707 C 112.616 19.858,111.990 20.757,114.100 19.855 C 116.794 18.704,117.600 18.262,117.600 17.936 C 117.600 17.433,117.202 17.547,114.900 18.707 M282.400 17.917 C 282.400 18.192,286.497 20.400,287.009 20.400 C 287.792 20.400,286.839 19.590,284.991 18.683 C 282.580 17.501,282.400 17.448,282.400 17.917 M140.700 19.476 C 140.315 19.576,140.000 19.825,140.000 20.029 C 140.000 20.520,140.111 20.503,141.454 19.802 C 142.547 19.232,142.202 19.083,140.700 19.476 M131.900 22.703 C 131.515 22.789,131.200 23.025,131.200 23.229 C 131.200 23.698,131.634 23.693,132.388 23.216 C 133.107 22.761,132.850 22.492,131.900 22.703 M129.900 23.503 C 129.515 23.589,129.200 23.825,129.200 24.029 C 129.200 24.498,129.634 24.493,130.388 24.016 C 131.107 23.561,130.850 23.292,129.900 23.503 M270.800 23.595 C 270.800 23.871,271.741 24.400,272.233 24.400 C 272.779 24.400,272.266 23.658,271.600 23.484 C 271.160 23.369,270.800 23.419,270.800 23.595 M104.700 24.229 C 103.205 25.040,103.296 25.378,104.800 24.600 C 105.460 24.259,106.000 23.894,106.000 23.790 C 106.000 23.532,105.957 23.547,104.700 24.229 M127.200 24.800 C 127.200 25.301,127.624 25.301,128.400 24.800 C 128.885 24.486,128.828 24.411,128.100 24.406 C 127.605 24.403,127.200 24.580,127.200 24.800 M275.600 25.758 C 276.740 26.458,277.200 26.546,277.200 26.067 C 277.200 25.883,276.975 25.725,276.700 25.714 C 276.425 25.704,275.840 25.571,275.400 25.420 C 274.866 25.236,274.933 25.349,275.600 25.758 M121.600 27.400 C 120.610 27.930,119.980 28.364,120.200 28.364 C 120.420 28.364,121.410 27.930,122.400 27.400 C 123.390 26.870,124.020 26.436,123.800 26.436 C 123.580 26.436,122.590 26.870,121.600 27.400 M278.400 27.000 C 278.950 27.314,279.580 27.572,279.800 27.572 C 280.020 27.572,279.750 27.314,279.200 27.000 C 278.650 26.686,278.020 26.428,277.800 26.428 C 277.580 26.428,277.850 26.686,278.400 27.000 M99.000 27.276 C 96.208 28.852,88.785 33.719,88.939 33.872 C 89.041 33.974,90.176 33.343,91.462 32.468 C 92.748 31.594,95.330 29.962,97.200 28.840 C 100.051 27.131,101.523 25.852,99.000 27.276 M300.200 27.275 C 300.640 27.523,302.829 28.868,305.064 30.263 C 308.790 32.590,311.137 33.752,308.792 32.109 C 306.609 30.580,300.204 26.801,299.815 26.812 C 299.587 26.819,299.760 27.027,300.200 27.275 M282.000 28.600 C 282.550 28.914,283.180 29.172,283.400 29.172 C 283.620 29.172,283.350 28.914,282.800 28.600 C 282.250 28.286,281.620 28.028,281.400 28.028 C 281.180 28.028,281.450 28.286,282.000 28.600 M112.300 31.826 C 111.255 32.370,110.400 32.905,110.400 33.014 C 110.400 33.124,111.300 32.757,112.400 32.200 C 113.500 31.643,114.400 31.100,114.400 30.993 C 114.400 30.729,114.436 30.714,112.300 31.826 M287.200 30.988 C 287.200 31.098,288.280 31.734,289.600 32.400 C 290.920 33.066,292.000 33.522,292.000 33.412 C 292.000 33.302,290.920 32.666,289.600 32.000 C 288.280 31.334,287.200 30.878,287.200 30.988 M310.962 33.942 C 311.381 34.414,311.887 34.800,312.086 34.800 C 312.649 34.800,312.050 34.054,311.078 33.544 C 310.206 33.087,310.205 33.090,310.962 33.942 M104.390 36.243 C 101.865 37.697,99.620 39.075,99.400 39.306 C 99.180 39.536,99.810 39.272,100.800 38.718 C 107.396 35.029,109.710 33.600,109.090 33.600 C 109.029 33.600,106.914 34.789,104.390 36.243 M292.452 33.764 C 292.944 34.297,300.119 38.414,300.278 38.255 C 300.367 38.166,299.036 37.288,297.320 36.304 C 293.605 34.173,292.109 33.393,292.452 33.764 M81.200 39.000 C 80.917 39.341,80.776 39.709,80.886 39.819 C 80.996 39.929,81.317 39.741,81.600 39.400 C 81.883 39.059,82.024 38.691,81.914 38.581 C 81.804 38.471,81.483 38.659,81.200 39.000 M318.000 38.702 C 318.000 38.922,318.270 39.326,318.600 39.600 C 318.935 39.878,319.200 39.921,319.200 39.698 C 319.200 39.478,318.930 39.074,318.600 38.800 C 318.265 38.522,318.000 38.479,318.000 38.702 M78.600 41.031 C 77.720 41.778,77.180 42.386,77.400 42.383 C 77.944 42.377,80.645 40.110,80.397 39.868 C 80.289 39.762,79.480 40.285,78.600 41.031 M319.600 39.934 C 319.600 40.378,322.377 42.556,322.626 42.307 C 322.722 42.212,322.080 41.555,321.200 40.848 C 320.320 40.141,319.600 39.729,319.600 39.934 M95.429 41.829 C 95.005 42.138,94.748 42.482,94.858 42.592 C 94.968 42.702,95.405 42.538,95.829 42.229 C 96.252 41.919,96.509 41.575,96.399 41.465 C 96.289 41.355,95.852 41.519,95.429 41.829 M92.843 43.644 C 91.596 44.656,91.913 44.971,93.200 44.000 C 93.743 43.590,94.101 43.168,93.994 43.062 C 93.887 42.956,93.370 43.218,92.843 43.644 M324.200 43.807 C 326.129 45.421,327.155 45.779,325.400 44.227 C 324.520 43.449,323.620 42.810,323.400 42.808 C 323.180 42.806,323.540 43.256,324.200 43.807 M307.600 43.365 C 307.600 43.663,312.850 47.283,313.026 47.107 C 313.121 47.012,312.344 46.326,311.299 45.582 C 310.255 44.837,309.162 43.997,308.871 43.714 C 308.368 43.225,307.600 43.014,307.600 43.365 M71.362 46.862 L 70.600 47.724 71.700 47.016 C 72.834 46.286,73.049 46.000,72.462 46.000 C 72.276 46.000,71.781 46.388,71.362 46.862 M86.713 48.107 C 85.236 49.236,84.100 50.233,84.189 50.322 C 84.278 50.411,85.487 49.626,86.876 48.577 C 90.033 46.192,90.260 45.993,89.780 46.027 C 89.571 46.041,88.191 46.977,86.713 48.107 M327.200 46.154 C 327.200 46.239,327.695 46.627,328.300 47.016 L 329.400 47.724 328.638 46.862 C 327.964 46.099,327.200 45.723,327.200 46.154 M313.600 47.736 C 313.600 48.015,318.482 51.651,318.642 51.491 C 318.734 51.400,317.742 50.487,316.438 49.462 C 314.281 47.768,313.600 47.353,313.600 47.736 M68.575 49.266 L 67.400 50.533 68.900 49.419 C 70.421 48.289,70.661 48.000,70.075 48.000 C 69.896 48.000,69.221 48.570,68.575 49.266 M329.600 48.125 C 329.600 48.193,330.185 48.672,330.900 49.188 L 332.200 50.127 331.230 49.063 C 330.402 48.155,329.600 47.693,329.600 48.125 M332.800 50.733 C 332.800 50.916,333.565 51.665,334.500 52.397 L 336.200 53.727 334.619 52.064 C 332.952 50.310,332.800 50.199,332.800 50.733 M64.981 52.464 L 63.400 54.127 65.100 52.797 C 66.035 52.065,66.800 51.316,66.800 51.133 C 66.800 50.599,66.648 50.710,64.981 52.464 M82.400 51.400 C 82.122 51.735,82.079 52.000,82.302 52.000 C 82.522 52.000,82.926 51.730,83.200 51.400 C 83.478 51.065,83.521 50.800,83.298 50.800 C 83.078 50.800,82.674 51.070,82.400 51.400 M319.200 51.986 C 319.200 52.198,319.605 52.584,320.100 52.844 C 320.995 53.314,320.996 53.312,320.238 52.458 C 319.391 51.505,319.200 51.418,319.200 51.986 M80.200 53.200 C 79.802 53.640,79.656 54.000,79.876 54.000 C 80.096 54.000,80.602 53.640,81.000 53.200 C 81.398 52.760,81.544 52.400,81.324 52.400 C 81.104 52.400,80.598 52.760,80.200 53.200 M337.200 54.660 C 337.200 55.130,345.921 63.812,346.157 63.577 C 346.370 63.363,341.387 58.039,338.900 55.822 C 337.965 54.989,337.200 54.466,337.200 54.660 M58.443 58.443 C 56.420 60.453,54.869 62.203,54.997 62.331 C 55.126 62.459,56.881 60.914,58.897 58.897 C 60.914 56.881,62.465 55.131,62.343 55.010 C 62.222 54.888,60.467 56.433,58.443 58.443 M325.487 57.209 C 326.195 57.951,326.842 58.478,326.925 58.379 C 327.008 58.281,326.429 57.673,325.638 57.029 L 324.200 55.858 325.487 57.209 M74.575 58.100 L 73.400 59.400 74.700 58.225 C 75.912 57.130,76.184 56.800,75.875 56.800 C 75.806 56.800,75.221 57.385,74.575 58.100 M328.323 59.800 C 328.993 61.078,333.948 65.785,334.277 65.456 C 334.441 65.292,333.861 64.506,332.988 63.710 C 332.115 62.915,330.613 61.529,329.652 60.632 C 328.691 59.734,328.093 59.360,328.323 59.800 M66.600 65.600 C 63.761 68.445,61.529 70.862,61.639 70.972 C 61.749 71.082,64.161 68.845,67.000 66.000 C 69.839 63.155,72.071 60.738,71.961 60.628 C 71.851 60.518,69.439 62.755,66.600 65.600 M51.481 65.917 C 50.108 67.323,49.507 68.352,50.371 67.818 C 50.810 67.547,53.336 64.400,53.115 64.400 C 53.031 64.400,52.296 65.083,51.481 65.917 M349.183 67.118 C 349.905 68.064,350.601 68.733,350.728 68.605 C 350.856 68.478,350.265 67.704,349.415 66.887 L 347.870 65.400 349.183 67.118 M335.200 66.714 C 335.200 66.886,336.145 67.926,337.300 69.024 C 341.240 72.769,341.760 73.003,338.802 69.700 C 336.059 66.637,335.200 65.924,335.200 66.714 M48.401 69.398 C 47.886 69.948,47.552 70.485,47.660 70.594 C 47.768 70.702,48.254 70.252,48.740 69.595 C 49.817 68.139,49.666 68.052,48.401 69.398 M351.984 70.323 C 352.481 71.051,352.993 71.540,353.122 71.411 C 353.252 71.282,352.845 70.686,352.219 70.088 L 351.080 69.000 351.984 70.323 M46.001 72.198 C 45.486 72.748,45.165 73.298,45.288 73.421 C 45.412 73.545,45.905 73.096,46.384 72.423 C 47.438 70.942,47.273 70.845,46.001 72.198 M354.206 72.912 C 354.592 73.524,355.009 73.924,355.132 73.801 C 355.255 73.678,354.939 73.178,354.430 72.689 L 353.504 71.800 354.206 72.912 M58.778 73.899 L 57.400 75.398 58.800 74.202 C 59.570 73.544,60.371 72.870,60.580 72.703 C 60.816 72.515,60.808 72.400,60.558 72.400 C 60.338 72.400,59.537 73.075,58.778 73.899 M342.000 73.725 C 342.000 73.794,342.585 74.379,343.300 75.025 L 344.600 76.200 343.425 74.900 C 342.330 73.688,342.000 73.416,342.000 73.725 M42.618 76.418 C 41.570 77.753,40.792 78.925,40.891 79.024 C 40.989 79.122,41.922 78.105,42.964 76.764 C 44.005 75.422,44.783 74.250,44.691 74.158 C 44.600 74.066,43.667 75.083,42.618 76.418 M357.227 76.600 C 357.230 76.820,357.765 77.623,358.416 78.385 C 359.067 79.147,359.595 79.597,359.589 79.385 C 359.583 79.173,359.048 78.370,358.400 77.600 C 357.752 76.830,357.224 76.380,357.227 76.600 M39.600 80.200 C 39.322 80.535,39.279 80.800,39.502 80.800 C 39.722 80.800,40.126 80.530,40.400 80.200 C 40.678 79.865,40.721 79.600,40.498 79.600 C 40.278 79.600,39.874 79.870,39.600 80.200 M347.200 79.902 C 347.200 80.122,347.470 80.526,347.800 80.800 C 348.135 81.078,348.400 81.121,348.400 80.898 C 348.400 80.678,348.130 80.274,347.800 80.000 C 347.465 79.722,347.200 79.679,347.200 79.902 M50.574 83.894 C 49.283 85.602,47.427 88.060,46.448 89.355 C 45.469 90.651,44.852 91.641,45.076 91.555 C 45.584 91.362,53.278 81.144,53.071 80.938 C 52.988 80.855,51.865 82.185,50.574 83.894 M38.400 81.800 C 38.122 82.135,38.079 82.400,38.302 82.400 C 38.522 82.400,38.926 82.130,39.200 81.800 C 39.478 81.465,39.521 81.200,39.298 81.200 C 39.078 81.200,38.674 81.470,38.400 81.800 M348.800 81.902 C 348.800 82.122,349.070 82.526,349.400 82.800 C 349.735 83.078,350.000 83.121,350.000 82.898 C 350.000 82.678,349.730 82.274,349.400 82.000 C 349.065 81.722,348.800 81.679,348.800 81.902 M37.200 83.400 C 36.922 83.735,36.879 84.000,37.102 84.000 C 37.322 84.000,37.726 83.730,38.000 83.400 C 38.278 83.065,38.321 82.800,38.098 82.800 C 37.878 82.800,37.474 83.070,37.200 83.400 M350.400 83.808 C 350.400 84.209,354.562 89.572,354.737 89.396 C 354.899 89.234,350.802 83.600,350.522 83.600 C 350.455 83.600,350.400 83.693,350.400 83.808 M33.846 88.200 C 33.491 88.750,32.909 89.650,32.554 90.200 C 31.398 91.989,32.286 91.254,33.762 89.200 C 34.552 88.100,35.040 87.200,34.845 87.200 C 34.651 87.200,34.201 87.650,33.846 88.200 M365.609 87.689 C 365.604 87.848,366.637 89.558,367.905 91.489 C 369.172 93.420,370.917 96.210,371.782 97.690 C 372.646 99.169,373.433 100.301,373.529 100.205 C 373.625 100.108,372.225 97.631,370.417 94.700 C 367.085 89.295,365.625 87.166,365.609 87.689 M357.055 93.200 C 358.080 94.740,359.071 96.000,359.259 96.000 C 359.446 96.000,359.555 96.203,359.500 96.450 C 359.445 96.698,359.650 96.991,359.956 97.102 C 360.648 97.354,360.481 97.053,357.840 93.307 C 355.225 89.597,354.603 89.512,357.055 93.200 M29.032 95.832 C 27.754 97.927,26.780 99.713,26.867 99.801 C 26.955 99.889,28.063 98.236,29.329 96.129 C 30.595 94.022,31.569 92.236,31.494 92.161 C 31.418 92.085,30.311 93.737,29.032 95.832 M362.008 100.119 C 362.000 100.424,366.309 107.946,367.209 109.200 C 367.916 110.184,364.367 103.550,363.144 101.600 C 362.523 100.610,362.012 99.944,362.008 100.119 M36.203 105.306 C 33.087 110.869,32.971 111.089,33.343 110.760 C 33.819 110.338,39.243 100.710,39.091 100.558 C 39.010 100.477,37.711 102.614,36.203 105.306 M378.843 110.900 C 381.953 117.126,381.900 117.034,382.227 116.706 C 382.465 116.469,380.512 112.346,379.998 112.000 C 379.835 111.890,378.956 110.315,378.046 108.500 C 377.136 106.685,376.302 105.200,376.193 105.200 C 376.084 105.200,377.276 107.765,378.843 110.900 M369.482 113.789 C 370.073 114.993,370.623 115.911,370.705 115.829 C 370.884 115.649,368.867 111.600,368.598 111.600 C 368.494 111.600,368.892 112.585,369.482 113.789 M19.600 112.800 C 19.600 113.020,19.615 113.315,19.634 113.455 C 19.653 113.596,19.497 113.821,19.288 113.955 C 18.920 114.192,17.200 117.346,17.200 117.784 C 17.200 118.489,17.956 117.785,18.578 116.500 C 20.028 113.505,20.412 112.400,20.005 112.400 C 19.782 112.400,19.600 112.580,19.600 112.800 M382.236 117.542 C 382.080 117.794,382.154 118.000,382.400 118.000 C 382.646 118.000,382.736 118.180,382.600 118.400 C 382.464 118.620,382.554 118.800,382.800 118.800 C 383.046 118.800,383.136 118.980,383.000 119.200 C 382.864 119.420,382.954 119.600,383.200 119.600 C 383.446 119.600,383.544 119.768,383.417 119.972 C 383.291 120.177,383.370 120.458,383.593 120.596 C 384.215 120.980,384.048 119.953,383.243 118.442 C 382.792 117.595,382.413 117.256,382.236 117.542 M16.642 119.035 C 16.313 119.892,16.333 120.000,16.824 120.000 C 17.057 120.000,17.145 119.835,17.021 119.634 C 16.897 119.433,17.012 119.196,17.278 119.107 C 17.617 118.994,17.630 118.866,17.322 118.676 C 17.081 118.527,16.775 118.688,16.642 119.035 M27.872 121.819 C 26.932 123.789,27.064 124.124,28.047 122.262 C 28.493 121.416,28.787 120.654,28.701 120.567 C 28.614 120.481,28.241 121.044,27.872 121.819 M373.614 122.700 C 373.622 122.865,373.881 123.450,374.190 124.000 C 374.737 124.973,374.750 124.976,374.691 124.100 C 374.657 123.605,374.477 123.200,374.291 123.200 C 374.105 123.200,374.064 123.020,374.200 122.800 C 374.336 122.580,374.257 122.400,374.024 122.400 C 373.791 122.400,373.606 122.535,373.614 122.700 M26.465 125.017 C 25.795 126.488,25.923 126.802,26.647 125.465 C 26.986 124.840,27.188 124.254,27.096 124.163 C 27.005 124.071,26.721 124.456,26.465 125.017 M374.814 125.500 C 374.822 125.665,375.086 126.250,375.400 126.800 C 375.996 127.842,376.257 127.134,375.757 125.833 C 375.513 125.196,374.788 124.940,374.814 125.500 M376.157 128.633 C 376.291 128.981,376.400 129.341,376.400 129.433 C 376.400 129.525,376.563 129.600,376.763 129.600 C 376.962 129.600,377.031 129.240,376.916 128.800 C 376.801 128.360,376.528 128.000,376.311 128.000 C 376.093 128.000,376.024 128.285,376.157 128.633 M24.406 129.700 C 24.411 130.428,24.486 130.485,24.800 130.000 C 25.301 129.224,25.301 128.800,24.800 128.800 C 24.580 128.800,24.403 129.205,24.406 129.700 M388.229 132.000 C 388.376 132.550,388.664 133.270,388.867 133.600 C 389.125 134.017,389.157 133.895,388.971 133.200 C 388.824 132.650,388.536 131.930,388.333 131.600 C 388.075 131.183,388.043 131.305,388.229 132.000 M9.429 138.229 C 9.281 138.815,9.238 139.372,9.332 139.466 C 9.427 139.560,9.624 139.158,9.771 138.571 C 9.919 137.985,9.962 137.428,9.868 137.334 C 9.773 137.240,9.576 137.642,9.429 138.229 M127.600 140.400 C 127.600 140.856,146.236 140.869,157.800 140.422 C 163.426 140.204,160.911 140.127,146.300 140.071 C 134.052 140.025,127.600 140.138,127.600 140.400 M268.000 140.420 C 277.310 140.869,290.082 140.857,289.800 140.400 C 289.642 140.144,284.639 140.025,275.876 140.070 C 264.733 140.127,263.274 140.192,268.000 140.420 M380.861 140.400 C 380.861 140.730,381.103 141.630,381.400 142.400 C 381.697 143.170,381.939 143.530,381.939 143.200 C 381.939 142.870,381.697 141.970,381.400 141.200 C 381.103 140.430,380.861 140.070,380.861 140.400 M102.105 141.087 C 102.714 141.179,103.614 141.177,104.105 141.082 C 104.597 140.987,104.100 140.911,103.000 140.914 C 101.900 140.917,101.497 140.995,102.105 141.087 M98.000 141.976 C 96.510 142.764,94.807 144.400,95.476 144.400 C 95.696 144.400,96.219 144.021,96.638 143.558 C 97.056 143.096,98.029 142.384,98.800 141.976 C 99.570 141.569,100.020 141.235,99.800 141.235 C 99.580 141.235,98.770 141.569,98.000 141.976 M301.235 141.994 C 302.643 142.738,303.822 143.808,304.988 145.400 C 305.311 145.840,305.580 145.989,305.587 145.731 C 305.620 144.529,301.510 141.140,300.116 141.218 C 299.942 141.227,300.446 141.577,301.235 141.994 M94.000 148.424 C 94.000 149.317,94.145 149.958,94.323 149.848 C 94.632 149.656,94.477 146.800,94.156 146.800 C 94.070 146.800,94.000 147.531,94.000 148.424 M94.413 150.624 C 94.406 150.856,94.664 151.396,94.987 151.824 C 95.310 152.251,95.580 152.409,95.587 152.176 C 95.594 151.944,95.336 151.404,95.013 150.976 C 94.690 150.549,94.420 150.391,94.413 150.624 M303.200 153.400 C 302.683 153.950,302.441 154.400,302.661 154.400 C 302.881 154.400,303.483 153.950,304.000 153.400 C 304.517 152.850,304.759 152.400,304.539 152.400 C 304.319 152.400,303.717 152.850,303.200 153.400 M96.000 153.400 C 96.274 153.730,96.678 154.000,96.898 154.000 C 97.121 154.000,97.078 153.735,96.800 153.400 C 96.526 153.070,96.122 152.800,95.902 152.800 C 95.679 152.800,95.722 153.065,96.000 153.400 M103.300 155.876 C 103.685 155.976,104.315 155.976,104.700 155.876 C 105.085 155.775,104.770 155.693,104.000 155.693 C 103.230 155.693,102.915 155.775,103.300 155.876 M115.900 156.297 C 117.495 156.373,120.105 156.373,121.700 156.297 C 123.295 156.221,121.990 156.159,118.800 156.159 C 115.610 156.159,114.305 156.221,115.900 156.297 M278.482 156.296 C 279.958 156.373,282.478 156.373,284.082 156.297 C 285.687 156.221,284.480 156.158,281.400 156.158 C 278.320 156.157,277.007 156.219,278.482 156.296 M12.093 179.600 C 12.093 180.370,12.175 180.685,12.276 180.300 C 12.376 179.915,12.376 179.285,12.276 178.900 C 12.175 178.515,12.093 178.830,12.093 179.600 M11.701 185.400 C 11.705 186.280,11.787 186.593,11.883 186.095 C 11.979 185.598,11.975 184.878,11.875 184.495 C 11.775 184.113,11.696 184.520,11.701 185.400 M389.693 185.200 C 389.693 185.970,389.775 186.285,389.876 185.900 C 389.976 185.515,389.976 184.885,389.876 184.500 C 389.775 184.115,389.693 184.430,389.693 185.200 M399.701 189.000 C 399.705 189.880,399.787 190.193,399.883 189.695 C 399.979 189.198,399.975 188.478,399.875 188.095 C 399.775 187.713,399.696 188.120,399.701 189.000 M0.101 189.400 C 0.105 190.280,0.187 190.593,0.283 190.095 C 0.379 189.598,0.375 188.878,0.275 188.495 C 0.175 188.113,0.096 188.520,0.101 189.400 M390.109 192.000 C 390.109 192.990,390.187 193.395,390.282 192.900 C 390.378 192.405,390.378 191.595,390.282 191.100 C 390.187 190.605,390.109 191.010,390.109 192.000 M165.100 192.300 C 177.475 192.359,197.725 192.359,210.100 192.300 C 222.475 192.241,212.350 192.193,187.600 192.193 C 162.850 192.193,152.725 192.241,165.100 192.300 M104.931 192.664 C 105.211 192.944,110.875 192.859,111.163 192.570 C 111.257 192.477,109.833 192.400,108.000 192.400 C 106.167 192.400,104.785 192.519,104.931 192.664 M281.641 192.574 C 281.924 192.858,289.200 192.933,289.478 192.655 C 289.618 192.515,287.873 192.400,285.600 192.400 C 283.327 192.400,281.545 192.478,281.641 192.574 M98.500 193.465 C 97.947 193.688,97.813 194.400,98.324 194.400 C 98.501 194.400,98.996 194.136,99.424 193.813 C 100.213 193.215,99.647 193.002,98.500 193.465 M301.200 194.067 C 301.200 194.323,301.317 194.416,301.460 194.274 C 302.336 193.397,305.805 198.268,305.965 200.600 C 306.114 202.767,306.400 202.932,306.400 200.851 C 306.400 198.749,305.279 196.503,303.410 194.862 C 301.901 193.538,301.200 193.285,301.200 194.067 M95.924 195.500 C 94.374 197.161,93.274 199.696,94.407 198.996 C 94.630 198.858,94.724 198.600,94.615 198.424 C 94.506 198.248,94.773 197.692,95.208 197.190 C 95.644 196.688,96.000 196.137,96.000 195.966 C 96.000 195.794,96.360 195.540,96.800 195.400 C 97.240 195.260,97.600 194.978,97.600 194.773 C 97.600 194.105,96.970 194.378,95.924 195.500 M11.353 199.400 C 11.353 202.040,11.418 203.068,11.497 201.684 C 11.575 200.301,11.574 198.141,11.495 196.884 C 11.416 195.628,11.352 196.760,11.353 199.400 M304.485 204.314 C 303.076 205.801,303.037 206.634,304.435 205.369 C 305.289 204.595,306.173 203.215,305.932 203.029 C 305.860 202.972,305.208 203.551,304.485 204.314 M94.400 203.971 C 94.400 204.386,97.209 206.800,97.691 206.800 C 97.861 206.800,98.000 206.620,98.000 206.400 C 98.000 206.180,97.794 206.000,97.543 206.000 C 97.292 206.000,96.571 205.460,95.940 204.800 C 94.735 203.539,94.400 203.359,94.400 203.971 M390.114 207.400 C 390.117 208.500,390.195 208.903,390.287 208.295 C 390.379 207.686,390.377 206.786,390.282 206.295 C 390.187 205.803,390.111 206.300,390.114 207.400 M301.841 206.600 C 301.424 206.916,300.941 207.087,300.769 206.981 C 300.596 206.874,300.342 206.970,300.204 207.193 C 300.066 207.417,300.135 207.600,300.358 207.600 C 301.044 207.600,302.800 206.691,302.800 206.336 C 302.800 205.901,302.744 205.916,301.841 206.600 M105.105 208.283 C 105.602 208.379,106.322 208.375,106.705 208.275 C 107.087 208.175,106.680 208.096,105.800 208.101 C 104.920 208.105,104.607 208.187,105.105 208.283 M293.105 208.283 C 293.602 208.379,294.322 208.375,294.705 208.275 C 295.087 208.175,294.680 208.096,293.800 208.101 C 292.920 208.105,292.607 208.187,293.105 208.283 M118.300 208.696 C 119.675 208.774,121.925 208.774,123.300 208.696 C 124.675 208.618,123.550 208.554,120.800 208.554 C 118.050 208.554,116.925 208.618,118.300 208.696 M276.517 208.697 C 278.011 208.774,280.351 208.774,281.717 208.696 C 283.082 208.618,281.860 208.555,279.000 208.555 C 276.140 208.556,275.022 208.620,276.517 208.697 M399.701 211.800 C 399.705 212.680,399.787 212.993,399.883 212.495 C 399.979 211.998,399.975 211.278,399.875 210.895 C 399.775 210.513,399.696 210.920,399.701 211.800 M0.101 212.200 C 0.105 213.080,0.187 213.393,0.283 212.895 C 0.379 212.398,0.375 211.678,0.275 211.295 C 0.175 210.913,0.096 211.320,0.101 212.200 M11.709 213.600 C 11.709 214.590,11.787 214.995,11.882 214.500 C 11.978 214.005,11.978 213.195,11.882 212.700 C 11.787 212.205,11.709 212.610,11.709 213.600 M169.700 248.300 C 183.725 248.358,206.675 248.358,220.700 248.300 C 234.725 248.242,223.250 248.194,195.200 248.194 C 167.150 248.194,155.675 248.242,169.700 248.300 M105.911 248.693 C 106.851 248.778,108.291 248.777,109.111 248.691 C 109.930 248.605,109.160 248.536,107.400 248.537 C 105.640 248.539,104.970 248.609,105.911 248.693 M285.712 248.695 C 286.764 248.777,288.384 248.776,289.312 248.692 C 290.240 248.608,289.380 248.541,287.400 248.542 C 285.420 248.543,284.660 248.612,285.712 248.695 M97.567 250.335 C 95.430 251.691,93.686 254.000,94.800 254.000 C 95.020 254.000,95.200 253.822,95.200 253.605 C 95.200 252.912,96.544 251.536,98.378 250.350 C 99.356 249.717,99.977 249.200,99.757 249.200 C 99.537 249.200,98.551 249.711,97.567 250.335 M302.109 250.400 C 302.669 250.840,303.278 251.194,303.463 251.187 C 303.939 251.168,302.000 249.600,301.502 249.600 C 301.276 249.600,301.550 249.960,302.109 250.400 M304.666 252.600 C 305.117 253.951,306.000 255.098,306.000 254.333 C 306.000 253.979,305.640 253.264,305.199 252.744 C 304.504 251.925,304.434 251.906,304.666 252.600 M304.980 260.368 C 305.105 260.570,304.728 261.113,304.143 261.574 C 303.557 262.034,303.211 262.544,303.373 262.706 C 303.535 262.868,304.103 262.495,304.634 261.878 C 305.667 260.678,305.863 260.000,305.176 260.000 C 304.943 260.000,304.855 260.166,304.980 260.368 M95.165 261.134 C 95.552 261.858,97.942 263.600,98.547 263.600 C 99.244 263.600,98.673 262.783,97.829 262.572 C 97.295 262.437,96.765 262.086,96.652 261.790 C 96.538 261.494,96.061 261.047,95.592 260.796 C 94.815 260.380,94.777 260.410,95.165 261.134 M389.689 264.289 C 389.212 265.755,388.889 267.022,388.970 267.103 C 389.051 267.185,389.515 266.058,390.000 264.600 C 390.485 263.142,390.809 261.875,390.719 261.786 C 390.629 261.696,390.166 262.822,389.689 264.289 M296.800 263.600 C 296.315 263.914,296.372 263.989,297.100 263.994 C 297.595 263.997,298.000 263.820,298.000 263.600 C 298.000 263.099,297.576 263.099,296.800 263.600 M104.400 264.000 C 104.400 264.220,105.165 264.382,106.100 264.360 C 107.544 264.326,107.650 264.272,106.800 264.000 C 105.361 263.539,104.400 263.539,104.400 264.000 M290.800 264.000 C 289.950 264.272,290.056 264.326,291.500 264.360 C 292.435 264.382,293.200 264.220,293.200 264.000 C 293.200 263.539,292.239 263.539,290.800 264.000 M122.000 264.408 C 122.000 264.653,125.410 264.800,131.067 264.800 C 136.053 264.800,140.058 264.735,139.967 264.656 C 139.542 264.287,122.000 264.046,122.000 264.408 M273.600 264.400 C 269.948 264.637,270.030 264.650,275.724 264.723 C 279.590 264.773,281.561 264.661,281.400 264.400 C 281.143 263.985,279.993 263.985,273.600 264.400 M23.484 268.000 C 23.599 268.440,23.852 268.800,24.047 268.800 C 24.465 268.800,24.479 268.672,24.157 267.833 C 23.805 266.914,23.237 267.055,23.484 268.000 M376.643 269.433 C 376.321 270.272,376.335 270.400,376.753 270.400 C 376.948 270.400,377.201 270.040,377.316 269.600 C 377.563 268.655,376.995 268.514,376.643 269.433 M375.843 271.433 C 375.521 272.272,375.535 272.400,375.953 272.400 C 376.148 272.400,376.401 272.040,376.516 271.600 C 376.763 270.655,376.195 270.514,375.843 271.433 M374.849 273.852 C 374.406 274.823,374.513 275.621,375.018 275.116 C 375.276 274.857,375.680 272.800,375.472 272.800 C 375.393 272.800,375.113 273.273,374.849 273.852 M26.834 275.400 C 26.834 275.620,27.178 276.430,27.600 277.200 C 28.022 277.970,28.366 278.420,28.366 278.200 C 28.366 277.980,28.022 277.170,27.600 276.400 C 27.178 275.630,26.834 275.180,26.834 275.400 M373.474 277.014 C 372.682 278.674,372.665 278.800,373.224 278.800 C 373.457 278.800,373.536 278.620,373.400 278.400 C 373.264 278.180,373.354 278.000,373.600 278.000 C 373.846 278.000,373.936 277.820,373.800 277.600 C 373.664 277.380,373.705 277.200,373.891 277.200 C 374.077 277.200,374.257 276.840,374.290 276.400 C 374.373 275.293,374.250 275.386,373.474 277.014 M16.014 280.300 C 16.052 281.103,17.108 282.472,17.367 282.054 C 17.521 281.804,17.446 281.600,17.200 281.600 C 16.954 281.600,16.864 281.420,17.000 281.200 C 17.136 280.980,17.046 280.800,16.800 280.800 C 16.554 280.800,16.464 280.620,16.600 280.400 C 16.736 280.180,16.657 280.000,16.424 280.000 C 16.191 280.000,16.006 280.135,16.014 280.300 M383.056 281.212 C 382.670 281.866,382.468 282.400,382.606 282.400 C 382.744 282.400,382.573 282.685,382.225 283.032 C 381.877 283.380,381.720 283.870,381.875 284.121 C 382.040 284.389,382.555 283.702,383.118 282.461 C 384.183 280.113,384.147 279.367,383.056 281.212 M17.200 282.989 C 17.200 283.500,19.001 286.800,19.280 286.800 C 19.742 286.800,19.696 286.619,18.720 284.611 C 17.983 283.094,17.200 282.258,17.200 282.989 M378.894 289.800 C 377.745 292.110,376.891 294.000,376.997 294.000 C 377.102 294.000,377.754 292.875,378.446 291.500 C 379.137 290.125,379.835 288.910,379.996 288.800 C 380.309 288.586,381.600 286.187,381.600 285.820 C 381.600 284.862,380.667 286.234,378.894 289.800 M366.800 290.800 C 366.351 291.680,366.074 292.400,366.184 292.400 C 366.294 292.400,366.751 291.680,367.200 290.800 C 367.649 289.920,367.926 289.200,367.816 289.200 C 367.706 289.200,367.249 289.920,366.800 290.800 M35.141 292.540 C 38.036 297.814,39.632 300.400,39.992 300.400 C 40.187 300.400,39.726 299.479,38.968 298.352 C 38.210 297.226,36.768 294.796,35.763 292.952 C 34.758 291.109,33.844 289.600,33.731 289.600 C 33.619 289.600,34.254 290.923,35.141 292.540 M363.550 296.489 C 361.127 300.646,360.549 301.914,362.327 299.172 C 363.974 296.630,366.115 292.800,365.888 292.800 C 365.784 292.800,364.732 294.460,363.550 296.489 M371.359 303.690 C 368.778 308.045,368.220 309.083,368.717 308.600 C 369.405 307.931,373.672 300.738,373.488 300.555 C 373.394 300.461,372.436 301.872,371.359 303.690 M26.813 300.963 C 26.785 301.720,34.718 314.216,35.029 313.904 C 35.115 313.818,33.884 311.758,32.293 309.326 C 30.702 306.895,28.821 303.937,28.113 302.753 C 27.406 301.569,26.821 300.763,26.813 300.963 M356.637 307.000 C 356.276 307.550,356.145 308.000,356.345 308.000 C 356.545 308.000,357.003 307.550,357.363 307.000 C 357.724 306.450,357.855 306.000,357.655 306.000 C 357.455 306.000,356.997 306.450,356.637 307.000 M46.018 309.400 C 46.018 309.620,46.370 310.250,46.800 310.800 C 47.230 311.350,47.582 311.620,47.582 311.400 C 47.582 311.180,47.230 310.550,46.800 310.000 C 46.370 309.450,46.018 309.180,46.018 309.400 M366.781 311.028 C 366.089 312.034,365.606 312.939,365.707 313.041 C 365.809 313.142,366.186 312.769,366.546 312.212 C 366.906 311.656,367.491 310.750,367.846 310.200 C 368.988 308.432,368.083 309.136,366.781 311.028 M351.861 313.636 C 350.363 315.635,349.208 317.341,349.294 317.427 C 349.379 317.513,350.752 315.877,352.344 313.791 C 353.936 311.706,355.092 310.000,354.911 310.000 C 354.731 310.000,353.359 311.636,351.861 313.636 M50.400 315.443 C 50.400 315.874,54.491 320.843,54.685 320.648 C 54.855 320.478,50.828 315.200,50.528 315.200 C 50.458 315.200,50.400 315.309,50.400 315.443 M37.200 317.400 C 37.474 317.730,37.878 318.000,38.098 318.000 C 38.321 318.000,38.278 317.735,38.000 317.400 C 37.726 317.070,37.322 316.800,37.102 316.800 C 36.879 316.800,36.922 317.065,37.200 317.400 M347.958 318.698 C 346.971 319.913,345.569 322.000,345.740 322.000 C 346.057 322.000,348.887 318.354,348.709 318.176 C 348.610 318.076,348.272 318.311,347.958 318.698 M357.200 324.100 C 355.809 325.915,354.498 327.625,354.287 327.900 C 354.075 328.175,353.994 328.400,354.107 328.400 C 354.220 328.400,355.688 326.690,357.369 324.600 C 359.050 322.510,360.269 320.800,360.077 320.800 C 359.886 320.800,358.591 322.285,357.200 324.100 M40.811 321.815 C 40.817 322.027,41.352 322.830,42.000 323.600 C 42.648 324.370,43.176 324.820,43.173 324.600 C 43.170 324.380,42.635 323.577,41.984 322.815 C 41.333 322.053,40.805 321.603,40.811 321.815 M58.687 325.609 C 59.395 326.351,60.042 326.878,60.125 326.779 C 60.208 326.681,59.629 326.073,58.838 325.429 L 57.400 324.258 58.687 325.609 M43.621 325.400 C 43.623 325.620,44.355 326.610,45.249 327.600 C 46.143 328.590,46.503 328.860,46.049 328.200 C 44.656 326.177,43.618 324.980,43.621 325.400 M340.416 327.600 C 339.435 328.461,338.760 329.294,338.916 329.450 C 339.072 329.606,339.245 329.656,339.300 329.561 C 339.355 329.465,340.112 328.625,340.981 327.694 C 342.945 325.590,342.744 325.557,340.416 327.600 M61.200 328.211 C 61.200 328.431,63.630 331.036,66.600 334.000 C 69.570 336.964,72.000 339.209,72.000 338.989 C 72.000 338.769,69.570 336.164,66.600 333.200 C 63.630 330.236,61.200 327.991,61.200 328.211 M352.419 330.105 L 351.495 331.400 352.626 330.312 C 353.249 329.714,353.664 329.131,353.550 329.017 C 353.436 328.903,352.927 329.393,352.419 330.105 M47.200 329.925 C 47.200 330.104,47.770 330.779,48.466 331.425 L 49.733 332.600 48.619 331.100 C 47.489 329.579,47.200 329.339,47.200 329.925 M334.391 333.860 C 332.526 335.763,331.540 336.948,332.200 336.493 C 333.316 335.723,335.621 333.410,337.376 331.300 C 338.921 329.441,337.671 330.514,334.391 333.860 M349.635 333.329 L 348.279 335.000 349.819 333.513 C 350.667 332.696,351.277 331.944,351.176 331.843 C 351.075 331.742,350.382 332.411,349.635 333.329 M51.200 334.600 C 51.946 335.370,52.621 336.000,52.699 336.000 C 52.777 336.000,52.360 335.370,51.773 334.600 C 51.186 333.830,50.511 333.200,50.274 333.200 C 50.037 333.200,50.454 333.830,51.200 334.600 M341.243 341.815 C 338.076 345.007,335.556 347.689,335.643 347.776 C 335.832 347.965,341.611 342.460,345.171 338.700 C 349.912 333.692,347.048 335.963,341.243 341.815 M55.627 339.500 C 58.099 342.215,62.563 346.371,62.778 346.156 C 63.014 345.920,54.728 337.600,54.256 337.600 C 54.059 337.600,54.676 338.455,55.627 339.500 M328.159 339.700 C 326.112 342.061,325.940 342.466,327.600 341.019 C 328.590 340.155,329.460 339.303,329.533 339.124 C 329.808 338.457,328.911 338.833,328.159 339.700 M73.200 339.922 C 73.200 340.098,73.859 340.863,74.665 341.622 L 76.130 343.000 74.798 341.300 C 73.436 339.562,73.200 339.358,73.200 339.922 M79.762 345.942 C 80.181 346.414,80.687 346.800,80.886 346.800 C 81.449 346.800,80.850 346.054,79.878 345.544 C 79.006 345.087,79.005 345.090,79.762 345.942 M82.000 347.800 C 82.274 348.130,82.678 348.400,82.898 348.400 C 83.121 348.400,83.078 348.135,82.800 347.800 C 82.526 347.470,82.122 347.200,81.902 347.200 C 81.679 347.200,81.722 347.465,82.000 347.800 M318.800 347.800 C 318.522 348.135,318.479 348.400,318.702 348.400 C 318.922 348.400,319.326 348.130,319.600 347.800 C 319.878 347.465,319.921 347.200,319.698 347.200 C 319.478 347.200,319.074 347.470,318.800 347.800 M65.578 348.936 C 67.017 350.464,67.200 350.595,67.200 350.100 C 67.200 349.935,66.525 349.276,65.700 348.636 L 64.200 347.472 65.578 348.936 M83.820 349.135 C 85.443 350.567,90.000 353.765,90.000 353.472 C 90.000 353.215,84.077 348.800,83.733 348.800 C 83.572 348.800,83.611 348.951,83.820 349.135 M313.098 352.097 C 310.732 353.875,308.871 355.404,308.962 355.495 C 309.053 355.586,310.897 354.342,313.059 352.730 C 318.056 349.007,318.282 348.821,317.800 348.845 C 317.580 348.856,315.464 350.319,313.098 352.097 M332.800 350.000 C 332.030 350.648,331.591 351.183,331.825 351.189 C 332.059 351.195,332.768 350.660,333.400 350.000 C 334.856 348.481,334.605 348.481,332.800 350.000 M69.087 352.022 C 69.795 352.757,70.475 353.258,70.598 353.135 C 70.721 353.012,70.142 352.411,69.311 351.798 L 67.800 350.685 69.087 352.022 M329.800 352.612 C 329.140 353.153,328.794 353.597,329.030 353.598 C 329.267 353.599,329.883 353.150,330.400 352.600 C 331.585 351.338,331.348 351.343,329.800 352.612 M72.800 355.163 C 73.790 356.050,74.773 356.781,74.985 356.788 C 75.453 356.803,72.917 354.560,71.800 353.972 C 71.360 353.740,71.810 354.276,72.800 355.163 M90.400 353.895 C 90.400 354.284,92.014 355.319,92.251 355.082 C 92.347 354.986,91.969 354.610,91.412 354.245 C 90.856 353.880,90.400 353.722,90.400 353.895 M325.507 356.094 C 324.049 357.246,322.925 358.258,323.010 358.343 C 323.172 358.505,328.400 354.453,328.400 354.166 C 328.400 353.843,328.129 354.023,325.507 356.094 M76.000 357.800 C 76.274 358.130,76.678 358.400,76.898 358.400 C 77.121 358.400,77.078 358.135,76.800 357.800 C 76.526 357.470,76.122 357.200,75.902 357.200 C 75.679 357.200,75.722 357.465,76.000 357.800 M96.800 358.290 C 96.800 358.465,97.160 358.832,97.600 359.107 C 98.043 359.384,98.400 359.433,98.400 359.217 C 98.400 359.003,98.040 358.635,97.600 358.400 C 97.160 358.165,96.800 358.115,96.800 358.290 M78.815 359.961 C 79.577 360.600,80.283 361.042,80.384 360.943 C 80.615 360.720,78.339 358.834,77.815 358.814 C 77.603 358.806,78.053 359.322,78.815 359.961 M302.571 359.371 C 302.148 359.681,301.904 360.037,302.030 360.163 C 302.156 360.289,302.605 360.138,303.029 359.829 C 303.452 359.519,303.696 359.163,303.570 359.037 C 303.444 358.911,302.995 359.062,302.571 359.371 M320.403 359.980 C 319.634 360.617,319.094 361.226,319.203 361.332 C 319.311 361.438,320.120 360.915,321.000 360.169 C 321.880 359.422,322.420 358.814,322.200 358.817 C 321.980 358.819,321.171 359.343,320.403 359.980 M100.000 360.324 C 100.000 360.490,101.665 361.596,103.700 362.783 C 108.099 365.350,108.000 365.297,108.000 365.058 C 108.000 364.954,106.875 364.238,105.500 363.468 C 104.125 362.697,102.325 361.607,101.500 361.045 C 100.675 360.484,100.000 360.159,100.000 360.324 M295.000 364.020 C 292.360 365.539,289.930 366.975,289.600 367.210 C 288.521 367.981,296.646 363.697,298.649 362.440 C 302.212 360.203,299.873 361.216,295.000 364.020 M83.384 363.397 C 84.036 363.929,84.646 364.287,84.741 364.192 C 84.971 363.962,83.108 362.426,82.600 362.428 C 82.380 362.428,82.733 362.864,83.384 363.397 M312.016 366.045 C 308.811 368.283,306.996 369.760,308.400 368.987 C 309.726 368.258,316.000 363.967,316.000 363.790 C 316.000 363.363,315.242 363.793,312.016 366.045 M86.903 365.709 C 87.067 366.200,98.824 373.607,99.400 373.582 C 99.620 373.572,99.111 373.168,98.270 372.682 C 97.428 372.197,94.495 370.337,91.753 368.549 C 89.010 366.761,86.828 365.483,86.903 365.709 M109.200 365.784 C 109.200 365.894,109.920 366.351,110.800 366.800 C 111.680 367.249,112.400 367.526,112.400 367.416 C 112.400 367.306,111.680 366.849,110.800 366.400 C 109.920 365.951,109.200 365.674,109.200 365.784 M303.022 371.834 C 298.967 374.315,298.230 374.887,300.683 373.650 C 302.928 372.518,307.504 369.603,307.000 369.626 C 306.780 369.636,304.990 370.630,303.022 371.834 M121.140 371.804 C 122.317 372.352,123.397 372.792,123.540 372.782 C 124.038 372.747,120.196 370.836,119.600 370.822 C 119.270 370.814,119.963 371.256,121.140 371.804 M278.400 372.400 C 277.630 372.822,277.180 373.166,277.400 373.166 C 277.620 373.166,278.430 372.822,279.200 372.400 C 279.970 371.978,280.420 371.634,280.200 371.634 C 279.980 371.634,279.170 371.978,278.400 372.400 M124.000 373.200 C 124.000 373.420,124.255 373.600,124.567 373.600 C 124.879 373.600,125.464 373.702,125.867 373.828 C 126.270 373.953,126.150 373.779,125.600 373.442 C 124.419 372.717,124.000 372.654,124.000 373.200 M275.200 373.800 C 274.650 374.114,274.380 374.372,274.600 374.372 C 274.820 374.372,275.450 374.114,276.000 373.800 C 276.550 373.486,276.820 373.228,276.600 373.228 C 276.380 373.228,275.750 373.486,275.200 373.800 M126.800 374.400 C 126.800 374.620,127.205 374.797,127.700 374.794 C 128.428 374.789,128.485 374.714,128.000 374.400 C 127.224 373.899,126.800 373.899,126.800 374.400 M102.800 375.379 C 102.800 375.489,103.340 375.859,104.000 376.200 C 104.660 376.541,105.200 376.731,105.200 376.621 C 105.200 376.511,104.660 376.141,104.000 375.800 C 103.340 375.459,102.800 375.269,102.800 375.379 M270.800 375.600 C 270.315 375.914,270.372 375.989,271.100 375.994 C 271.595 375.997,272.000 375.820,272.000 375.600 C 272.000 375.099,271.576 375.099,270.800 375.600 M267.700 376.665 C 266.881 376.995,267.133 377.543,268.000 377.316 C 268.440 377.201,268.800 376.948,268.800 376.753 C 268.800 376.372,268.488 376.347,267.700 376.665 M113.600 381.115 C 113.600 381.397,116.894 383.200,117.411 383.200 C 117.817 383.200,117.572 382.474,117.100 382.279 C 116.825 382.166,115.925 381.784,115.100 381.431 C 114.275 381.078,113.600 380.936,113.600 381.115 M283.700 381.898 C 282.598 382.446,281.954 383.200,282.586 383.200 C 283.096 383.200,285.600 381.809,285.600 381.526 C 285.600 381.072,285.203 381.150,283.700 381.898 M280.400 383.709 C 280.400 383.895,280.220 383.936,280.000 383.800 C 279.780 383.664,279.600 383.743,279.600 383.976 C 279.600 384.533,279.985 384.493,281.200 383.810 C 282.173 383.263,282.176 383.250,281.300 383.309 C 280.805 383.343,280.400 383.523,280.400 383.709 M218.900 388.276 C 219.285 388.376,219.915 388.376,220.300 388.276 C 220.685 388.175,220.370 388.093,219.600 388.093 C 218.830 388.093,218.515 388.175,218.900 388.276 M184.500 388.676 C 184.885 388.776,185.515 388.776,185.900 388.676 C 186.285 388.575,185.970 388.493,185.200 388.493 C 184.430 388.493,184.115 388.575,184.500 388.676 M212.705 388.683 C 213.202 388.779,213.922 388.775,214.305 388.675 C 214.687 388.575,214.280 388.496,213.400 388.501 C 212.520 388.505,212.207 388.587,212.705 388.683 M195.900 389.097 C 197.495 389.173,200.105 389.173,201.700 389.097 C 203.295 389.021,201.990 388.959,198.800 388.959 C 195.610 388.959,194.305 389.021,195.900 389.097 M186.900 400.276 C 187.285 400.376,187.915 400.376,188.300 400.276 C 188.685 400.175,188.370 400.093,187.600 400.093 C 186.830 400.093,186.515 400.175,186.900 400.276 M211.700 400.276 C 212.085 400.376,212.715 400.376,213.100 400.276 C 213.485 400.175,213.170 400.093,212.400 400.093 C 211.630 400.093,211.315 400.175,211.700 400.276 M197.700 400.696 C 198.965 400.775,201.035 400.775,202.300 400.696 C 203.565 400.616,202.530 400.551,200.000 400.551 C 197.470 400.551,196.435 400.616,197.700 400.696 " stroke="none" fill="#c8c8c8" fill-rule="evenodd"></path><path id="path1" d="M189.800 0.677 C 182.927 0.971,168.735 2.653,165.000 3.617 C 164.120 3.844,162.770 4.126,162.000 4.244 C 159.662 4.602,159.431 4.648,158.542 4.943 C 158.070 5.099,157.170 5.301,156.542 5.392 C 155.914 5.482,154.815 5.733,154.100 5.950 C 153.385 6.167,152.800 6.245,152.800 6.123 C 152.800 6.002,152.575 6.083,152.300 6.305 C 152.025 6.526,151.170 6.836,150.400 6.994 C 149.630 7.151,146.945 7.884,144.433 8.622 C 141.921 9.360,139.716 9.872,139.533 9.758 C 139.350 9.645,139.200 9.763,139.200 10.019 C 139.200 10.276,138.930 10.382,138.600 10.255 C 138.270 10.129,138.000 10.164,138.000 10.334 C 138.000 10.504,136.695 11.060,135.100 11.569 C 79.113 29.460,26.310 83.106,10.365 138.300 C 10.054 139.376,9.640 140.002,9.237 140.006 C 8.753 140.011,8.724 140.091,9.116 140.339 C 9.512 140.591,9.530 140.932,9.196 141.811 C 8.770 142.931,4.902 157.421,4.608 159.000 C 4.526 159.440,4.339 160.340,4.193 161.000 C 4.047 161.660,3.877 162.560,3.815 163.000 C 3.753 163.440,3.326 165.870,2.866 168.400 C -0.736 188.193,-0.552 220.974,3.241 235.325 C 3.463 236.164,3.737 237.424,3.851 238.125 C 4.144 239.927,4.250 240.465,4.538 241.600 C 4.678 242.150,4.875 243.050,4.977 243.600 C 7.456 256.981,16.511 281.151,24.308 295.200 C 52.284 345.605,95.413 379.234,151.033 394.012 C 156.089 395.355,156.121 395.363,158.600 395.967 C 179.994 401.175,216.800 401.596,236.800 396.861 C 237.570 396.679,238.336 396.508,238.503 396.482 C 240.549 396.164,242.009 395.871,243.000 395.581 C 243.660 395.387,244.650 395.149,245.200 395.052 C 245.750 394.954,248.270 394.293,250.800 393.583 C 253.330 392.873,255.670 392.271,256.000 392.246 C 256.330 392.221,256.690 392.110,256.800 392.000 C 256.910 391.890,259.802 390.872,263.226 389.737 C 321.988 370.268,369.430 323.307,388.836 265.400 C 389.573 263.200,390.272 261.310,390.388 261.200 C 390.505 261.090,390.623 260.730,390.651 260.400 C 390.679 260.070,391.365 257.550,392.175 254.800 C 393.707 249.596,393.907 248.859,394.244 247.200 C 394.355 246.650,394.624 245.480,394.841 244.600 C 401.415 217.917,401.474 186.966,395.009 156.600 C 381.842 94.749,334.285 38.824,274.800 15.237 C 265.987 11.743,249.517 6.513,245.125 5.815 C 244.534 5.721,243.274 5.427,242.325 5.162 C 241.376 4.897,240.060 4.615,239.400 4.535 C 238.740 4.455,237.210 4.139,236.000 3.832 C 234.790 3.525,232.900 3.151,231.800 3.001 C 230.700 2.852,229.350 2.655,228.800 2.565 C 218.461 0.865,202.952 0.114,189.800 0.677 M211.600 10.140 C 220.691 10.662,226.389 11.146,226.858 11.436 C 227.080 11.573,227.832 11.737,228.531 11.801 C 231.987 12.116,234.093 12.410,234.441 12.625 C 234.653 12.756,235.496 12.944,236.313 13.043 C 237.131 13.141,238.160 13.338,238.600 13.481 C 239.040 13.624,239.670 13.787,240.000 13.843 C 242.575 14.278,243.654 14.504,245.400 14.977 C 253.450 17.157,255.987 17.886,260.400 19.287 C 314.521 36.465,360.729 81.594,379.698 135.800 C 381.481 140.896,383.546 147.211,383.818 148.400 C 383.893 148.730,384.320 150.286,384.767 151.857 C 385.662 155.006,387.069 161.146,387.378 163.252 C 387.487 163.993,387.760 165.351,387.983 166.270 C 388.207 167.188,388.464 168.808,388.554 169.870 C 388.645 170.931,388.847 172.118,389.004 172.506 C 389.162 172.894,389.197 173.569,389.083 174.006 C 388.968 174.442,389.045 174.904,389.252 175.032 C 389.459 175.160,389.636 175.925,389.645 176.732 C 389.681 179.938,389.845 181.826,390.128 182.284 C 390.470 182.836,390.476 183.178,390.480 199.800 C 390.481 206.620,390.383 213.370,390.263 214.800 C 390.142 216.230,390.039 218.095,390.035 218.944 C 390.030 219.792,389.824 220.730,389.578 221.026 C 389.332 221.322,389.244 221.748,389.382 221.971 C 389.704 222.492,388.824 229.260,388.359 229.837 C 388.165 230.077,388.109 230.376,388.234 230.501 C 388.458 230.725,387.392 237.228,386.939 238.400 C 386.812 238.730,386.645 239.603,386.569 240.340 C 386.493 241.078,386.246 241.904,386.019 242.177 C 385.792 242.450,385.687 242.754,385.785 242.852 C 385.950 243.016,385.625 244.360,383.816 251.000 C 369.016 305.329,326.900 353.351,275.400 374.618 C 266.123 378.449,245.550 385.048,240.464 385.825 C 239.017 386.046,237.757 386.279,236.200 386.614 C 232.652 387.377,231.184 387.620,228.864 387.831 C 227.399 387.963,225.300 388.166,224.200 388.281 C 210.314 389.735,188.016 389.739,176.200 388.290 C 175.320 388.183,173.700 387.988,172.600 387.858 C 171.500 387.728,168.440 387.167,165.800 386.612 C 163.160 386.057,160.460 385.504,159.800 385.383 C 159.140 385.263,157.700 384.917,156.600 384.615 C 155.500 384.313,153.160 383.673,151.400 383.193 C 91.100 366.753,43.211 322.962,22.238 265.084 C 19.552 257.673,15.362 242.962,14.637 238.400 C 14.399 236.902,14.301 236.422,13.644 233.556 C 13.412 232.541,13.107 230.741,12.967 229.556 C 12.827 228.370,12.625 226.860,12.518 226.200 C 10.876 216.039,10.529 194.618,11.763 179.600 C 12.251 173.661,12.413 172.191,12.663 171.428 C 12.811 170.973,12.971 170.240,13.016 169.800 C 13.205 167.981,13.640 165.476,14.212 162.917 C 14.546 161.423,14.888 159.840,14.971 159.400 C 24.296 110.157,60.140 61.329,106.572 34.618 C 121.443 26.064,147.596 15.924,159.075 14.262 C 159.777 14.161,160.517 13.975,160.720 13.849 C 160.923 13.724,161.699 13.530,162.445 13.419 C 163.190 13.307,165.150 12.939,166.800 12.600 C 168.450 12.261,170.700 11.879,171.800 11.750 C 172.900 11.622,174.430 11.429,175.200 11.322 C 180.524 10.582,183.105 10.332,186.937 10.182 C 188.662 10.115,190.189 9.944,190.330 9.803 C 190.589 9.544,205.275 9.777,211.600 10.140 M189.100 140.300 C 202.575 140.358,224.625 140.358,238.100 140.300 C 251.575 140.242,240.550 140.194,213.600 140.194 C 186.650 140.194,175.625 140.242,189.100 140.300 M110.000 141.178 C 98.543 141.438,96.773 142.030,95.225 146.126 C 93.940 149.529,96.899 154.740,100.322 155.100 C 107.206 155.823,122.840 155.958,200.200 155.958 C 278.392 155.958,296.756 155.791,299.800 155.055 C 300.240 154.948,300.729 154.847,300.886 154.831 C 301.487 154.766,304.067 152.231,304.620 151.160 C 306.273 147.964,304.623 143.957,300.901 142.130 L 298.600 141.000 209.200 140.978 C 160.030 140.966,115.390 141.056,110.000 141.178 M126.962 192.891 C 126.103 193.051,120.270 193.168,114.000 193.152 C 101.583 193.120,100.091 193.320,97.382 195.387 C 92.247 199.303,95.274 207.200,101.909 207.200 C 102.546 207.200,103.170 207.303,103.296 207.429 C 104.591 208.725,292.450 208.757,296.400 207.463 C 296.730 207.354,297.765 207.178,298.700 207.071 C 302.348 206.653,305.595 203.698,305.599 200.794 C 305.602 197.901,302.139 194.000,299.569 194.000 C 298.926 194.000,298.400 193.865,298.400 193.700 C 298.401 193.535,297.096 193.388,295.500 193.372 C 293.905 193.357,285.400 193.229,276.600 193.087 C 253.327 192.711,128.802 192.548,126.962 192.891 M129.030 248.703 C 128.973 248.760,122.991 248.899,115.737 249.010 C 108.482 249.122,101.959 249.382,101.240 249.589 C 98.009 250.515,94.800 253.385,94.800 255.347 C 94.800 255.706,94.620 256.000,94.400 256.000 C 94.180 256.000,94.000 256.360,94.000 256.800 C 94.000 257.240,94.180 257.600,94.400 257.600 C 94.620 257.600,94.800 257.887,94.800 258.238 C 94.800 260.300,98.315 263.200,100.813 263.200 C 101.613 263.200,102.382 263.315,102.523 263.456 C 103.176 264.110,292.865 264.050,294.498 263.395 C 294.882 263.242,295.917 263.184,296.798 263.268 C 297.679 263.352,298.400 263.323,298.400 263.202 C 298.400 263.082,299.525 262.770,300.900 262.509 C 303.718 261.975,304.624 261.179,305.039 258.871 C 305.185 258.062,305.481 257.177,305.698 256.904 C 306.298 256.147,304.719 253.153,302.930 251.654 C 300.428 249.558,301.251 249.812,295.800 249.452 C 287.144 248.879,129.561 248.172,129.030 248.703 " stroke="none" fill="#040404" fill-rule="evenodd"></path><path id="path2" d="M190.500 0.676 C 190.885 0.776,191.515 0.776,191.900 0.676 C 192.285 0.575,191.970 0.493,191.200 0.493 C 190.430 0.493,190.115 0.575,190.500 0.676 M243.233 5.344 C 243.325 5.423,243.940 5.608,244.600 5.756 C 245.476 5.952,245.638 5.915,245.200 5.618 C 244.660 5.253,242.832 4.998,243.233 5.344 M150.400 6.631 L 148.600 7.184 150.200 6.961 C 151.080 6.838,151.971 6.572,152.180 6.369 C 152.626 5.936,152.699 5.925,150.400 6.631 M247.400 6.400 C 247.840 6.589,248.560 6.738,249.000 6.732 C 249.643 6.723,249.604 6.657,248.800 6.400 C 247.432 5.962,246.381 5.962,247.400 6.400 M250.600 7.139 C 251.837 7.668,253.910 8.077,253.200 7.651 C 252.870 7.454,251.970 7.180,251.200 7.044 C 250.256 6.877,250.060 6.908,250.600 7.139 M254.000 7.831 C 254.000 8.101,256.078 8.856,256.276 8.657 C 256.367 8.567,255.892 8.301,255.220 8.067 C 254.549 7.833,254.000 7.727,254.000 7.831 M144.000 8.418 C 143.562 8.715,143.724 8.752,144.600 8.556 C 146.071 8.227,146.390 7.998,145.367 8.006 C 144.945 8.009,144.330 8.195,144.000 8.418 M189.421 9.947 C 188.772 10.086,192.787 10.200,198.343 10.200 C 203.899 10.200,208.029 10.083,207.522 9.940 C 206.341 9.607,190.981 9.613,189.421 9.947 M183.646 10.363 C 183.305 10.579,183.842 10.641,185.046 10.524 C 187.755 10.260,188.133 10.068,186.000 10.038 C 185.010 10.024,183.951 10.170,183.646 10.363 M210.033 10.147 C 210.125 10.228,211.460 10.386,213.000 10.499 C 214.602 10.616,215.458 10.565,215.000 10.380 C 214.222 10.065,209.700 9.853,210.033 10.147 M179.600 10.806 C 179.178 11.082,179.415 11.123,180.400 10.942 C 182.125 10.625,182.451 10.398,181.167 10.406 C 180.635 10.409,179.930 10.589,179.600 10.806 M216.833 10.544 C 216.925 10.623,217.900 10.791,219.000 10.918 C 220.287 11.067,220.715 11.026,220.200 10.803 C 219.436 10.472,216.486 10.245,216.833 10.544 M176.400 11.218 C 175.962 11.515,176.124 11.552,177.000 11.356 C 178.471 11.027,178.790 10.798,177.767 10.806 C 177.345 10.809,176.730 10.995,176.400 11.218 M222.600 11.163 C 225.290 11.723,227.845 11.973,227.200 11.614 C 226.870 11.430,225.340 11.178,223.800 11.055 C 221.773 10.892,221.442 10.922,222.600 11.163 M169.000 12.218 L 166.600 12.748 168.723 12.533 C 169.890 12.415,171.330 12.172,171.923 11.994 C 173.669 11.467,171.721 11.616,169.000 12.218 M231.600 12.400 C 232.150 12.576,233.050 12.717,233.600 12.713 C 234.498 12.706,234.478 12.674,233.400 12.400 C 231.708 11.969,230.256 11.969,231.600 12.400 M164.000 13.206 C 163.578 13.482,163.815 13.523,164.800 13.342 C 166.525 13.025,166.851 12.798,165.567 12.806 C 165.035 12.809,164.330 12.989,164.000 13.206 M161.600 13.600 C 160.776 13.864,160.741 13.926,161.400 13.954 C 161.840 13.973,162.470 13.813,162.800 13.600 C 163.501 13.147,163.014 13.147,161.600 13.600 M105.500 24.229 C 104.005 25.040,104.096 25.378,105.600 24.600 C 106.260 24.259,106.800 23.894,106.800 23.790 C 106.800 23.532,106.757 23.547,105.500 24.229 M116.000 29.600 C 114.790 30.239,113.941 30.771,114.113 30.781 C 114.538 30.807,118.400 28.836,118.400 28.593 C 118.400 28.326,118.455 28.303,116.000 29.600 M283.600 28.768 C 283.600 28.935,284.095 29.303,284.700 29.586 C 288.833 31.516,289.828 31.576,286.000 29.663 C 284.680 29.004,283.600 28.601,283.600 28.768 M290.400 32.179 C 290.400 32.289,290.940 32.659,291.600 33.000 C 292.260 33.341,292.800 33.531,292.800 33.421 C 292.800 33.311,292.260 32.941,291.600 32.600 C 290.940 32.259,290.400 32.069,290.400 32.179 M328.800 47.725 C 328.800 47.794,329.385 48.379,330.100 49.025 L 331.400 50.200 330.225 48.900 C 329.130 47.688,328.800 47.416,328.800 47.725 M333.200 51.800 C 333.946 52.570,334.647 53.200,334.757 53.200 C 334.867 53.200,334.346 52.570,333.600 51.800 C 332.854 51.030,332.153 50.400,332.043 50.400 C 331.933 50.400,332.454 51.030,333.200 51.800 M337.983 56.100 C 338.964 57.145,339.819 58.000,339.883 58.000 C 340.184 58.000,339.866 57.641,338.100 55.983 L 336.200 54.200 337.983 56.100 M58.791 59.100 L 55.400 62.600 58.900 59.209 C 62.151 56.059,62.582 55.600,62.291 55.600 C 62.231 55.600,60.656 57.175,58.791 59.100 M70.975 60.900 L 69.800 62.200 71.100 61.025 C 71.815 60.379,72.400 59.794,72.400 59.725 C 72.400 59.416,72.070 59.688,70.975 60.900 M344.400 62.600 C 345.817 64.030,347.067 65.200,347.177 65.200 C 347.287 65.200,346.217 64.030,344.800 62.600 C 343.383 61.170,342.133 60.000,342.023 60.000 C 341.913 60.000,342.983 61.170,344.400 62.600 M333.621 64.300 C 334.338 65.125,335.662 66.416,336.562 67.168 C 337.463 67.920,336.945 67.245,335.411 65.668 C 332.380 62.551,331.550 61.917,333.621 64.300 M51.775 66.500 L 50.600 67.800 51.900 66.625 C 52.615 65.979,53.200 65.394,53.200 65.325 C 53.200 65.016,52.870 65.288,51.775 66.500 M349.400 68.000 C 350.259 68.880,351.052 69.600,351.162 69.600 C 351.272 69.600,350.659 68.880,349.800 68.000 C 348.941 67.120,348.148 66.400,348.038 66.400 C 347.928 66.400,348.541 67.120,349.400 68.000 M61.578 70.300 L 60.200 71.800 61.700 70.422 C 63.096 69.138,63.384 68.800,63.078 68.800 C 63.012 68.800,62.337 69.475,61.578 70.300 M48.175 70.500 L 47.000 71.800 48.300 70.625 C 49.015 69.979,49.600 69.394,49.600 69.325 C 49.600 69.016,49.270 69.288,48.175 70.500 M351.200 70.125 C 351.200 70.194,351.785 70.779,352.500 71.425 L 353.800 72.600 352.625 71.300 C 351.530 70.088,351.200 69.816,351.200 70.125 M368.000 110.000 C 368.449 110.880,368.906 111.600,369.016 111.600 C 369.126 111.600,368.849 110.880,368.400 110.000 C 367.951 109.120,367.494 108.400,367.384 108.400 C 367.274 108.400,367.551 109.120,368.000 110.000 M31.051 113.900 C 29.381 117.218,28.232 119.937,28.726 119.400 C 29.193 118.893,32.808 111.200,32.580 111.200 C 32.486 111.200,31.799 112.415,31.051 113.900 M196.270 140.700 C 206.428 140.759,223.168 140.759,233.470 140.700 C 243.771 140.641,235.460 140.592,215.000 140.592 C 194.540 140.592,186.111 140.640,196.270 140.700 M111.700 141.097 C 113.185 141.174,115.615 141.174,117.100 141.097 C 118.585 141.020,117.370 140.957,114.400 140.957 C 111.430 140.957,110.215 141.020,111.700 141.097 M295.105 141.083 C 295.602 141.179,296.322 141.175,296.705 141.075 C 297.087 140.975,296.680 140.896,295.800 140.901 C 294.920 140.905,294.607 140.987,295.105 141.083 M390.863 141.400 C 390.862 141.620,391.103 142.430,391.400 143.200 C 391.697 143.970,391.945 144.330,391.952 144.000 C 391.958 143.670,391.717 142.860,391.414 142.200 C 391.112 141.540,390.864 141.180,390.863 141.400 M7.849 145.070 C 7.078 147.576,5.606 153.498,5.630 154.000 C 5.645 154.330,6.261 152.352,7.000 149.605 C 7.738 146.857,8.282 144.549,8.208 144.475 C 8.134 144.400,7.972 144.668,7.849 145.070 M305.212 148.180 C 305.203 149.041,305.320 149.240,305.641 148.919 C 305.958 148.602,305.961 148.268,305.654 147.739 C 305.277 147.091,305.223 147.146,305.212 148.180 M384.850 153.000 C 384.831 153.220,385.066 154.300,385.372 155.400 C 385.678 156.500,385.931 157.040,385.933 156.600 C 385.939 155.748,384.908 152.323,384.850 153.000 M107.905 155.883 C 108.402 155.979,109.122 155.975,109.505 155.875 C 109.887 155.775,109.480 155.696,108.600 155.701 C 107.720 155.705,107.407 155.787,107.905 155.883 M290.900 155.876 C 291.285 155.976,291.915 155.976,292.300 155.876 C 292.685 155.775,292.370 155.693,291.600 155.693 C 290.830 155.693,290.515 155.775,290.900 155.876 M170.700 156.300 C 186.815 156.358,213.185 156.358,229.300 156.300 C 245.415 156.242,232.230 156.195,200.000 156.195 C 167.770 156.195,154.585 156.242,170.700 156.300 M386.080 158.200 C 386.080 158.640,386.224 159.450,386.400 160.000 C 386.654 160.792,386.720 160.833,386.720 160.200 C 386.720 159.760,386.576 158.950,386.400 158.400 C 386.146 157.608,386.080 157.567,386.080 158.200 M387.366 165.000 C 387.599 165.914,388.392 170.814,388.397 171.367 C 388.399 171.568,388.495 171.638,388.612 171.521 C 388.908 171.225,387.999 165.532,387.539 164.800 C 387.245 164.333,387.207 164.377,387.366 165.000 M12.493 172.800 C 12.493 173.570,12.575 173.885,12.676 173.500 C 12.776 173.115,12.776 172.485,12.676 172.100 C 12.575 171.715,12.493 172.030,12.493 172.800 M388.828 175.076 C 388.918 176.115,389.544 176.996,389.572 176.124 C 389.587 175.642,389.420 175.136,389.200 175.000 C 388.980 174.864,388.813 174.898,388.828 175.076 M11.693 179.200 C 11.693 179.970,11.775 180.285,11.876 179.900 C 11.976 179.515,11.976 178.885,11.876 178.500 C 11.775 178.115,11.693 178.430,11.693 179.200 M389.444 179.000 C 389.773 180.471,390.002 180.790,389.994 179.767 C 389.991 179.345,389.805 178.730,389.582 178.400 C 389.285 177.962,389.248 178.124,389.444 179.000 M389.840 183.066 C 390.208 184.599,390.400 184.744,390.400 183.490 C 390.400 182.917,390.213 182.332,389.984 182.190 C 389.711 182.021,389.662 182.323,389.840 183.066 M11.309 184.800 C 11.309 185.790,11.387 186.195,11.482 185.700 C 11.578 185.205,11.578 184.395,11.482 183.900 C 11.387 183.405,11.309 183.810,11.309 184.800 M390.268 188.800 C 390.400 190.010,390.574 191.075,390.654 191.167 C 390.964 191.521,390.725 188.157,390.386 187.400 C 390.152 186.878,390.112 187.363,390.268 188.800 M11.054 190.256 C 10.718 192.713,10.770 207.374,11.123 209.358 C 11.275 210.215,11.400 205.850,11.400 199.658 C 11.400 193.466,11.379 188.400,11.354 188.400 C 11.329 188.400,11.194 189.235,11.054 190.256 M115.400 192.800 C 112.387 193.008,112.909 193.057,118.600 193.101 C 122.340 193.130,126.120 193.005,127.000 192.823 C 128.924 192.425,121.050 192.409,115.400 192.800 M262.800 192.814 C 264.230 192.975,269.000 193.098,273.400 193.089 C 279.188 193.076,280.571 192.992,278.400 192.788 C 274.262 192.397,259.317 192.423,262.800 192.814 M399.709 194.000 C 399.709 194.990,399.787 195.395,399.882 194.900 C 399.978 194.405,399.978 193.595,399.882 193.100 C 399.787 192.605,399.709 193.010,399.709 194.000 M0.101 194.200 C 0.105 195.080,0.187 195.393,0.283 194.895 C 0.379 194.398,0.375 193.678,0.275 193.295 C 0.175 192.913,0.096 193.320,0.101 194.200 M292.400 193.200 C 292.730 193.413,293.630 193.578,294.400 193.566 C 295.544 193.548,295.654 193.481,295.000 193.200 C 293.829 192.697,291.621 192.697,292.400 193.200 M390.537 199.800 C 390.539 201.560,390.609 202.230,390.693 201.289 C 390.778 200.349,390.777 198.909,390.691 198.089 C 390.605 197.270,390.536 198.040,390.537 199.800 M94.267 199.467 C 93.857 199.877,93.951 201.522,94.400 201.800 C 94.638 201.947,94.800 201.471,94.800 200.624 C 94.800 199.162,94.728 199.005,94.267 199.467 M399.701 206.600 C 399.705 207.480,399.787 207.793,399.883 207.295 C 399.979 206.798,399.975 206.078,399.875 205.695 C 399.775 205.313,399.696 205.720,399.701 206.600 M0.101 207.800 C 0.105 208.680,0.187 208.993,0.283 208.495 C 0.379 207.998,0.375 207.278,0.275 206.895 C 0.175 206.513,0.096 206.920,0.101 207.800 M296.200 207.600 C 295.885 208.109,296.812 208.109,297.600 207.600 C 298.088 207.285,298.036 207.211,297.324 207.206 C 296.842 207.203,296.336 207.380,296.200 207.600 M108.600 208.023 C 109.480 208.205,110.830 208.343,111.600 208.330 L 113.000 208.305 111.800 208.000 C 111.140 207.832,109.790 207.694,108.800 207.693 L 107.000 207.692 108.600 208.023 M288.200 208.000 C 287.062 208.290,287.083 208.305,288.600 208.305 C 289.480 208.305,290.740 208.168,291.400 208.000 C 292.538 207.710,292.517 207.695,291.000 207.695 C 290.120 207.695,288.860 207.832,288.200 208.000 M129.400 208.416 C 138.473 208.707,192.664 208.913,192.367 208.655 C 192.275 208.575,176.090 208.425,156.400 208.322 C 136.710 208.218,124.560 208.261,129.400 208.416 M230.400 208.400 L 207.000 208.610 234.600 208.649 C 249.780 208.670,265.980 208.567,270.600 208.418 C 281.236 208.077,267.133 208.071,230.400 208.400 M390.467 209.050 C 390.430 209.518,390.298 210.507,390.173 211.250 C 389.988 212.353,390.029 212.471,390.397 211.893 C 390.645 211.504,390.777 210.514,390.691 209.693 C 390.605 208.872,390.504 208.582,390.467 209.050 M11.324 214.200 C 11.326 215.520,11.401 216.012,11.490 215.293 C 11.579 214.574,11.577 213.494,11.486 212.893 C 11.395 212.292,11.322 212.880,11.324 214.200 M390.049 215.200 C 390.016 215.530,389.889 216.250,389.767 216.800 C 389.575 217.664,389.607 217.703,389.999 217.088 C 390.248 216.697,390.375 215.977,390.281 215.488 C 390.186 215.000,390.082 214.870,390.049 215.200 M11.693 220.000 C 11.693 220.770,11.775 221.085,11.876 220.700 C 11.976 220.315,11.976 219.685,11.876 219.300 C 11.775 218.915,11.693 219.230,11.693 220.000 M389.654 219.267 C 389.625 219.634,389.484 220.264,389.341 220.667 C 389.141 221.233,389.195 221.296,389.575 220.946 C 389.846 220.697,389.987 220.067,389.888 219.546 C 389.790 219.026,389.684 218.900,389.654 219.267 M12.006 223.633 C 12.009 224.165,12.189 224.870,12.406 225.200 C 12.682 225.622,12.723 225.385,12.542 224.400 C 12.225 222.675,11.998 222.349,12.006 223.633 M388.629 226.629 C 388.481 227.215,388.451 227.784,388.561 227.894 C 388.671 228.004,388.881 227.615,389.029 227.029 C 389.176 226.442,389.206 225.873,389.096 225.763 C 388.986 225.653,388.776 226.042,388.629 226.629 M388.046 230.867 C 388.021 231.234,387.896 231.864,387.770 232.267 C 387.552 232.962,387.563 232.963,387.997 232.287 C 388.248 231.896,388.373 231.266,388.273 230.887 C 388.111 230.268,388.088 230.266,388.046 230.867 M387.211 235.468 C 386.959 236.751,386.663 238.070,386.553 238.400 C 386.426 238.781,386.486 238.854,386.720 238.600 C 387.128 238.155,388.095 233.562,387.835 233.302 C 387.744 233.211,387.464 234.186,387.211 235.468 M386.078 240.850 C 385.848 241.758,385.807 242.343,385.988 242.150 C 386.361 241.752,386.960 239.200,386.680 239.200 C 386.580 239.200,386.309 239.943,386.078 240.850 M5.636 247.118 C 5.582 247.892,6.922 253.037,7.061 252.588 C 7.127 252.375,6.841 250.940,6.426 249.400 C 6.012 247.860,5.656 246.833,5.636 247.118 M111.400 248.800 L 104.200 249.028 110.600 249.061 C 114.120 249.079,119.790 248.970,123.200 248.819 L 129.400 248.543 124.000 248.558 C 121.030 248.565,115.360 248.675,111.400 248.800 M169.500 248.700 C 183.415 248.758,206.185 248.758,220.100 248.700 C 234.015 248.642,222.630 248.594,194.800 248.594 C 166.970 248.594,155.585 248.642,169.500 248.700 M273.000 248.822 C 276.960 248.975,282.630 249.091,285.600 249.079 L 291.000 249.058 284.000 248.778 C 280.150 248.624,274.480 248.508,271.400 248.520 L 265.800 248.543 273.000 248.822 M293.600 249.200 C 294.150 249.376,295.230 249.517,296.000 249.513 L 297.400 249.505 296.200 249.200 C 294.439 248.752,292.201 248.752,293.600 249.200 M391.898 255.705 C 391.323 257.737,390.738 259.760,390.596 260.200 C 390.397 260.821,390.428 260.866,390.734 260.399 C 391.240 259.630,393.328 252.395,393.108 252.175 C 393.017 252.084,392.473 253.672,391.898 255.705 M8.067 256.820 C 8.301 257.492,8.567 257.967,8.657 257.876 C 8.856 257.678,8.101 255.600,7.831 255.600 C 7.727 255.600,7.833 256.149,8.067 256.820 M101.000 263.600 C 101.136 263.820,101.607 264.000,102.047 264.000 C 102.487 264.000,102.736 263.820,102.600 263.600 C 102.464 263.380,101.993 263.200,101.553 263.200 C 101.113 263.200,100.864 263.380,101.000 263.600 M294.200 263.600 C 294.064 263.820,294.313 264.000,294.753 264.000 C 295.193 264.000,295.664 263.820,295.800 263.600 C 295.936 263.380,295.687 263.200,295.247 263.200 C 294.807 263.200,294.336 263.380,294.200 263.600 M110.800 264.000 C 111.350 264.176,112.880 264.320,114.200 264.320 C 115.968 264.320,116.336 264.236,115.600 264.000 C 115.050 263.824,113.520 263.680,112.200 263.680 C 110.432 263.680,110.064 263.764,110.800 264.000 M284.800 264.000 C 284.026 264.500,287.035 264.500,288.200 264.000 C 288.809 263.738,288.570 263.651,287.200 263.634 C 286.210 263.622,285.130 263.787,284.800 264.000 M151.000 264.413 C 154.867 264.810,260.571 264.817,262.800 264.420 C 263.790 264.244,238.410 264.106,206.400 264.113 C 174.390 264.120,149.460 264.255,151.000 264.413 M31.800 287.200 C 32.357 288.300,32.903 289.200,33.013 289.200 C 33.123 289.200,32.757 288.300,32.200 287.200 C 31.643 286.100,31.097 285.200,30.987 285.200 C 30.877 285.200,31.243 286.100,31.800 287.200 M368.400 288.800 C 367.951 289.680,367.674 290.400,367.784 290.400 C 367.894 290.400,368.351 289.680,368.800 288.800 C 369.249 287.920,369.526 287.200,369.416 287.200 C 369.306 287.200,368.849 287.920,368.400 288.800 M370.092 305.029 C 369.597 305.783,369.272 306.400,369.369 306.400 C 369.647 306.400,371.304 303.971,371.139 303.806 C 371.057 303.724,370.586 304.274,370.092 305.029 M60.400 328.125 C 60.400 328.194,60.985 328.779,61.700 329.425 L 63.000 330.600 61.825 329.300 C 60.730 328.088,60.400 327.816,60.400 328.125 M352.575 329.300 L 351.400 330.600 352.700 329.425 C 353.415 328.779,354.000 328.194,354.000 328.125 C 354.000 327.816,353.670 328.088,352.575 329.300 M338.175 330.900 L 337.000 332.200 338.300 331.025 C 339.015 330.379,339.600 329.794,339.600 329.725 C 339.600 329.416,339.270 329.688,338.175 330.900 M350.175 332.100 L 349.000 333.400 350.300 332.225 C 351.015 331.579,351.600 330.994,351.600 330.925 C 351.600 330.616,351.270 330.888,350.175 332.100 M50.800 333.400 C 51.546 334.170,52.247 334.800,52.357 334.800 C 52.467 334.800,51.946 334.170,51.200 333.400 C 50.454 332.630,49.753 332.000,49.643 332.000 C 49.533 332.000,50.054 332.630,50.800 333.400 M346.581 336.100 L 345.000 337.800 346.700 336.219 C 347.635 335.349,348.400 334.584,348.400 334.519 C 348.400 334.216,348.052 334.519,346.581 336.100 M56.000 339.000 C 57.195 340.210,58.263 341.200,58.373 341.200 C 58.483 341.200,57.595 340.210,56.400 339.000 C 55.205 337.790,54.137 336.800,54.027 336.800 C 53.917 336.800,54.805 337.790,56.000 339.000 M330.778 338.300 L 329.400 339.800 330.900 338.422 C 331.725 337.663,332.400 336.988,332.400 336.922 C 332.400 336.616,332.062 336.904,330.778 338.300 M70.000 337.725 C 70.000 337.794,70.585 338.379,71.300 339.025 L 72.600 340.200 71.425 338.900 C 70.330 337.688,70.000 337.416,70.000 337.725 M60.600 343.600 C 61.459 344.480,62.252 345.200,62.362 345.200 C 62.472 345.200,61.859 344.480,61.000 343.600 C 60.141 342.720,59.348 342.000,59.238 342.000 C 59.128 342.000,59.741 342.720,60.600 343.600 M335.781 346.900 L 334.200 348.600 335.900 347.019 C 337.481 345.548,337.784 345.200,337.481 345.200 C 337.416 345.200,336.651 345.965,335.781 346.900 M66.600 349.200 C 67.459 350.080,68.252 350.800,68.362 350.800 C 68.472 350.800,67.859 350.080,67.000 349.200 C 66.141 348.320,65.348 347.600,65.238 347.600 C 65.128 347.600,65.741 348.320,66.600 349.200 M331.978 350.300 L 330.600 351.800 332.100 350.422 C 333.496 349.138,333.784 348.800,333.478 348.800 C 333.412 348.800,332.737 349.475,331.978 350.300 M68.800 350.925 C 68.800 350.994,69.385 351.579,70.100 352.225 L 71.400 353.400 70.225 352.100 C 69.130 350.888,68.800 350.616,68.800 350.925 M107.600 365.384 C 107.600 365.494,108.320 365.951,109.200 366.400 C 110.080 366.849,110.800 367.126,110.800 367.016 C 110.800 366.906,110.080 366.449,109.200 366.000 C 108.320 365.551,107.600 365.274,107.600 365.384 M112.400 368.020 C 112.730 368.244,114.170 368.983,115.600 369.661 C 117.030 370.339,118.515 371.059,118.900 371.261 C 119.285 371.463,119.600 371.535,119.600 371.421 C 119.600 371.306,117.967 370.400,115.970 369.407 C 112.509 367.684,111.101 367.137,112.400 368.020 M285.800 369.425 C 283.820 370.391,282.429 371.186,282.709 371.191 C 283.291 371.201,289.600 368.093,289.600 367.796 C 289.600 367.547,289.969 367.389,285.800 369.425 M303.611 371.020 C 302.847 371.559,302.397 371.999,302.611 371.998 C 302.825 371.997,303.540 371.553,304.200 371.012 C 305.741 369.749,305.405 369.753,303.611 371.020 M101.600 374.364 C 102.150 374.814,102.780 375.183,103.000 375.185 C 103.428 375.188,102.705 374.634,101.400 373.960 C 100.869 373.685,100.936 373.821,101.600 374.364 M162.400 386.000 C 162.950 386.176,163.850 386.317,164.400 386.313 C 165.298 386.306,165.278 386.274,164.200 386.000 C 162.508 385.569,161.056 385.569,162.400 386.000 M168.794 387.184 C 170.834 387.701,174.109 388.070,172.723 387.626 C 172.130 387.436,170.690 387.180,169.523 387.056 C 167.806 386.874,167.666 386.898,168.794 387.184 M231.000 387.200 C 229.639 387.444,229.579 387.492,230.600 387.520 C 231.260 387.539,232.520 387.405,233.400 387.223 C 235.493 386.790,233.402 386.770,231.000 387.200 M177.600 388.394 C 177.930 388.611,178.635 388.791,179.167 388.794 C 180.451 388.802,180.125 388.575,178.400 388.258 C 177.415 388.077,177.178 388.118,177.600 388.394 M220.600 388.400 L 219.000 388.686 220.400 388.737 C 221.170 388.765,222.070 388.613,222.400 388.400 C 223.055 387.977,222.962 387.977,220.600 388.400 M181.800 388.804 C 182.567 389.130,185.911 389.353,185.567 389.056 C 185.475 388.977,184.410 388.811,183.200 388.688 C 181.831 388.549,181.302 388.592,181.800 388.804 M214.200 388.800 L 211.800 389.066 214.000 389.105 C 215.210 389.126,216.560 388.989,217.000 388.800 C 217.892 388.417,217.664 388.417,214.200 388.800 M188.623 389.253 C 190.238 389.599,207.031 389.619,208.958 389.277 C 209.815 389.125,205.326 389.000,198.981 389.000 C 192.636 389.000,187.975 389.114,188.623 389.253 M135.409 389.535 C 135.624 389.730,136.426 390.100,137.191 390.356 C 137.956 390.612,138.406 390.661,138.191 390.465 C 137.976 390.270,137.174 389.900,136.409 389.644 C 135.644 389.388,135.194 389.339,135.409 389.535 M261.528 390.354 C 257.328 391.784,257.109 392.213,261.254 390.892 C 264.851 389.745,265.020 389.676,264.767 389.454 C 264.675 389.374,263.218 389.779,261.528 390.354 M143.400 392.157 C 144.060 392.459,145.230 392.811,146.000 392.940 C 147.210 393.142,147.162 393.095,145.644 392.596 C 143.004 391.727,142.055 391.542,143.400 392.157 M253.600 392.826 C 252.116 393.331,251.856 393.498,252.800 393.340 C 254.170 393.111,256.990 392.059,256.200 392.072 C 255.980 392.075,254.810 392.415,253.600 392.826 M148.200 393.600 C 148.640 393.789,149.270 393.944,149.600 393.944 C 149.978 393.944,149.904 393.817,149.400 393.600 C 148.960 393.411,148.330 393.256,148.000 393.256 C 147.622 393.256,147.696 393.383,148.200 393.600 M151.200 394.400 C 152.568 394.838,153.619 394.838,152.600 394.400 C 152.160 394.211,151.440 394.062,151.000 394.068 C 150.357 394.077,150.396 394.143,151.200 394.400 " stroke="none" fill="#575757" fill-rule="evenodd"></path><path id="path3" d="M202.500 10.276 C 202.885 10.376,203.515 10.376,203.900 10.276 C 204.285 10.175,203.970 10.093,203.200 10.093 C 202.430 10.093,202.115 10.175,202.500 10.276 M131.600 12.234 C 130.290 12.770,130.277 12.792,131.400 12.575 C 132.060 12.448,132.771 12.176,132.980 11.972 C 133.459 11.503,133.321 11.529,131.600 12.234 M124.576 25.822 C 123.812 26.434,123.813 26.438,124.600 26.076 C 125.040 25.874,125.670 25.608,126.000 25.486 C 126.518 25.293,126.515 25.259,125.976 25.232 C 125.634 25.214,125.004 25.480,124.576 25.822 M120.400 27.600 C 119.630 28.022,119.144 28.374,119.320 28.383 C 119.744 28.405,122.000 27.232,122.000 26.990 C 122.000 26.728,121.977 26.737,120.400 27.600 M63.800 53.860 C 62.595 54.936,62.505 55.085,63.436 54.463 C 64.541 53.724,65.932 52.376,65.549 52.415 C 65.467 52.423,64.680 53.073,63.800 53.860 M72.801 59.398 C 72.286 59.948,71.952 60.485,72.060 60.594 C 72.168 60.702,72.654 60.252,73.140 59.595 C 74.217 58.139,74.066 58.052,72.801 59.398 M66.386 65.500 L 64.200 67.800 66.500 65.614 C 68.637 63.582,68.983 63.200,68.686 63.200 C 68.624 63.200,67.589 64.235,66.386 65.500 M60.368 71.856 C 59.445 72.860,59.441 72.887,60.278 72.452 C 61.206 71.969,61.795 71.262,61.508 70.975 C 61.414 70.880,60.901 71.277,60.368 71.856 M370.800 115.749 C 370.800 116.181,372.389 119.200,372.616 119.200 C 372.726 119.200,372.430 118.435,371.959 117.500 C 371.032 115.661,370.800 115.311,370.800 115.749 M25.188 127.222 C 24.946 127.674,24.807 128.222,24.880 128.439 C 24.952 128.657,25.218 128.287,25.471 127.617 C 25.997 126.225,25.839 126.005,25.188 127.222 M12.777 129.461 C 12.555 130.044,12.432 130.697,12.504 130.912 C 12.576 131.127,12.835 130.650,13.080 129.851 C 13.594 128.174,13.374 127.890,12.777 129.461 M155.519 140.698 C 157.344 140.772,160.224 140.772,161.919 140.697 C 163.614 140.622,162.120 140.561,158.600 140.562 C 155.080 140.562,153.694 140.624,155.519 140.698 M264.917 140.697 C 266.411 140.774,268.751 140.774,270.117 140.696 C 271.482 140.618,270.260 140.555,267.400 140.555 C 264.540 140.556,263.422 140.620,264.917 140.697 M105.505 141.083 C 106.002 141.179,106.722 141.175,107.105 141.075 C 107.487 140.975,107.080 140.896,106.200 140.901 C 105.320 140.905,105.007 140.987,105.505 141.083 M127.100 156.297 C 128.695 156.373,131.305 156.373,132.900 156.297 C 134.495 156.221,133.190 156.159,130.000 156.159 C 126.810 156.159,125.505 156.221,127.100 156.297 M267.318 156.298 C 269.033 156.373,271.733 156.372,273.318 156.297 C 274.903 156.221,273.500 156.159,270.200 156.160 C 266.900 156.161,265.603 156.222,267.318 156.298 M11.309 193.200 C 11.309 194.190,11.387 194.595,11.482 194.100 C 11.578 193.605,11.578 192.795,11.482 192.300 C 11.387 191.805,11.309 192.210,11.309 193.200 M112.291 192.689 C 113.001 192.777,114.261 192.779,115.091 192.692 C 115.921 192.605,115.340 192.533,113.800 192.531 C 112.260 192.529,111.581 192.600,112.291 192.689 M146.100 192.698 C 148.025 192.771,151.175 192.771,153.100 192.698 C 155.025 192.625,153.450 192.565,149.600 192.565 C 145.750 192.565,144.175 192.625,146.100 192.698 M216.300 192.699 C 219.215 192.767,223.985 192.767,226.900 192.699 C 229.815 192.631,227.430 192.575,221.600 192.575 C 215.770 192.575,213.385 192.631,216.300 192.699 M278.905 192.687 C 279.514 192.779,280.414 192.777,280.905 192.682 C 281.397 192.587,280.900 192.511,279.800 192.514 C 278.700 192.517,278.297 192.595,278.905 192.687 M106.505 193.087 C 107.114 193.179,108.014 193.177,108.505 193.082 C 108.997 192.987,108.500 192.911,107.400 192.914 C 106.300 192.917,105.897 192.995,106.505 193.087 M284.691 193.089 C 285.401 193.177,286.661 193.179,287.491 193.092 C 288.321 193.005,287.740 192.933,286.200 192.931 C 284.660 192.929,283.981 193.000,284.691 193.089 M11.314 205.800 C 11.317 206.900,11.395 207.303,11.487 206.695 C 11.579 206.086,11.577 205.186,11.482 204.695 C 11.387 204.203,11.311 204.700,11.314 205.800 M126.900 208.691 C 127.725 208.778,129.075 208.778,129.900 208.691 C 130.725 208.605,130.050 208.534,128.400 208.534 C 126.750 208.534,126.075 208.605,126.900 208.691 M270.300 208.689 C 271.015 208.778,272.185 208.778,272.900 208.689 C 273.615 208.601,273.030 208.528,271.600 208.528 C 270.170 208.528,269.585 208.601,270.300 208.689 M111.491 248.689 C 112.201 248.777,113.461 248.779,114.291 248.692 C 115.121 248.605,114.540 248.533,113.000 248.531 C 111.460 248.529,110.781 248.600,111.491 248.689 M281.305 248.687 C 281.914 248.779,282.814 248.777,283.305 248.682 C 283.797 248.587,283.300 248.511,282.200 248.514 C 281.100 248.517,280.697 248.595,281.305 248.687 M303.800 252.000 C 304.198 252.440,304.592 252.800,304.676 252.800 C 304.760 252.800,304.635 252.440,304.400 252.000 C 304.165 251.560,303.770 251.200,303.524 251.200 C 303.278 251.200,303.402 251.560,303.800 252.000 M106.800 264.000 C 107.350 264.176,108.340 264.317,109.000 264.313 L 110.200 264.305 109.000 264.000 C 108.340 263.832,107.350 263.691,106.800 263.687 L 105.800 263.680 106.800 264.000 M289.000 264.000 L 288.200 264.344 289.000 264.332 C 289.440 264.326,290.250 264.176,290.800 264.000 L 291.800 263.680 290.800 263.668 C 290.250 263.662,289.440 263.811,289.000 264.000 M127.633 264.148 C 127.725 264.229,132.570 264.385,138.400 264.496 C 145.344 264.627,147.207 264.592,143.800 264.394 C 138.222 264.069,127.358 263.904,127.633 264.148 M267.200 264.411 C 265.770 264.559,267.390 264.595,270.800 264.490 C 274.210 264.386,277.075 264.233,277.167 264.150 C 277.425 263.918,270.111 264.109,267.200 264.411 M370.200 284.800 C 369.859 285.460,369.669 286.000,369.779 286.000 C 369.889 286.000,370.259 285.460,370.600 284.800 C 370.941 284.140,371.131 283.600,371.021 283.600 C 370.911 283.600,370.541 284.140,370.200 284.800 M381.218 284.766 C 380.973 285.225,380.939 285.600,381.143 285.600 C 381.554 285.600,382.122 284.388,381.842 284.108 C 381.744 284.011,381.464 284.307,381.218 284.766 M59.994 327.308 C 60.541 327.878,61.054 328.279,61.134 328.199 C 61.396 327.937,60.775 327.214,59.878 326.737 C 59.068 326.306,59.077 326.350,59.994 327.308 M337.615 330.900 L 336.679 332.200 337.939 331.025 C 339.275 329.780,339.394 329.600,338.875 329.600 C 338.697 329.600,338.129 330.185,337.615 330.900 M66.400 334.200 C 67.595 335.410,68.663 336.400,68.773 336.400 C 68.883 336.400,67.995 335.410,66.800 334.200 C 65.605 332.990,64.537 332.000,64.427 332.000 C 64.317 332.000,65.205 332.990,66.400 334.200 M331.000 337.366 C 330.340 337.895,329.903 338.433,330.029 338.560 C 330.155 338.687,330.774 338.254,331.404 337.596 C 332.787 336.153,332.627 336.062,331.000 337.366 M72.000 339.077 C 72.000 339.296,72.360 339.802,72.800 340.200 C 73.240 340.598,73.600 340.834,73.600 340.723 C 73.600 340.613,73.240 340.107,72.800 339.600 C 72.360 339.093,72.000 338.857,72.000 339.077 M340.370 342.688 C 339.836 343.286,339.687 343.558,340.037 343.291 C 340.387 343.025,340.792 342.895,340.937 343.003 C 341.082 343.112,341.112 343.082,341.003 342.937 C 340.895 342.792,341.007 342.432,341.252 342.137 C 342.087 341.131,341.343 341.596,340.370 342.688 M205.105 389.083 C 205.602 389.179,206.322 389.175,206.705 389.075 C 207.087 388.975,206.680 388.896,205.800 388.901 C 204.920 388.905,204.607 388.987,205.105 389.083 " stroke="none" fill="#848484" fill-rule="evenodd"></path><path id="path4" d="M168.120 140.698 C 170.055 140.772,173.115 140.771,174.920 140.697 C 176.724 140.623,175.140 140.563,171.400 140.564 C 167.660 140.564,166.184 140.625,168.120 140.698 M254.500 140.697 C 255.985 140.774,258.415 140.774,259.900 140.697 C 261.385 140.620,260.170 140.557,257.200 140.557 C 254.230 140.557,253.015 140.620,254.500 140.697 M137.111 156.293 C 138.051 156.378,139.491 156.377,140.311 156.291 C 141.130 156.205,140.360 156.136,138.600 156.137 C 136.840 156.139,136.170 156.209,137.111 156.293 M259.911 156.293 C 260.851 156.378,262.291 156.377,263.111 156.291 C 263.930 156.205,263.160 156.136,261.400 156.137 C 259.640 156.139,258.970 156.209,259.911 156.293 M116.900 192.676 C 117.285 192.776,117.915 192.776,118.300 192.676 C 118.685 192.575,118.370 192.493,117.600 192.493 C 116.830 192.493,116.515 192.575,116.900 192.676 M170.129 192.700 C 177.790 192.761,190.210 192.761,197.729 192.700 C 205.248 192.639,198.980 192.589,183.800 192.589 C 168.620 192.589,162.468 192.639,170.129 192.700 M109.905 193.083 C 110.402 193.179,111.122 193.175,111.505 193.075 C 111.887 192.975,111.480 192.896,110.600 192.901 C 109.720 192.905,109.407 192.987,109.905 193.083 M281.700 193.076 C 282.085 193.176,282.715 193.176,283.100 193.076 C 283.485 192.975,283.170 192.893,282.400 192.893 C 281.630 192.893,281.315 192.975,281.700 193.076 M118.300 208.282 C 118.795 208.378,119.605 208.378,120.100 208.282 C 120.595 208.187,120.190 208.109,119.200 208.109 C 118.210 208.109,117.805 208.187,118.300 208.282 M279.705 208.287 C 280.314 208.379,281.214 208.377,281.705 208.282 C 282.197 208.187,281.700 208.111,280.600 208.114 C 279.500 208.117,279.097 208.195,279.705 208.287 M132.300 208.689 C 133.015 208.778,134.185 208.778,134.900 208.689 C 135.615 208.601,135.030 208.528,133.600 208.528 C 132.170 208.528,131.585 208.601,132.300 208.689 M265.091 208.689 C 265.801 208.777,267.061 208.779,267.891 208.692 C 268.721 208.605,268.140 208.533,266.600 208.531 C 265.060 208.529,264.381 208.600,265.091 208.689 M116.305 248.683 C 116.802 248.779,117.522 248.775,117.905 248.675 C 118.287 248.575,117.880 248.496,117.000 248.501 C 116.120 248.505,115.807 248.587,116.305 248.683 M109.000 264.000 C 110.692 264.431,112.144 264.431,110.800 264.000 C 110.250 263.824,109.350 263.683,108.800 263.687 C 107.902 263.694,107.922 263.726,109.000 264.000 M142.115 264.296 C 143.388 264.376,145.368 264.375,146.515 264.294 C 147.662 264.214,146.620 264.149,144.200 264.150 C 141.780 264.151,140.842 264.216,142.115 264.296 M263.000 264.407 C 262.120 264.569,263.200 264.609,265.400 264.496 C 267.600 264.382,269.475 264.225,269.567 264.145 C 269.856 263.893,264.671 264.100,263.000 264.407 M149.907 264.690 C 150.626 264.779,151.706 264.777,152.307 264.686 C 152.908 264.595,152.320 264.522,151.000 264.524 C 149.680 264.526,149.188 264.601,149.907 264.690 M334.587 334.500 L 332.200 337.000 334.700 334.613 C 336.075 333.299,337.200 332.174,337.200 332.113 C 337.200 331.817,336.805 332.178,334.587 334.500 " stroke="none" fill="#7c7c7c" fill-rule="evenodd"></path></g></svg>