<svg id="svg" version="1.1" xmlns="http://www.w3.org/2000/svg" xmlns:xlink="http://www.w3.org/1999/xlink" width="400" height="400" viewBox="0, 0, 400,400"><g id="svgg"><path id="path0" d="M179.900 0.274 C 177.975 0.360,176.400 0.579,176.400 0.759 C 176.400 0.939,174.375 1.213,171.900 1.368 C 169.425 1.524,167.340 1.819,167.267 2.025 C 167.193 2.231,166.248 2.400,165.167 2.400 C 164.085 2.400,163.200 2.559,163.200 2.753 C 163.200 2.947,161.670 3.233,159.800 3.389 C 157.930 3.544,156.400 3.836,156.400 4.036 C 156.400 4.236,155.770 4.400,155.000 4.400 C 154.230 4.400,153.600 4.566,153.600 4.768 C 153.600 4.971,152.430 5.262,151.000 5.415 C 149.570 5.568,148.400 5.852,148.400 6.047 C 148.400 6.241,147.770 6.400,147.000 6.400 C 146.230 6.400,145.600 6.559,145.600 6.754 C 145.600 6.949,144.610 7.232,143.400 7.383 C 142.190 7.534,141.200 7.825,141.200 8.029 C 141.200 8.233,140.750 8.400,140.200 8.400 C 139.650 8.400,139.200 8.563,139.200 8.762 C 139.200 8.962,138.300 9.249,137.200 9.400 C 136.100 9.551,135.200 9.838,135.200 10.038 C 135.200 10.237,134.750 10.400,134.200 10.400 C 133.650 10.400,133.200 10.560,133.200 10.755 C 133.200 10.950,132.394 11.230,131.409 11.378 C 130.424 11.525,129.514 11.816,129.386 12.023 C 129.258 12.230,128.803 12.400,128.376 12.400 C 127.949 12.400,127.600 12.557,127.600 12.749 C 127.600 12.941,126.880 13.213,126.000 13.354 C 125.120 13.494,124.400 13.787,124.400 14.005 C 124.400 14.222,123.950 14.400,123.400 14.400 C 122.850 14.400,122.400 14.572,122.400 14.782 C 122.400 14.992,121.770 15.282,121.000 15.426 C 120.230 15.571,119.600 15.849,119.600 16.045 C 119.600 16.240,119.251 16.400,118.824 16.400 C 118.397 16.400,117.945 16.566,117.819 16.769 C 117.694 16.972,117.053 17.257,116.395 17.401 C 115.738 17.545,115.200 17.829,115.200 18.032 C 115.200 18.234,114.840 18.400,114.400 18.400 C 113.960 18.400,113.600 18.566,113.600 18.768 C 113.600 18.971,113.060 19.255,112.400 19.400 C 111.740 19.545,111.200 19.829,111.200 20.032 C 111.200 20.234,110.840 20.400,110.400 20.400 C 109.960 20.400,109.600 20.566,109.600 20.768 C 109.600 20.971,109.060 21.255,108.400 21.400 C 107.740 21.545,107.200 21.829,107.200 22.032 C 107.200 22.234,106.840 22.400,106.400 22.400 C 105.960 22.400,105.600 22.566,105.600 22.768 C 105.600 22.971,105.060 23.255,104.400 23.400 C 103.740 23.545,103.200 23.829,103.200 24.032 C 103.200 24.234,102.952 24.400,102.649 24.400 C 102.346 24.400,101.874 24.670,101.600 25.000 C 101.326 25.330,100.764 25.600,100.351 25.600 C 99.938 25.600,99.600 25.780,99.600 26.000 C 99.600 26.220,99.330 26.400,99.000 26.400 C 98.670 26.400,98.400 26.577,98.400 26.792 C 98.400 27.008,97.950 27.298,97.400 27.436 C 96.850 27.574,96.400 27.847,96.400 28.043 C 96.400 28.240,96.130 28.400,95.800 28.400 C 95.470 28.400,95.200 28.568,95.200 28.773 C 95.200 28.978,94.795 29.272,94.300 29.427 C 93.805 29.581,93.310 29.819,93.200 29.954 C 92.908 30.313,91.539 31.142,90.490 31.595 C 89.989 31.811,89.475 32.261,89.347 32.594 C 89.219 32.927,88.768 33.200,88.345 33.200 C 87.921 33.200,87.471 33.470,87.345 33.800 C 87.218 34.130,86.864 34.400,86.557 34.400 C 86.251 34.400,85.671 34.715,85.270 35.100 C 84.067 36.253,82.249 37.600,81.895 37.600 C 81.713 37.600,81.114 38.050,80.564 38.600 C 80.014 39.150,79.345 39.600,79.077 39.600 C 78.809 39.600,78.252 40.050,77.839 40.600 C 77.426 41.150,76.876 41.600,76.616 41.600 C 76.357 41.600,75.764 42.005,75.300 42.500 C 74.207 43.664,73.303 44.400,72.964 44.400 C 72.816 44.400,72.132 44.997,71.444 45.726 C 70.756 46.455,69.835 47.251,69.397 47.495 C 67.154 48.741,48.741 67.154,47.495 69.397 C 47.251 69.835,46.455 70.756,45.726 71.444 C 44.997 72.132,44.400 72.816,44.400 72.964 C 44.400 73.303,43.664 74.207,42.500 75.300 C 42.005 75.764,41.600 76.357,41.600 76.616 C 41.600 76.876,41.150 77.426,40.600 77.839 C 40.050 78.252,39.600 78.809,39.600 79.077 C 39.600 79.345,39.150 80.014,38.600 80.564 C 38.050 81.114,37.600 81.713,37.600 81.895 C 37.600 82.249,36.253 84.067,35.100 85.270 C 34.715 85.671,34.400 86.251,34.400 86.557 C 34.400 86.864,34.130 87.218,33.800 87.345 C 33.470 87.471,33.200 87.921,33.200 88.345 C 33.200 88.768,32.927 89.219,32.594 89.347 C 32.261 89.475,31.815 90.034,31.604 90.590 C 31.393 91.145,31.035 91.600,30.810 91.600 C 30.584 91.600,30.400 91.960,30.400 92.400 C 30.400 92.840,30.240 93.200,30.043 93.200 C 29.847 93.200,29.574 93.650,29.436 94.200 C 29.298 94.750,29.008 95.200,28.792 95.200 C 28.577 95.200,28.400 95.470,28.400 95.800 C 28.400 96.130,28.223 96.400,28.008 96.400 C 27.792 96.400,27.502 96.850,27.364 97.400 C 27.226 97.950,26.953 98.400,26.757 98.400 C 26.560 98.400,26.400 98.670,26.400 99.000 C 26.400 99.330,26.220 99.600,26.000 99.600 C 25.780 99.600,25.600 99.938,25.600 100.351 C 25.600 100.764,25.330 101.326,25.000 101.600 C 24.670 101.874,24.400 102.346,24.400 102.649 C 24.400 102.952,24.234 103.200,24.032 103.200 C 23.829 103.200,23.545 103.740,23.400 104.400 C 23.255 105.060,22.971 105.600,22.768 105.600 C 22.566 105.600,22.400 105.960,22.400 106.400 C 22.400 106.840,22.234 107.200,22.032 107.200 C 21.829 107.200,21.545 107.740,21.400 108.400 C 21.255 109.060,20.971 109.600,20.768 109.600 C 20.566 109.600,20.400 109.960,20.400 110.400 C 20.400 110.840,20.234 111.200,20.032 111.200 C 19.829 111.200,19.545 111.740,19.400 112.400 C 19.255 113.060,18.971 113.600,18.768 113.600 C 18.566 113.600,18.400 113.960,18.400 114.400 C 18.400 114.840,18.234 115.200,18.032 115.200 C 17.829 115.200,17.545 115.738,17.401 116.395 C 17.257 117.053,16.972 117.694,16.769 117.819 C 16.566 117.945,16.400 118.397,16.400 118.824 C 16.400 119.251,16.240 119.600,16.045 119.600 C 15.849 119.600,15.571 120.230,15.426 121.000 C 15.282 121.770,14.992 122.400,14.782 122.400 C 14.572 122.400,14.400 122.850,14.400 123.400 C 14.400 123.950,14.222 124.400,14.005 124.400 C 13.787 124.400,13.494 125.120,13.354 126.000 C 13.213 126.880,12.941 127.600,12.749 127.600 C 12.557 127.600,12.400 127.949,12.400 128.376 C 12.400 128.803,12.230 129.258,12.023 129.386 C 11.816 129.514,11.525 130.424,11.378 131.409 C 11.230 132.394,10.950 133.200,10.755 133.200 C 10.560 133.200,10.400 133.650,10.400 134.200 C 10.400 134.750,10.237 135.200,10.038 135.200 C 9.838 135.200,9.551 136.100,9.400 137.200 C 9.249 138.300,8.962 139.200,8.762 139.200 C 8.563 139.200,8.400 139.650,8.400 140.200 C 8.400 140.750,8.233 141.200,8.029 141.200 C 7.825 141.200,7.534 142.190,7.383 143.400 C 7.232 144.610,6.949 145.600,6.754 145.600 C 6.559 145.600,6.400 146.230,6.400 147.000 C 6.400 147.770,6.234 148.400,6.032 148.400 C 5.829 148.400,5.538 149.570,5.385 151.000 C 5.232 152.430,4.948 153.600,4.753 153.600 C 4.559 153.600,4.400 154.230,4.400 155.000 C 4.400 155.770,4.236 156.400,4.036 156.400 C 3.836 156.400,3.544 157.930,3.389 159.800 C 3.233 161.670,2.947 163.200,2.753 163.200 C 2.559 163.200,2.400 164.085,2.400 165.167 C 2.400 166.248,2.234 167.193,2.030 167.267 C 1.827 167.340,1.532 169.380,1.374 171.800 C 1.213 174.270,0.893 176.325,0.644 176.485 C 0.014 176.890,0.014 223.110,0.644 223.515 C 0.893 223.675,1.213 225.730,1.374 228.200 C 1.532 230.620,1.827 232.660,2.030 232.733 C 2.234 232.807,2.400 233.752,2.400 234.833 C 2.400 235.915,2.559 236.800,2.753 236.800 C 2.947 236.800,3.233 238.330,3.389 240.200 C 3.544 242.070,3.836 243.600,4.036 243.600 C 4.236 243.600,4.400 244.230,4.400 245.000 C 4.400 245.770,4.559 246.400,4.753 246.400 C 4.948 246.400,5.232 247.570,5.385 249.000 C 5.538 250.430,5.829 251.600,6.032 251.600 C 6.234 251.600,6.400 252.230,6.400 253.000 C 6.400 253.770,6.559 254.400,6.754 254.400 C 6.949 254.400,7.232 255.390,7.383 256.600 C 7.534 257.810,7.825 258.800,8.029 258.800 C 8.233 258.800,8.400 259.250,8.400 259.800 C 8.400 260.350,8.563 260.800,8.762 260.800 C 8.962 260.800,9.249 261.700,9.400 262.800 C 9.551 263.900,9.838 264.800,10.038 264.800 C 10.237 264.800,10.400 265.250,10.400 265.800 C 10.400 266.350,10.560 266.800,10.755 266.800 C 10.950 266.800,11.230 267.606,11.378 268.591 C 11.525 269.576,11.816 270.486,12.023 270.614 C 12.230 270.742,12.400 271.197,12.400 271.624 C 12.400 272.051,12.557 272.400,12.749 272.400 C 12.941 272.400,13.213 273.120,13.354 274.000 C 13.494 274.880,13.787 275.600,14.005 275.600 C 14.222 275.600,14.400 276.050,14.400 276.600 C 14.400 277.150,14.572 277.600,14.782 277.600 C 14.992 277.600,15.282 278.230,15.426 279.000 C 15.571 279.770,15.849 280.400,16.045 280.400 C 16.240 280.400,16.400 280.749,16.400 281.176 C 16.400 281.603,16.566 282.055,16.769 282.181 C 16.972 282.306,17.257 282.947,17.401 283.605 C 17.545 284.262,17.829 284.800,18.032 284.800 C 18.234 284.800,18.400 285.160,18.400 285.600 C 18.400 286.040,18.566 286.400,18.768 286.400 C 18.971 286.400,19.255 286.940,19.400 287.600 C 19.545 288.260,19.829 288.800,20.032 288.800 C 20.234 288.800,20.400 289.160,20.400 289.600 C 20.400 290.040,20.566 290.400,20.768 290.400 C 20.971 290.400,21.255 290.940,21.400 291.600 C 21.545 292.260,21.829 292.800,22.032 292.800 C 22.234 292.800,22.400 293.160,22.400 293.600 C 22.400 294.040,22.566 294.400,22.768 294.400 C 22.971 294.400,23.255 294.940,23.400 295.600 C 23.545 296.260,23.829 296.800,24.032 296.800 C 24.234 296.800,24.400 297.048,24.400 297.351 C 24.400 297.654,24.670 298.126,25.000 298.400 C 25.330 298.674,25.600 299.236,25.600 299.649 C 25.600 300.062,25.780 300.400,26.000 300.400 C 26.220 300.400,26.400 300.670,26.400 301.000 C 26.400 301.330,26.577 301.600,26.792 301.600 C 27.008 301.600,27.298 302.050,27.436 302.600 C 27.574 303.150,27.847 303.600,28.043 303.600 C 28.240 303.600,28.400 303.870,28.400 304.200 C 28.400 304.530,28.568 304.800,28.773 304.800 C 28.978 304.800,29.272 305.205,29.427 305.700 C 29.581 306.195,29.819 306.690,29.954 306.800 C 30.313 307.092,31.142 308.461,31.595 309.510 C 31.811 310.011,32.261 310.525,32.594 310.653 C 32.927 310.781,33.200 311.232,33.200 311.655 C 33.200 312.079,33.470 312.529,33.800 312.655 C 34.130 312.782,34.400 313.136,34.400 313.443 C 34.400 313.749,34.715 314.329,35.100 314.730 C 36.253 315.933,37.600 317.751,37.600 318.105 C 37.600 318.287,38.050 318.886,38.600 319.436 C 39.150 319.986,39.600 320.655,39.600 320.923 C 39.600 321.191,40.050 321.748,40.600 322.161 C 41.150 322.574,41.600 323.124,41.600 323.384 C 41.600 323.643,42.005 324.236,42.500 324.700 C 43.664 325.793,44.400 326.697,44.400 327.036 C 44.400 327.184,44.991 327.867,45.714 328.553 C 46.436 329.239,47.330 330.250,47.701 330.800 C 48.636 332.187,54.286 338.231,58.600 342.461 C 65.082 348.817,68.049 351.600,68.342 351.600 C 68.500 351.600,69.445 352.365,70.441 353.300 C 71.437 354.235,72.761 355.360,73.384 355.800 C 74.006 356.240,74.882 357.005,75.330 357.500 C 75.778 357.995,76.357 358.400,76.616 358.400 C 76.876 358.400,77.426 358.850,77.839 359.400 C 78.252 359.950,78.809 360.400,79.077 360.400 C 79.345 360.400,80.014 360.850,80.564 361.400 C 81.114 361.950,81.739 362.400,81.953 362.400 C 82.168 362.400,82.581 362.625,82.871 362.900 C 83.933 363.904,86.357 365.600,86.731 365.600 C 86.942 365.600,87.218 365.870,87.345 366.200 C 87.471 366.530,87.921 366.800,88.345 366.800 C 88.768 366.800,89.219 367.073,89.347 367.406 C 89.475 367.739,89.989 368.189,90.490 368.405 C 91.539 368.858,92.908 369.687,93.200 370.046 C 93.310 370.181,93.805 370.419,94.300 370.573 C 94.795 370.728,95.200 371.022,95.200 371.227 C 95.200 371.432,95.470 371.600,95.800 371.600 C 96.130 371.600,96.400 371.760,96.400 371.957 C 96.400 372.153,96.850 372.426,97.400 372.564 C 97.950 372.702,98.400 372.992,98.400 373.208 C 98.400 373.423,98.670 373.600,99.000 373.600 C 99.330 373.600,99.600 373.780,99.600 374.000 C 99.600 374.220,99.947 374.400,100.371 374.400 C 100.796 374.400,101.413 374.670,101.743 375.000 C 102.073 375.330,102.536 375.600,102.771 375.600 C 103.007 375.600,103.200 375.766,103.200 375.968 C 103.200 376.171,103.740 376.455,104.400 376.600 C 105.060 376.745,105.600 377.029,105.600 377.232 C 105.600 377.434,105.960 377.600,106.400 377.600 C 106.840 377.600,107.200 377.766,107.200 377.968 C 107.200 378.171,107.740 378.455,108.400 378.600 C 109.060 378.745,109.600 379.029,109.600 379.232 C 109.600 379.434,109.960 379.600,110.400 379.600 C 110.840 379.600,111.200 379.766,111.200 379.968 C 111.200 380.171,111.740 380.455,112.400 380.600 C 113.060 380.745,113.600 381.029,113.600 381.232 C 113.600 381.434,113.960 381.600,114.400 381.600 C 114.840 381.600,115.200 381.766,115.200 381.968 C 115.200 382.171,115.738 382.455,116.395 382.599 C 117.053 382.743,117.694 383.028,117.819 383.231 C 117.945 383.434,118.397 383.600,118.824 383.600 C 119.251 383.600,119.600 383.760,119.600 383.955 C 119.600 384.151,120.230 384.429,121.000 384.574 C 121.770 384.718,122.400 385.008,122.400 385.218 C 122.400 385.428,122.850 385.600,123.400 385.600 C 123.950 385.600,124.400 385.778,124.400 385.995 C 124.400 386.213,125.120 386.506,126.000 386.646 C 126.880 386.787,127.600 387.059,127.600 387.251 C 127.600 387.443,127.949 387.600,128.376 387.600 C 128.803 387.600,129.258 387.770,129.386 387.977 C 129.514 388.184,130.424 388.475,131.409 388.622 C 132.394 388.770,133.200 389.050,133.200 389.245 C 133.200 389.440,133.650 389.600,134.200 389.600 C 134.750 389.600,135.200 389.763,135.200 389.962 C 135.200 390.162,136.100 390.449,137.200 390.600 C 138.300 390.751,139.200 391.038,139.200 391.238 C 139.200 391.437,139.650 391.600,140.200 391.600 C 140.750 391.600,141.200 391.759,141.200 391.954 C 141.200 392.149,142.190 392.432,143.400 392.583 C 144.610 392.734,145.600 393.025,145.600 393.229 C 145.600 393.433,146.230 393.600,147.000 393.600 C 147.770 393.600,148.400 393.759,148.400 393.953 C 148.400 394.148,149.570 394.432,151.000 394.585 C 152.430 394.738,153.600 395.029,153.600 395.232 C 153.600 395.434,154.230 395.600,155.000 395.600 C 155.770 395.600,156.400 395.764,156.400 395.964 C 156.400 396.164,157.930 396.456,159.800 396.611 C 161.670 396.767,163.200 397.053,163.200 397.247 C 163.200 397.441,164.085 397.600,165.167 397.600 C 166.248 397.600,167.193 397.766,167.267 397.970 C 167.340 398.173,169.380 398.468,171.800 398.626 C 174.270 398.787,176.325 399.107,176.485 399.356 C 176.689 399.673,183.426 399.800,200.000 399.800 C 216.574 399.800,223.311 399.673,223.515 399.356 C 223.675 399.107,225.730 398.787,228.200 398.626 C 230.620 398.468,232.660 398.173,232.733 397.970 C 232.807 397.766,233.752 397.600,234.833 397.600 C 235.915 397.600,236.800 397.441,236.800 397.247 C 236.800 397.053,238.330 396.767,240.200 396.611 C 242.070 396.456,243.600 396.164,243.600 395.964 C 243.600 395.764,244.230 395.600,245.000 395.600 C 245.770 395.600,246.400 395.441,246.400 395.247 C 246.400 395.052,247.570 394.768,249.000 394.615 C 250.430 394.462,251.600 394.171,251.600 393.968 C 251.600 393.766,252.230 393.600,253.000 393.600 C 253.770 393.600,254.400 393.433,254.400 393.229 C 254.400 393.025,255.390 392.734,256.600 392.583 C 257.810 392.432,258.800 392.149,258.800 391.954 C 258.800 391.759,259.250 391.600,259.800 391.600 C 260.350 391.600,260.800 391.437,260.800 391.238 C 260.800 391.038,261.700 390.751,262.800 390.600 C 263.900 390.449,264.800 390.162,264.800 389.962 C 264.800 389.763,265.250 389.600,265.800 389.600 C 266.350 389.600,266.800 389.440,266.800 389.245 C 266.800 389.050,267.606 388.770,268.591 388.622 C 269.576 388.475,270.486 388.184,270.614 387.977 C 270.742 387.770,271.197 387.600,271.624 387.600 C 272.051 387.600,272.400 387.443,272.400 387.251 C 272.400 387.059,273.120 386.787,274.000 386.646 C 274.880 386.506,275.600 386.213,275.600 385.995 C 275.600 385.778,276.050 385.600,276.600 385.600 C 277.150 385.600,277.600 385.428,277.600 385.218 C 277.600 385.008,278.230 384.718,279.000 384.574 C 279.770 384.429,280.400 384.151,280.400 383.955 C 280.400 383.760,280.749 383.600,281.176 383.600 C 281.603 383.600,282.055 383.434,282.181 383.231 C 282.306 383.028,282.947 382.743,283.605 382.599 C 284.262 382.455,284.800 382.171,284.800 381.968 C 284.800 381.766,285.160 381.600,285.600 381.600 C 286.040 381.600,286.400 381.434,286.400 381.232 C 286.400 381.029,286.940 380.745,287.600 380.600 C 288.260 380.455,288.800 380.171,288.800 379.968 C 288.800 379.766,289.160 379.600,289.600 379.600 C 290.040 379.600,290.400 379.434,290.400 379.232 C 290.400 379.029,290.940 378.745,291.600 378.600 C 292.260 378.455,292.800 378.171,292.800 377.968 C 292.800 377.766,293.160 377.600,293.600 377.600 C 294.040 377.600,294.400 377.434,294.400 377.232 C 294.400 377.029,294.940 376.745,295.600 376.600 C 296.260 376.455,296.800 376.171,296.800 375.968 C 296.800 375.766,296.993 375.600,297.229 375.600 C 297.464 375.600,297.927 375.330,298.257 375.000 C 298.587 374.670,299.204 374.400,299.629 374.400 C 300.053 374.400,300.400 374.220,300.400 374.000 C 300.400 373.780,300.670 373.600,301.000 373.600 C 301.330 373.600,301.600 373.423,301.600 373.208 C 301.600 372.992,302.050 372.702,302.600 372.564 C 303.150 372.426,303.600 372.153,303.600 371.957 C 303.600 371.760,303.870 371.600,304.200 371.600 C 304.530 371.600,304.800 371.432,304.800 371.227 C 304.800 371.022,305.205 370.728,305.700 370.573 C 306.195 370.419,306.690 370.181,306.800 370.046 C 307.092 369.687,308.461 368.858,309.510 368.405 C 310.011 368.189,310.525 367.739,310.653 367.406 C 310.781 367.073,311.232 366.800,311.655 366.800 C 312.079 366.800,312.529 366.530,312.655 366.200 C 312.782 365.870,313.058 365.600,313.269 365.600 C 313.643 365.600,316.067 363.904,317.129 362.900 C 317.419 362.625,317.832 362.400,318.047 362.400 C 318.261 362.400,318.886 361.950,319.436 361.400 C 319.986 360.850,320.655 360.400,320.923 360.400 C 321.191 360.400,321.748 359.950,322.161 359.400 C 322.574 358.850,323.124 358.400,323.384 358.400 C 323.643 358.400,324.236 357.995,324.700 357.500 C 325.793 356.336,326.697 355.600,327.036 355.600 C 327.184 355.600,327.867 355.009,328.553 354.286 C 329.239 353.564,330.250 352.672,330.800 352.304 C 333.744 350.335,350.301 333.781,352.309 330.800 C 352.679 330.250,353.436 329.345,353.991 328.789 C 354.546 328.234,355.360 327.263,355.800 326.632 C 356.240 326.001,357.005 325.118,357.500 324.670 C 357.995 324.222,358.400 323.643,358.400 323.384 C 358.400 323.124,358.850 322.574,359.400 322.161 C 359.950 321.748,360.400 321.191,360.400 320.923 C 360.400 320.655,360.850 319.986,361.400 319.436 C 361.950 318.886,362.400 318.261,362.400 318.047 C 362.400 317.832,362.625 317.419,362.900 317.129 C 363.904 316.067,365.600 313.643,365.600 313.269 C 365.600 313.058,365.870 312.782,366.200 312.655 C 366.530 312.529,366.800 312.079,366.800 311.655 C 366.800 311.232,367.073 310.781,367.406 310.653 C 367.739 310.525,368.189 310.011,368.405 309.510 C 368.858 308.461,369.687 307.092,370.046 306.800 C 370.181 306.690,370.419 306.195,370.573 305.700 C 370.728 305.205,371.022 304.800,371.227 304.800 C 371.432 304.800,371.600 304.530,371.600 304.200 C 371.600 303.870,371.760 303.600,371.957 303.600 C 372.153 303.600,372.426 303.150,372.564 302.600 C 372.702 302.050,372.992 301.600,373.208 301.600 C 373.423 301.600,373.600 301.330,373.600 301.000 C 373.600 300.670,373.780 300.400,374.000 300.400 C 374.220 300.400,374.400 300.053,374.400 299.629 C 374.400 299.204,374.670 298.587,375.000 298.257 C 375.330 297.927,375.600 297.464,375.600 297.229 C 375.600 296.993,375.766 296.800,375.968 296.800 C 376.171 296.800,376.455 296.260,376.600 295.600 C 376.745 294.940,377.029 294.400,377.232 294.400 C 377.434 294.400,377.600 294.040,377.600 293.600 C 377.600 293.160,377.766 292.800,377.968 292.800 C 378.171 292.800,378.455 292.260,378.600 291.600 C 378.745 290.940,379.029 290.400,379.232 290.400 C 379.434 290.400,379.600 290.040,379.600 289.600 C 379.600 289.160,379.766 288.800,379.968 288.800 C 380.171 288.800,380.455 288.260,380.600 287.600 C 380.745 286.940,381.029 286.400,381.232 286.400 C 381.434 286.400,381.600 286.040,381.600 285.600 C 381.600 285.160,381.766 284.800,381.968 284.800 C 382.171 284.800,382.455 284.262,382.599 283.605 C 382.743 282.947,383.028 282.306,383.231 282.181 C 383.434 282.055,383.600 281.603,383.600 281.176 C 383.600 280.749,383.760 280.400,383.955 280.400 C 384.151 280.400,384.429 279.770,384.574 279.000 C 384.718 278.230,385.008 277.600,385.218 277.600 C 385.428 277.600,385.600 277.150,385.600 276.600 C 385.600 276.050,385.778 275.600,385.995 275.600 C 386.213 275.600,386.506 274.880,386.646 274.000 C 386.787 273.120,387.059 272.400,387.251 272.400 C 387.443 272.400,387.600 272.051,387.600 271.624 C 387.600 271.197,387.770 270.742,387.977 270.614 C 388.184 270.486,388.475 269.576,388.622 268.591 C 388.770 267.606,389.050 266.800,389.245 266.800 C 389.440 266.800,389.600 266.350,389.600 265.800 C 389.600 265.250,389.763 264.800,389.962 264.800 C 390.162 264.800,390.449 263.900,390.600 262.800 C 390.751 261.700,391.038 260.800,391.238 260.800 C 391.437 260.800,391.600 260.350,391.600 259.800 C 391.600 259.250,391.759 258.800,391.954 258.800 C 392.149 258.800,392.432 257.810,392.583 256.600 C 392.734 255.390,393.025 254.400,393.229 254.400 C 393.433 254.400,393.600 253.770,393.600 253.000 C 393.600 252.230,393.759 251.600,393.953 251.600 C 394.148 251.600,394.432 250.430,394.585 249.000 C 394.738 247.570,395.029 246.400,395.232 246.400 C 395.434 246.400,395.600 245.770,395.600 245.000 C 395.600 244.230,395.764 243.600,395.964 243.600 C 396.164 243.600,396.456 242.070,396.611 240.200 C 396.767 238.330,397.053 236.800,397.247 236.800 C 397.441 236.800,397.600 235.915,397.600 234.833 C 397.600 233.752,397.766 232.807,397.970 232.733 C 398.173 232.660,398.468 230.620,398.626 228.200 C 398.787 225.730,399.107 223.675,399.356 223.515 C 399.673 223.311,399.800 216.574,399.800 200.000 C 399.800 183.426,399.673 176.689,399.356 176.485 C 399.107 176.325,398.787 174.270,398.626 171.800 C 398.468 169.380,398.173 167.340,397.970 167.267 C 397.766 167.193,397.600 166.248,397.600 165.167 C 397.600 164.085,397.441 163.200,397.247 163.200 C 397.053 163.200,396.767 161.670,396.611 159.800 C 396.456 157.930,396.164 156.400,395.964 156.400 C 395.764 156.400,395.600 155.770,395.600 155.000 C 395.600 154.230,395.434 153.600,395.232 153.600 C 395.029 153.600,394.738 152.430,394.585 151.000 C 394.432 149.570,394.148 148.400,393.953 148.400 C 393.759 148.400,393.600 147.770,393.600 147.000 C 393.600 146.230,393.433 145.600,393.229 145.600 C 393.025 145.600,392.734 144.610,392.583 143.400 C 392.432 142.190,392.149 141.200,391.954 141.200 C 391.759 141.200,391.600 140.750,391.600 140.200 C 391.600 139.650,391.437 139.200,391.238 139.200 C 391.038 139.200,390.751 138.300,390.600 137.200 C 390.449 136.100,390.162 135.200,389.962 135.200 C 389.763 135.200,389.600 134.750,389.600 134.200 C 389.600 133.650,389.440 133.200,389.245 133.200 C 389.050 133.200,388.770 132.394,388.622 131.409 C 388.475 130.424,388.184 129.514,387.977 129.386 C 387.770 129.258,387.600 128.803,387.600 128.376 C 387.600 127.949,387.443 127.600,387.251 127.600 C 387.059 127.600,386.787 126.880,386.646 126.000 C 386.506 125.120,386.213 124.400,385.995 124.400 C 385.778 124.400,385.600 123.950,385.600 123.400 C 385.600 122.850,385.428 122.400,385.218 122.400 C 385.008 122.400,384.718 121.770,384.574 121.000 C 384.429 120.230,384.151 119.600,383.955 119.600 C 383.760 119.600,383.600 119.251,383.600 118.824 C 383.600 118.397,383.434 117.945,383.231 117.819 C 383.028 117.694,382.743 117.053,382.599 116.395 C 382.455 115.738,382.171 115.200,381.968 115.200 C 381.766 115.200,381.600 114.840,381.600 114.400 C 381.600 113.960,381.434 113.600,381.232 113.600 C 381.029 113.600,380.745 113.060,380.600 112.400 C 380.455 111.740,380.171 111.200,379.968 111.200 C 379.766 111.200,379.600 110.840,379.600 110.400 C 379.600 109.960,379.434 109.600,379.232 109.600 C 379.029 109.600,378.745 109.060,378.600 108.400 C 378.455 107.740,378.171 107.200,377.968 107.200 C 377.766 107.200,377.600 106.840,377.600 106.400 C 377.600 105.960,377.434 105.600,377.232 105.600 C 377.029 105.600,376.745 105.060,376.600 104.400 C 376.455 103.740,376.171 103.200,375.968 103.200 C 375.766 103.200,375.600 102.952,375.600 102.649 C 375.600 102.346,375.330 101.874,375.000 101.600 C 374.670 101.326,374.400 100.764,374.400 100.351 C 374.400 99.938,374.220 99.600,374.000 99.600 C 373.780 99.600,373.600 99.330,373.600 99.000 C 373.600 98.670,373.423 98.400,373.208 98.400 C 372.992 98.400,372.702 97.950,372.564 97.400 C 372.426 96.850,372.153 96.400,371.957 96.400 C 371.760 96.400,371.600 96.130,371.600 95.800 C 371.600 95.470,371.432 95.200,371.227 95.200 C 371.022 95.200,370.728 94.795,370.573 94.300 C 370.419 93.805,370.181 93.310,370.046 93.200 C 369.687 92.908,368.858 91.539,368.405 90.490 C 368.189 89.989,367.739 89.475,367.406 89.347 C 367.073 89.219,366.800 88.768,366.800 88.345 C 366.800 87.921,366.530 87.471,366.200 87.345 C 365.870 87.218,365.600 86.864,365.600 86.557 C 365.600 86.251,365.285 85.671,364.900 85.270 C 363.747 84.067,362.400 82.249,362.400 81.895 C 362.400 81.713,361.950 81.114,361.400 80.564 C 360.850 80.014,360.400 79.345,360.400 79.077 C 360.400 78.809,359.950 78.252,359.400 77.839 C 358.850 77.426,358.400 76.876,358.400 76.616 C 358.400 76.357,357.995 75.764,357.500 75.300 C 356.336 74.207,355.600 73.303,355.600 72.964 C 355.600 72.816,355.009 72.133,354.286 71.447 C 353.564 70.761,352.672 69.750,352.304 69.200 C 350.301 66.204,333.796 49.699,330.800 47.696 C 330.250 47.328,329.239 46.436,328.553 45.714 C 327.867 44.991,327.184 44.400,327.036 44.400 C 326.697 44.400,325.793 43.664,324.700 42.500 C 324.236 42.005,323.643 41.600,323.384 41.600 C 323.124 41.600,322.574 41.150,322.161 40.600 C 321.748 40.050,321.191 39.600,320.923 39.600 C 320.655 39.600,319.986 39.150,319.436 38.600 C 318.886 38.050,318.287 37.600,318.105 37.600 C 317.751 37.600,315.933 36.253,314.730 35.100 C 314.329 34.715,313.749 34.400,313.443 34.400 C 313.136 34.400,312.782 34.130,312.655 33.800 C 312.529 33.470,312.079 33.200,311.655 33.200 C 311.232 33.200,310.781 32.927,310.653 32.594 C 310.525 32.261,309.966 31.815,309.410 31.604 C 308.855 31.393,308.400 31.035,308.400 30.810 C 308.400 30.584,308.040 30.400,307.600 30.400 C 307.160 30.400,306.800 30.240,306.800 30.043 C 306.800 29.847,306.350 29.574,305.800 29.436 C 305.250 29.298,304.800 29.008,304.800 28.792 C 304.800 28.577,304.530 28.400,304.200 28.400 C 303.870 28.400,303.600 28.223,303.600 28.008 C 303.600 27.792,303.150 27.502,302.600 27.364 C 302.050 27.226,301.600 26.953,301.600 26.757 C 301.600 26.560,301.330 26.400,301.000 26.400 C 300.670 26.400,300.400 26.220,300.400 26.000 C 300.400 25.780,300.062 25.600,299.649 25.600 C 299.236 25.600,298.674 25.330,298.400 25.000 C 298.126 24.670,297.654 24.400,297.351 24.400 C 297.048 24.400,296.800 24.234,296.800 24.032 C 296.800 23.829,296.260 23.545,295.600 23.400 C 294.940 23.255,294.400 22.971,294.400 22.768 C 294.400 22.566,294.040 22.400,293.600 22.400 C 293.160 22.400,292.800 22.234,292.800 22.032 C 292.800 21.829,292.260 21.545,291.600 21.400 C 290.940 21.255,290.400 20.971,290.400 20.768 C 290.400 20.566,290.040 20.400,289.600 20.400 C 289.160 20.400,288.800 20.234,288.800 20.032 C 288.800 19.829,288.260 19.545,287.600 19.400 C 286.940 19.255,286.400 18.971,286.400 18.768 C 286.400 18.566,286.040 18.400,285.600 18.400 C 285.160 18.400,284.800 18.234,284.800 18.032 C 284.800 17.829,284.262 17.545,283.605 17.401 C 282.947 17.257,282.306 16.972,282.181 16.769 C 282.055 16.566,281.603 16.400,281.176 16.400 C 280.749 16.400,280.400 16.240,280.400 16.045 C 280.400 15.849,279.770 15.571,279.000 15.426 C 278.230 15.282,277.600 14.992,277.600 14.782 C 277.600 14.572,277.150 14.400,276.600 14.400 C 276.050 14.400,275.600 14.222,275.600 14.005 C 275.600 13.787,274.880 13.494,274.000 13.354 C 273.120 13.213,272.400 12.941,272.400 12.749 C 272.400 12.557,272.051 12.400,271.624 12.400 C 271.197 12.400,270.742 12.230,270.614 12.023 C 270.486 11.816,269.576 11.525,268.591 11.378 C 267.606 11.230,266.800 10.950,266.800 10.755 C 266.800 10.560,266.350 10.400,265.800 10.400 C 265.250 10.400,264.800 10.237,264.800 10.038 C 264.800 9.838,263.900 9.551,262.800 9.400 C 261.700 9.249,260.800 8.962,260.800 8.762 C 260.800 8.563,260.350 8.400,259.800 8.400 C 259.250 8.400,258.800 8.233,258.800 8.029 C 258.800 7.825,257.810 7.534,256.600 7.383 C 255.390 7.232,254.400 6.949,254.400 6.754 C 254.400 6.559,253.770 6.400,253.000 6.400 C 252.230 6.400,251.600 6.234,251.600 6.032 C 251.600 5.829,250.430 5.538,249.000 5.385 C 247.570 5.232,246.400 4.948,246.400 4.753 C 246.400 4.559,245.770 4.400,245.000 4.400 C 244.230 4.400,243.600 4.236,243.600 4.036 C 243.600 3.836,242.070 3.544,240.200 3.389 C 238.330 3.233,236.800 2.947,236.800 2.753 C 236.800 2.559,235.915 2.400,234.833 2.400 C 233.752 2.400,232.807 2.234,232.733 2.030 C 232.660 1.827,230.620 1.532,228.200 1.374 C 225.780 1.216,223.676 0.894,223.523 0.658 C 223.249 0.232,187.784 -0.080,179.900 0.274 M220.311 17.133 C 220.408 17.424,221.431 17.600,223.033 17.600 C 224.445 17.600,225.600 17.761,225.600 17.957 C 225.600 18.153,227.400 18.443,229.600 18.600 C 231.800 18.757,233.600 19.047,233.600 19.243 C 233.600 19.439,234.410 19.600,235.400 19.600 C 236.390 19.600,237.200 19.759,237.200 19.953 C 237.200 20.147,238.550 20.433,240.200 20.587 C 241.850 20.742,243.200 21.033,243.200 21.234 C 243.200 21.435,243.740 21.600,244.400 21.600 C 245.060 21.600,245.600 21.757,245.600 21.948 C 245.600 22.140,246.675 22.418,247.988 22.567 C 249.301 22.715,250.482 23.009,250.611 23.218 C 250.741 23.428,251.377 23.600,252.024 23.600 C 252.671 23.600,253.200 23.763,253.200 23.962 C 253.200 24.162,254.100 24.449,255.200 24.600 C 256.300 24.751,257.200 25.038,257.200 25.238 C 257.200 25.437,257.650 25.600,258.200 25.600 C 258.750 25.600,259.200 25.763,259.200 25.962 C 259.200 26.162,260.100 26.449,261.200 26.600 C 262.300 26.751,263.200 26.994,263.200 27.140 C 263.200 27.430,264.829 28.174,266.400 28.600 C 267.997 29.033,269.600 29.771,269.600 30.073 C 269.600 30.226,270.410 30.472,271.400 30.621 C 272.390 30.769,273.200 31.050,273.200 31.245 C 273.200 31.440,273.470 31.600,273.800 31.600 C 274.130 31.600,274.400 31.772,274.400 31.982 C 274.400 32.192,275.030 32.482,275.800 32.626 C 276.570 32.771,277.200 33.020,277.200 33.180 C 277.200 33.339,278.190 33.807,279.400 34.218 C 280.610 34.629,281.600 35.108,281.600 35.283 C 281.600 35.457,281.960 35.600,282.400 35.600 C 282.840 35.600,283.200 35.760,283.200 35.957 C 283.200 36.153,283.650 36.426,284.200 36.564 C 284.750 36.702,285.200 36.992,285.200 37.208 C 285.200 37.423,285.470 37.600,285.800 37.600 C 286.130 37.600,286.400 37.772,286.400 37.982 C 286.400 38.192,287.030 38.482,287.800 38.626 C 288.570 38.771,289.200 39.049,289.200 39.245 C 289.200 39.440,289.470 39.600,289.800 39.600 C 290.130 39.600,290.400 39.760,290.400 39.957 C 290.400 40.153,290.850 40.426,291.400 40.564 C 291.950 40.702,292.400 40.992,292.400 41.208 C 292.400 41.423,292.670 41.600,293.000 41.600 C 293.330 41.600,293.600 41.780,293.600 42.000 C 293.600 42.220,293.966 42.400,294.413 42.400 C 294.859 42.400,295.329 42.670,295.455 43.000 C 295.582 43.330,296.026 43.600,296.443 43.600 C 296.859 43.600,297.200 43.777,297.200 43.992 C 297.200 44.208,297.650 44.498,298.200 44.636 C 298.750 44.774,299.200 45.019,299.200 45.180 C 299.200 45.342,299.875 45.817,300.700 46.237 C 301.525 46.657,302.491 47.315,302.847 47.700 C 303.203 48.085,303.699 48.400,303.950 48.400 C 304.200 48.400,304.797 48.850,305.275 49.400 C 305.753 49.950,306.387 50.400,306.685 50.400 C 306.982 50.400,307.329 50.670,307.455 51.000 C 307.582 51.330,307.893 51.600,308.147 51.600 C 308.401 51.600,309.093 52.050,309.687 52.600 C 310.280 53.150,310.871 53.600,310.999 53.600 C 311.306 53.600,312.246 54.376,313.300 55.500 C 313.764 55.995,314.317 56.400,314.529 56.400 C 314.740 56.400,315.429 56.940,316.060 57.600 C 316.691 58.260,317.364 58.800,317.556 58.800 C 317.748 58.800,318.999 59.880,320.336 61.200 C 321.672 62.520,322.871 63.600,323.000 63.600 C 323.263 63.600,324.196 64.338,324.919 65.119 C 325.184 65.405,325.634 65.855,325.919 66.119 C 326.205 66.384,326.655 66.834,326.919 67.119 C 327.184 67.405,327.634 67.855,327.919 68.119 C 328.205 68.384,328.655 68.834,328.919 69.119 C 329.184 69.405,329.634 69.855,329.919 70.119 C 330.205 70.384,330.655 70.834,330.919 71.119 C 331.184 71.405,331.634 71.855,331.919 72.119 C 332.205 72.384,332.655 72.834,332.919 73.119 C 333.184 73.405,333.634 73.855,333.919 74.119 C 335.171 75.279,336.400 76.700,336.400 76.989 C 336.400 77.124,337.480 78.328,338.800 79.664 C 340.120 81.001,341.200 82.252,341.200 82.444 C 341.200 82.636,341.740 83.309,342.400 83.940 C 343.060 84.571,343.600 85.282,343.600 85.521 C 343.600 85.759,343.918 86.190,344.307 86.477 C 344.696 86.765,345.357 87.537,345.777 88.193 C 346.197 88.850,346.959 89.838,347.470 90.389 C 347.982 90.941,348.400 91.599,348.400 91.853 C 348.400 92.107,348.670 92.418,349.000 92.545 C 349.330 92.671,349.600 93.018,349.600 93.315 C 349.600 93.613,350.050 94.247,350.600 94.725 C 351.150 95.203,351.600 95.800,351.600 96.050 C 351.600 96.301,351.915 96.797,352.300 97.153 C 352.685 97.509,353.343 98.475,353.763 99.300 C 354.183 100.125,354.658 100.800,354.820 100.800 C 354.981 100.800,355.226 101.250,355.364 101.800 C 355.502 102.350,355.792 102.800,356.008 102.800 C 356.223 102.800,356.400 103.141,356.400 103.557 C 356.400 103.974,356.670 104.418,357.000 104.545 C 357.330 104.671,357.600 105.141,357.600 105.587 C 357.600 106.034,357.780 106.400,358.000 106.400 C 358.220 106.400,358.400 106.670,358.400 107.000 C 358.400 107.330,358.577 107.600,358.792 107.600 C 359.008 107.600,359.298 108.050,359.436 108.600 C 359.574 109.150,359.847 109.600,360.043 109.600 C 360.240 109.600,360.400 109.870,360.400 110.200 C 360.400 110.530,360.560 110.800,360.755 110.800 C 360.951 110.800,361.229 111.430,361.374 112.200 C 361.518 112.970,361.808 113.600,362.018 113.600 C 362.228 113.600,362.400 113.870,362.400 114.200 C 362.400 114.530,362.577 114.800,362.792 114.800 C 363.008 114.800,363.298 115.250,363.436 115.800 C 363.574 116.350,363.847 116.800,364.043 116.800 C 364.240 116.800,364.400 117.160,364.400 117.600 C 364.400 118.040,364.543 118.400,364.717 118.400 C 364.892 118.400,365.371 119.390,365.782 120.600 C 366.193 121.810,366.661 122.800,366.820 122.800 C 366.980 122.800,367.229 123.430,367.374 124.200 C 367.518 124.970,367.808 125.600,368.018 125.600 C 368.228 125.600,368.400 125.870,368.400 126.200 C 368.400 126.530,368.560 126.800,368.755 126.800 C 368.950 126.800,369.231 127.610,369.379 128.600 C 369.528 129.590,369.774 130.400,369.927 130.400 C 370.229 130.400,370.967 132.003,371.400 133.600 C 371.826 135.171,372.570 136.800,372.860 136.800 C 373.006 136.800,373.249 137.700,373.400 138.800 C 373.551 139.900,373.838 140.800,374.038 140.800 C 374.237 140.800,374.400 141.250,374.400 141.800 C 374.400 142.350,374.563 142.800,374.762 142.800 C 374.962 142.800,375.249 143.700,375.400 144.800 C 375.551 145.900,375.838 146.800,376.038 146.800 C 376.237 146.800,376.400 147.430,376.400 148.200 C 376.400 148.970,376.571 149.600,376.780 149.600 C 376.989 149.600,377.282 150.680,377.432 152.000 C 377.581 153.320,377.860 154.400,378.052 154.400 C 378.243 154.400,378.400 154.940,378.400 155.600 C 378.400 156.260,378.565 156.800,378.766 156.800 C 378.967 156.800,379.258 158.150,379.413 159.800 C 379.567 161.450,379.853 162.800,380.047 162.800 C 380.241 162.800,380.400 163.610,380.400 164.600 C 380.400 165.590,380.561 166.400,380.757 166.400 C 380.953 166.400,381.243 168.200,381.400 170.400 C 381.557 172.600,381.847 174.400,382.043 174.400 C 382.239 174.400,382.400 175.555,382.400 176.967 C 382.400 178.664,382.569 179.590,382.900 179.700 C 383.291 179.830,383.400 184.249,383.400 200.000 C 383.400 215.751,383.291 220.170,382.900 220.300 C 382.569 220.410,382.400 221.336,382.400 223.033 C 382.400 224.445,382.239 225.600,382.043 225.600 C 381.847 225.600,381.557 227.400,381.400 229.600 C 381.243 231.800,380.953 233.600,380.757 233.600 C 380.561 233.600,380.400 234.410,380.400 235.400 C 380.400 236.390,380.241 237.200,380.047 237.200 C 379.853 237.200,379.567 238.550,379.413 240.200 C 379.258 241.850,378.967 243.200,378.766 243.200 C 378.565 243.200,378.400 243.740,378.400 244.400 C 378.400 245.060,378.243 245.600,378.052 245.600 C 377.860 245.600,377.581 246.680,377.432 248.000 C 377.282 249.320,376.989 250.400,376.780 250.400 C 376.571 250.400,376.400 251.030,376.400 251.800 C 376.400 252.570,376.237 253.200,376.038 253.200 C 375.838 253.200,375.551 254.100,375.400 255.200 C 375.249 256.300,374.962 257.200,374.762 257.200 C 374.563 257.200,374.400 257.650,374.400 258.200 C 374.400 258.750,374.237 259.200,374.038 259.200 C 373.838 259.200,373.551 260.100,373.400 261.200 C 373.249 262.300,373.006 263.200,372.860 263.200 C 372.570 263.200,371.826 264.829,371.400 266.400 C 370.967 267.997,370.229 269.600,369.927 269.600 C 369.774 269.600,369.528 270.410,369.379 271.400 C 369.231 272.390,368.950 273.200,368.755 273.200 C 368.560 273.200,368.400 273.470,368.400 273.800 C 368.400 274.130,368.228 274.400,368.018 274.400 C 367.808 274.400,367.518 275.030,367.374 275.800 C 367.229 276.570,366.995 277.200,366.853 277.200 C 366.542 277.200,365.745 278.983,365.379 280.500 C 365.233 281.105,364.953 281.600,364.757 281.600 C 364.560 281.600,364.400 281.960,364.400 282.400 C 364.400 282.840,364.240 283.200,364.043 283.200 C 363.847 283.200,363.574 283.650,363.436 284.200 C 363.298 284.750,363.008 285.200,362.792 285.200 C 362.577 285.200,362.400 285.470,362.400 285.800 C 362.400 286.130,362.228 286.400,362.018 286.400 C 361.808 286.400,361.518 287.030,361.374 287.800 C 361.229 288.570,360.951 289.200,360.755 289.200 C 360.560 289.200,360.400 289.470,360.400 289.800 C 360.400 290.130,360.223 290.400,360.008 290.400 C 359.792 290.400,359.502 290.850,359.364 291.400 C 359.226 291.950,358.953 292.400,358.757 292.400 C 358.560 292.400,358.400 292.670,358.400 293.000 C 358.400 293.330,358.220 293.600,358.000 293.600 C 357.780 293.600,357.600 293.966,357.600 294.413 C 357.600 294.859,357.330 295.329,357.000 295.455 C 356.670 295.582,356.400 296.026,356.400 296.443 C 356.400 296.859,356.223 297.200,356.008 297.200 C 355.792 297.200,355.502 297.650,355.364 298.200 C 355.226 298.750,354.981 299.200,354.820 299.200 C 354.658 299.200,354.183 299.869,353.763 300.687 C 353.343 301.504,352.595 302.593,352.100 303.105 C 351.605 303.617,351.200 304.279,351.200 304.575 C 351.200 304.872,350.927 305.219,350.594 305.347 C 350.261 305.475,349.815 306.034,349.604 306.590 C 349.393 307.145,349.047 307.600,348.837 307.600 C 348.626 307.600,348.350 307.928,348.222 308.329 C 348.095 308.731,347.664 309.410,347.263 309.840 C 346.863 310.269,346.194 311.156,345.775 311.810 C 345.356 312.465,344.696 313.235,344.307 313.523 C 343.918 313.810,343.600 314.241,343.600 314.479 C 343.600 314.718,343.105 315.416,342.500 316.031 C 341.108 317.444,340.400 318.306,340.400 318.585 C 340.400 318.705,339.500 319.685,338.400 320.762 C 337.300 321.839,336.400 322.836,336.400 322.977 C 336.400 323.260,335.685 324.174,334.881 324.919 C 334.595 325.184,334.145 325.634,333.881 325.919 C 333.616 326.205,333.169 326.655,332.886 326.919 C 332.232 327.531,331.531 328.232,330.919 328.886 C 330.655 329.169,330.205 329.616,329.919 329.881 C 329.634 330.145,329.184 330.595,328.919 330.881 C 328.655 331.166,328.205 331.616,327.919 331.881 C 327.634 332.145,327.184 332.595,326.919 332.881 C 326.655 333.166,326.205 333.616,325.919 333.881 C 325.634 334.145,325.184 334.595,324.919 334.881 C 324.196 335.662,323.263 336.400,323.000 336.400 C 322.871 336.400,321.672 337.480,320.336 338.800 C 318.999 340.120,317.748 341.200,317.556 341.200 C 317.364 341.200,316.691 341.740,316.060 342.400 C 315.429 343.060,314.740 343.600,314.529 343.600 C 314.317 343.600,313.764 344.005,313.300 344.500 C 312.086 345.794,311.294 346.400,310.817 346.400 C 310.588 346.400,310.400 346.541,310.400 346.714 C 310.400 346.886,309.815 347.367,309.100 347.782 C 308.385 348.198,307.656 348.777,307.480 349.069 C 307.304 349.361,306.932 349.600,306.652 349.600 C 306.373 349.600,305.753 350.050,305.275 350.600 C 304.797 351.150,304.200 351.600,303.950 351.600 C 303.699 351.600,303.203 351.915,302.847 352.300 C 302.491 352.685,301.525 353.343,300.700 353.763 C 299.875 354.183,299.200 354.658,299.200 354.820 C 299.200 354.981,298.750 355.226,298.200 355.364 C 297.650 355.502,297.200 355.792,297.200 356.008 C 297.200 356.223,296.859 356.400,296.443 356.400 C 296.026 356.400,295.582 356.670,295.455 357.000 C 295.329 357.330,294.859 357.600,294.413 357.600 C 293.966 357.600,293.600 357.780,293.600 358.000 C 293.600 358.220,293.330 358.400,293.000 358.400 C 292.670 358.400,292.400 358.577,292.400 358.792 C 292.400 359.008,291.950 359.298,291.400 359.436 C 290.850 359.574,290.400 359.847,290.400 360.043 C 290.400 360.240,290.130 360.400,289.800 360.400 C 289.470 360.400,289.200 360.560,289.200 360.755 C 289.200 360.951,288.570 361.229,287.800 361.374 C 287.030 361.518,286.400 361.808,286.400 362.018 C 286.400 362.228,286.130 362.400,285.800 362.400 C 285.470 362.400,285.200 362.553,285.200 362.740 C 285.200 362.927,284.390 363.413,283.400 363.822 C 282.410 364.230,281.600 364.670,281.600 364.799 C 281.600 364.929,280.610 365.371,279.400 365.782 C 278.190 366.193,277.200 366.661,277.200 366.820 C 277.200 366.980,276.570 367.229,275.800 367.374 C 275.030 367.518,274.400 367.808,274.400 368.018 C 274.400 368.228,274.130 368.400,273.800 368.400 C 273.470 368.400,273.200 368.560,273.200 368.755 C 273.200 368.950,272.390 369.231,271.400 369.379 C 270.410 369.528,269.600 369.818,269.600 370.025 C 269.600 370.231,269.240 370.400,268.800 370.400 C 268.360 370.400,268.000 370.558,268.000 370.750 C 268.000 370.942,267.416 371.217,266.703 371.359 C 265.122 371.676,263.200 372.499,263.200 372.860 C 263.200 373.006,262.300 373.249,261.200 373.400 C 260.100 373.551,259.200 373.838,259.200 374.038 C 259.200 374.237,258.750 374.400,258.200 374.400 C 257.650 374.400,257.200 374.563,257.200 374.762 C 257.200 374.962,256.300 375.249,255.200 375.400 C 254.100 375.551,253.200 375.838,253.200 376.038 C 253.200 376.237,252.570 376.400,251.800 376.400 C 251.030 376.400,250.400 376.571,250.400 376.780 C 250.400 376.989,249.320 377.282,248.000 377.432 C 246.680 377.581,245.600 377.860,245.600 378.052 C 245.600 378.243,245.060 378.400,244.400 378.400 C 243.740 378.400,243.200 378.565,243.200 378.766 C 243.200 378.967,241.850 379.258,240.200 379.413 C 238.550 379.567,237.200 379.853,237.200 380.047 C 237.200 380.241,236.390 380.400,235.400 380.400 C 234.410 380.400,233.600 380.561,233.600 380.757 C 233.600 380.953,231.800 381.243,229.600 381.400 C 227.400 381.557,225.600 381.847,225.600 382.043 C 225.600 382.239,224.445 382.400,223.033 382.400 C 221.336 382.400,220.410 382.569,220.300 382.900 C 220.170 383.291,215.751 383.400,200.000 383.400 C 184.249 383.400,179.830 383.291,179.700 382.900 C 179.590 382.569,178.664 382.400,176.967 382.400 C 175.555 382.400,174.400 382.239,174.400 382.043 C 174.400 381.847,172.600 381.557,170.400 381.400 C 168.200 381.243,166.400 380.953,166.400 380.757 C 166.400 380.561,165.590 380.400,164.600 380.400 C 163.610 380.400,162.800 380.241,162.800 380.047 C 162.800 379.853,161.450 379.567,159.800 379.413 C 158.150 379.258,156.800 378.967,156.800 378.766 C 156.800 378.565,156.260 378.400,155.600 378.400 C 154.940 378.400,154.400 378.243,154.400 378.052 C 154.400 377.860,153.320 377.581,152.000 377.432 C 150.680 377.282,149.600 376.989,149.600 376.780 C 149.600 376.571,148.970 376.400,148.200 376.400 C 147.430 376.400,146.800 376.237,146.800 376.038 C 146.800 375.838,145.900 375.551,144.800 375.400 C 143.700 375.249,142.800 374.962,142.800 374.762 C 142.800 374.563,142.350 374.400,141.800 374.400 C 141.250 374.400,140.800 374.237,140.800 374.038 C 140.800 373.838,139.900 373.551,138.800 373.400 C 137.700 373.249,136.800 373.006,136.800 372.860 C 136.800 372.499,134.878 371.676,133.297 371.359 C 132.584 371.217,132.000 370.942,132.000 370.750 C 132.000 370.558,131.640 370.400,131.200 370.400 C 130.760 370.400,130.400 370.231,130.400 370.025 C 130.400 369.818,129.590 369.528,128.600 369.379 C 127.610 369.231,126.800 368.950,126.800 368.755 C 126.800 368.560,126.530 368.400,126.200 368.400 C 125.870 368.400,125.600 368.228,125.600 368.018 C 125.600 367.808,124.970 367.518,124.200 367.374 C 123.430 367.229,122.800 366.951,122.800 366.755 C 122.800 366.560,122.575 366.394,122.300 366.387 C 122.025 366.381,120.900 365.932,119.800 365.391 C 118.700 364.850,117.575 364.406,117.300 364.404 C 117.025 364.402,116.800 364.223,116.800 364.008 C 116.800 363.792,116.350 363.502,115.800 363.364 C 115.250 363.226,114.800 362.953,114.800 362.757 C 114.800 362.560,114.530 362.400,114.200 362.400 C 113.870 362.400,113.600 362.228,113.600 362.018 C 113.600 361.808,112.970 361.518,112.200 361.374 C 111.430 361.229,110.800 360.951,110.800 360.755 C 110.800 360.560,110.530 360.400,110.200 360.400 C 109.870 360.400,109.600 360.223,109.600 360.008 C 109.600 359.792,109.150 359.502,108.600 359.364 C 108.050 359.226,107.600 358.953,107.600 358.757 C 107.600 358.560,107.330 358.400,107.000 358.400 C 106.670 358.400,106.400 358.220,106.400 358.000 C 106.400 357.780,106.034 357.600,105.587 357.600 C 105.141 357.600,104.671 357.330,104.545 357.000 C 104.418 356.670,103.974 356.400,103.557 356.400 C 103.141 356.400,102.800 356.223,102.800 356.008 C 102.800 355.792,102.350 355.502,101.800 355.364 C 101.250 355.226,100.800 354.981,100.800 354.820 C 100.800 354.658,100.131 354.183,99.313 353.763 C 98.496 353.343,97.407 352.595,96.895 352.100 C 96.383 351.605,95.721 351.200,95.425 351.200 C 95.128 351.200,94.781 350.927,94.653 350.594 C 94.525 350.261,93.966 349.815,93.410 349.604 C 92.855 349.393,92.400 349.035,92.400 348.810 C 92.400 348.584,92.173 348.400,91.896 348.400 C 91.619 348.400,90.941 347.982,90.389 347.470 C 89.838 346.959,88.850 346.197,88.193 345.777 C 87.537 345.357,86.765 344.696,86.477 344.307 C 86.190 343.918,85.759 343.600,85.521 343.600 C 85.282 343.600,84.584 343.105,83.969 342.500 C 82.556 341.108,81.694 340.400,81.415 340.400 C 81.295 340.400,80.315 339.500,79.238 338.400 C 78.161 337.300,77.164 336.400,77.023 336.400 C 76.740 336.400,75.826 335.685,75.081 334.881 C 74.816 334.595,74.366 334.145,74.081 333.881 C 73.795 333.616,73.345 333.166,73.081 332.881 C 72.816 332.595,72.366 332.145,72.081 331.881 C 71.795 331.616,71.345 331.166,71.081 330.881 C 70.816 330.595,70.366 330.145,70.081 329.881 C 69.795 329.616,69.345 329.166,69.081 328.881 C 68.816 328.595,68.366 328.145,68.081 327.881 C 67.795 327.616,67.345 327.166,67.081 326.881 C 66.816 326.595,66.366 326.145,66.081 325.881 C 65.546 325.385,64.969 324.783,64.100 323.815 C 63.825 323.508,63.600 323.136,63.600 322.989 C 63.600 322.841,62.700 321.839,61.600 320.762 C 60.500 319.685,59.600 318.652,59.600 318.466 C 59.600 318.280,58.880 317.393,58.000 316.495 C 57.120 315.597,56.400 314.701,56.400 314.504 C 56.400 314.306,55.995 313.764,55.500 313.300 C 54.376 312.246,53.600 311.306,53.600 310.999 C 53.600 310.871,53.150 310.280,52.600 309.687 C 52.050 309.093,51.600 308.381,51.600 308.104 C 51.600 307.827,51.416 307.600,51.190 307.600 C 50.965 307.600,50.607 307.145,50.396 306.590 C 50.185 306.034,49.739 305.475,49.406 305.347 C 49.073 305.219,48.800 304.872,48.800 304.575 C 48.800 304.279,48.395 303.617,47.900 303.105 C 47.405 302.593,46.657 301.504,46.237 300.687 C 45.817 299.869,45.342 299.200,45.180 299.200 C 45.019 299.200,44.774 298.750,44.636 298.200 C 44.498 297.650,44.208 297.200,43.992 297.200 C 43.777 297.200,43.600 296.859,43.600 296.443 C 43.600 296.026,43.330 295.582,43.000 295.455 C 42.670 295.329,42.400 294.859,42.400 294.413 C 42.400 293.966,42.220 293.600,42.000 293.600 C 41.780 293.600,41.600 293.330,41.600 293.000 C 41.600 292.670,41.423 292.400,41.208 292.400 C 40.992 292.400,40.702 291.950,40.564 291.400 C 40.426 290.850,40.153 290.400,39.957 290.400 C 39.760 290.400,39.600 290.130,39.600 289.800 C 39.600 289.470,39.440 289.200,39.245 289.200 C 39.049 289.200,38.771 288.570,38.626 287.800 C 38.482 287.030,38.192 286.400,37.982 286.400 C 37.772 286.400,37.600 286.145,37.600 285.833 C 37.600 285.522,37.447 285.207,37.260 285.133 C 36.865 284.979,33.600 278.293,33.600 277.639 C 33.600 277.398,33.440 277.200,33.245 277.200 C 33.049 277.200,32.771 276.570,32.626 275.800 C 32.482 275.030,32.192 274.400,31.982 274.400 C 31.772 274.400,31.600 274.130,31.600 273.800 C 31.600 273.470,31.440 273.200,31.245 273.200 C 31.050 273.200,30.769 272.390,30.621 271.400 C 30.472 270.410,30.182 269.600,29.975 269.600 C 29.769 269.600,29.600 269.240,29.600 268.800 C 29.600 268.360,29.442 268.000,29.250 268.000 C 29.057 268.000,28.783 267.416,28.641 266.703 C 28.324 265.122,27.501 263.200,27.140 263.200 C 26.994 263.200,26.751 262.300,26.600 261.200 C 26.449 260.100,26.162 259.200,25.962 259.200 C 25.763 259.200,25.600 258.750,25.600 258.200 C 25.600 257.650,25.437 257.200,25.238 257.200 C 25.038 257.200,24.751 256.300,24.600 255.200 C 24.449 254.100,24.162 253.200,23.962 253.200 C 23.763 253.200,23.600 252.570,23.600 251.800 C 23.600 251.030,23.429 250.400,23.220 250.400 C 23.011 250.400,22.718 249.320,22.568 248.000 C 22.419 246.680,22.140 245.600,21.948 245.600 C 21.757 245.600,21.600 245.060,21.600 244.400 C 21.600 243.740,21.435 243.200,21.234 243.200 C 21.033 243.200,20.742 241.850,20.587 240.200 C 20.433 238.550,20.147 237.200,19.953 237.200 C 19.759 237.200,19.600 236.390,19.600 235.400 C 19.600 234.410,19.439 233.600,19.243 233.600 C 19.047 233.600,18.757 231.800,18.600 229.600 C 18.443 227.400,18.153 225.600,17.957 225.600 C 17.761 225.600,17.600 224.445,17.600 223.033 C 17.600 221.336,17.431 220.410,17.100 220.300 C 16.369 220.056,16.369 179.944,17.100 179.700 C 17.431 179.590,17.600 178.664,17.600 176.967 C 17.600 175.555,17.757 174.400,17.948 174.400 C 18.140 174.400,18.425 172.600,18.581 170.400 C 18.737 168.200,19.030 166.400,19.232 166.400 C 19.434 166.400,19.600 165.590,19.600 164.600 C 19.600 163.610,19.759 162.800,19.953 162.800 C 20.147 162.800,20.433 161.450,20.587 159.800 C 20.742 158.150,21.033 156.800,21.234 156.800 C 21.435 156.800,21.600 156.260,21.600 155.600 C 21.600 154.940,21.757 154.400,21.948 154.400 C 22.140 154.400,22.419 153.320,22.568 152.000 C 22.718 150.680,23.011 149.600,23.220 149.600 C 23.429 149.600,23.600 148.970,23.600 148.200 C 23.600 147.430,23.763 146.800,23.962 146.800 C 24.162 146.800,24.449 145.900,24.600 144.800 C 24.751 143.700,25.038 142.800,25.238 142.800 C 25.437 142.800,25.600 142.350,25.600 141.800 C 25.600 141.250,25.763 140.800,25.962 140.800 C 26.162 140.800,26.449 139.900,26.600 138.800 C 26.751 137.700,26.994 136.800,27.140 136.800 C 27.430 136.800,28.174 135.171,28.600 133.600 C 29.033 132.003,29.771 130.400,30.073 130.400 C 30.226 130.400,30.472 129.590,30.621 128.600 C 30.769 127.610,31.050 126.800,31.245 126.800 C 31.440 126.800,31.600 126.530,31.600 126.200 C 31.600 125.870,31.772 125.600,31.982 125.600 C 32.192 125.600,32.482 124.970,32.626 124.200 C 32.771 123.430,33.020 122.800,33.180 122.800 C 33.339 122.800,33.807 121.810,34.218 120.600 C 34.629 119.390,35.108 118.400,35.283 118.400 C 35.457 118.400,35.600 118.040,35.600 117.600 C 35.600 117.160,35.780 116.800,36.000 116.800 C 36.220 116.800,36.400 116.543,36.400 116.229 C 36.400 115.914,36.625 115.416,36.900 115.121 C 37.701 114.263,38.800 112.132,38.800 111.438 C 38.800 111.087,38.980 110.800,39.200 110.800 C 39.420 110.800,39.600 110.530,39.600 110.200 C 39.600 109.870,39.760 109.600,39.957 109.600 C 40.153 109.600,40.426 109.150,40.564 108.600 C 40.702 108.050,40.992 107.600,41.208 107.600 C 41.423 107.600,41.600 107.330,41.600 107.000 C 41.600 106.670,41.780 106.400,42.000 106.400 C 42.220 106.400,42.400 106.034,42.400 105.587 C 42.400 105.141,42.670 104.671,43.000 104.545 C 43.330 104.418,43.600 103.974,43.600 103.557 C 43.600 103.141,43.777 102.800,43.992 102.800 C 44.208 102.800,44.498 102.350,44.636 101.800 C 44.774 101.250,45.047 100.800,45.243 100.800 C 45.440 100.800,45.600 100.530,45.600 100.200 C 45.600 99.870,45.768 99.600,45.973 99.600 C 46.178 99.600,46.474 99.195,46.630 98.700 C 46.787 98.205,47.249 97.509,47.657 97.153 C 48.066 96.797,48.400 96.301,48.400 96.050 C 48.400 95.800,48.850 95.203,49.400 94.725 C 49.950 94.247,50.400 93.613,50.400 93.315 C 50.400 93.018,50.670 92.671,51.000 92.545 C 51.330 92.418,51.600 92.107,51.600 91.853 C 51.600 91.599,52.050 90.907,52.600 90.313 C 53.150 89.720,53.600 89.129,53.600 89.001 C 53.600 88.694,54.376 87.754,55.500 86.700 C 55.995 86.236,56.400 85.683,56.400 85.471 C 56.400 85.260,56.895 84.584,57.500 83.969 C 58.892 82.556,59.600 81.694,59.600 81.415 C 59.600 81.295,60.500 80.315,61.600 79.238 C 62.700 78.161,63.600 77.164,63.600 77.023 C 63.600 76.740,64.315 75.826,65.119 75.081 C 65.405 74.816,65.855 74.366,66.119 74.081 C 66.384 73.795,66.834 73.345,67.119 73.081 C 67.405 72.816,67.855 72.366,68.119 72.081 C 68.384 71.795,68.834 71.345,69.119 71.081 C 69.405 70.816,69.855 70.366,70.119 70.081 C 70.384 69.795,70.831 69.345,71.114 69.081 C 71.768 68.469,72.469 67.768,73.081 67.114 C 73.345 66.831,73.795 66.384,74.081 66.119 C 74.366 65.855,74.816 65.405,75.081 65.119 C 75.826 64.315,76.740 63.600,77.023 63.600 C 77.164 63.600,78.161 62.700,79.238 61.600 C 80.315 60.500,81.295 59.600,81.415 59.600 C 81.694 59.600,82.556 58.892,83.969 57.500 C 84.584 56.895,85.282 56.400,85.521 56.400 C 85.759 56.400,86.190 56.082,86.477 55.693 C 86.765 55.304,87.537 54.643,88.193 54.223 C 88.850 53.803,89.838 53.041,90.389 52.530 C 90.941 52.018,91.619 51.600,91.896 51.600 C 92.173 51.600,92.400 51.416,92.400 51.190 C 92.400 50.965,92.855 50.607,93.410 50.396 C 93.966 50.185,94.525 49.739,94.653 49.406 C 94.781 49.073,95.128 48.800,95.425 48.800 C 95.721 48.800,96.392 48.372,96.916 47.848 C 97.439 47.324,98.258 46.772,98.734 46.621 C 99.210 46.470,99.600 46.178,99.600 45.973 C 99.600 45.768,99.870 45.600,100.200 45.600 C 100.530 45.600,100.800 45.440,100.800 45.243 C 100.800 45.047,101.250 44.774,101.800 44.636 C 102.350 44.498,102.800 44.208,102.800 43.992 C 102.800 43.777,103.141 43.600,103.557 43.600 C 103.974 43.600,104.418 43.330,104.545 43.000 C 104.671 42.670,105.141 42.400,105.587 42.400 C 106.034 42.400,106.400 42.220,106.400 42.000 C 106.400 41.780,106.670 41.600,107.000 41.600 C 107.330 41.600,107.600 41.423,107.600 41.208 C 107.600 40.992,108.050 40.702,108.600 40.564 C 109.150 40.426,109.600 40.153,109.600 39.957 C 109.600 39.760,109.870 39.600,110.200 39.600 C 110.530 39.600,110.800 39.420,110.800 39.200 C 110.800 38.980,111.087 38.800,111.438 38.800 C 112.132 38.800,114.263 37.701,115.121 36.900 C 115.416 36.625,115.914 36.400,116.229 36.400 C 116.543 36.400,116.800 36.220,116.800 36.000 C 116.800 35.780,117.025 35.598,117.300 35.596 C 117.575 35.594,118.700 35.150,119.800 34.609 C 120.900 34.068,122.025 33.619,122.300 33.613 C 122.575 33.606,122.800 33.440,122.800 33.245 C 122.800 33.049,123.430 32.771,124.200 32.626 C 124.970 32.482,125.600 32.192,125.600 31.982 C 125.600 31.772,125.870 31.600,126.200 31.600 C 126.530 31.600,126.800 31.440,126.800 31.245 C 126.800 31.050,127.610 30.769,128.600 30.621 C 129.590 30.472,130.400 30.226,130.400 30.073 C 130.400 29.771,132.003 29.033,133.600 28.600 C 135.171 28.174,136.800 27.430,136.800 27.140 C 136.800 26.994,137.700 26.751,138.800 26.600 C 139.900 26.449,140.800 26.162,140.800 25.962 C 140.800 25.763,141.250 25.600,141.800 25.600 C 142.350 25.600,142.800 25.437,142.800 25.238 C 142.800 25.038,143.700 24.751,144.800 24.600 C 145.900 24.449,146.800 24.162,146.800 23.962 C 146.800 23.763,147.430 23.600,148.200 23.600 C 148.970 23.600,149.600 23.429,149.600 23.220 C 149.600 23.011,150.680 22.718,152.000 22.568 C 153.320 22.419,154.400 22.140,154.400 21.948 C 154.400 21.757,154.940 21.600,155.600 21.600 C 156.260 21.600,156.800 21.435,156.800 21.234 C 156.800 21.033,158.150 20.742,159.800 20.587 C 161.450 20.433,162.800 20.147,162.800 19.953 C 162.800 19.759,163.610 19.600,164.600 19.600 C 165.590 19.600,166.400 19.434,166.400 19.232 C 166.400 19.030,168.200 18.737,170.400 18.581 C 172.600 18.425,174.400 18.140,174.400 17.948 C 174.400 17.757,175.570 17.600,177.000 17.600 C 178.430 17.600,179.600 17.427,179.600 17.216 C 179.600 16.346,220.021 16.264,220.311 17.133 M88.446 83.466 C 87.921 83.578,86.571 84.590,85.446 85.716 L 83.400 87.762 83.400 91.547 C 83.400 94.220,83.547 95.382,83.900 95.500 C 84.175 95.592,84.400 95.839,84.400 96.050 C 84.400 96.446,85.011 97.278,85.919 98.119 C 86.205 98.384,86.655 98.834,86.919 99.119 C 87.184 99.405,87.634 99.855,87.919 100.119 C 88.205 100.384,88.655 100.834,88.919 101.119 C 89.184 101.405,89.634 101.855,89.919 102.119 C 90.205 102.384,90.655 102.834,90.919 103.119 C 91.184 103.405,91.634 103.855,91.919 104.119 C 92.205 104.384,92.655 104.834,92.919 105.119 C 93.184 105.405,93.634 105.855,93.919 106.119 C 94.205 106.384,94.655 106.834,94.919 107.119 C 95.184 107.405,95.634 107.855,95.919 108.119 C 96.205 108.384,96.655 108.834,96.919 109.119 C 97.184 109.405,97.634 109.855,97.919 110.119 C 98.205 110.384,98.655 110.834,98.919 111.119 C 99.184 111.405,99.634 111.855,99.919 112.119 C 100.205 112.384,100.655 112.834,100.919 113.119 C 101.184 113.405,101.634 113.855,101.919 114.119 C 102.205 114.384,102.655 114.834,102.919 115.119 C 103.184 115.405,103.634 115.855,103.919 116.119 C 104.205 116.384,104.655 116.834,104.919 117.119 C 105.184 117.405,105.634 117.855,105.919 118.119 C 106.205 118.384,106.655 118.834,106.919 119.119 C 107.184 119.405,107.634 119.855,107.919 120.119 C 108.205 120.384,108.655 120.834,108.919 121.119 C 109.184 121.405,109.634 121.855,109.919 122.119 C 110.205 122.384,110.655 122.834,110.919 123.119 C 111.184 123.405,111.634 123.855,111.919 124.119 C 112.205 124.384,112.655 124.834,112.919 125.119 C 113.184 125.405,113.634 125.855,113.919 126.119 C 114.205 126.384,114.655 126.834,114.919 127.119 C 115.184 127.405,115.634 127.855,115.919 128.119 C 116.205 128.384,116.655 128.834,116.919 129.119 C 117.184 129.405,117.634 129.855,117.919 130.119 C 118.205 130.384,118.655 130.834,118.919 131.119 C 119.184 131.405,119.634 131.855,119.919 132.119 C 120.205 132.384,120.655 132.834,120.919 133.119 C 121.184 133.405,121.634 133.855,121.919 134.119 C 122.205 134.384,122.655 134.834,122.919 135.119 C 123.184 135.405,123.634 135.855,123.919 136.119 C 124.205 136.384,124.655 136.834,124.919 137.119 C 125.184 137.405,125.634 137.855,125.919 138.119 C 126.205 138.384,126.655 138.834,126.919 139.119 C 127.184 139.405,127.634 139.855,127.919 140.119 C 128.205 140.384,128.655 140.834,128.919 141.119 C 129.184 141.405,129.634 141.855,129.919 142.119 C 130.205 142.384,130.655 142.834,130.919 143.119 C 131.184 143.405,131.634 143.855,131.919 144.119 C 132.205 144.384,132.655 144.834,132.919 145.119 C 133.184 145.405,133.634 145.855,133.919 146.119 C 134.205 146.384,134.655 146.834,134.919 147.119 C 135.184 147.405,135.634 147.855,135.919 148.119 C 136.205 148.384,136.655 148.834,136.919 149.119 C 137.184 149.405,137.634 149.855,137.919 150.119 C 138.205 150.384,138.655 150.834,138.919 151.119 C 139.184 151.405,139.634 151.855,139.919 152.119 C 140.205 152.384,140.655 152.834,140.919 153.119 C 141.184 153.405,141.634 153.855,141.919 154.119 C 142.205 154.384,142.655 154.834,142.919 155.119 C 143.184 155.405,143.634 155.855,143.919 156.119 C 144.205 156.384,144.655 156.834,144.919 157.119 C 145.184 157.405,145.634 157.855,145.919 158.119 C 146.205 158.384,146.655 158.834,146.919 159.119 C 147.184 159.405,147.634 159.855,147.919 160.119 C 148.205 160.384,148.655 160.834,148.919 161.119 C 149.184 161.405,149.634 161.855,149.919 162.119 C 150.205 162.384,150.655 162.834,150.919 163.119 C 151.184 163.405,151.634 163.855,151.919 164.119 C 152.205 164.384,152.655 164.834,152.919 165.119 C 153.184 165.405,153.634 165.855,153.919 166.119 C 154.205 166.384,154.655 166.834,154.919 167.119 C 155.184 167.405,155.634 167.855,155.919 168.119 C 156.205 168.384,156.655 168.834,156.919 169.119 C 157.184 169.405,157.634 169.855,157.919 170.119 C 158.205 170.384,158.655 170.834,158.919 171.119 C 159.184 171.405,159.634 171.855,159.919 172.119 C 160.205 172.384,160.655 172.834,160.919 173.119 C 161.184 173.405,161.634 173.855,161.919 174.119 C 162.205 174.384,162.655 174.834,162.919 175.119 C 163.184 175.405,163.634 175.855,163.919 176.119 C 164.205 176.384,164.655 176.834,164.919 177.119 C 165.184 177.405,165.634 177.855,165.919 178.119 C 166.205 178.384,166.655 178.834,166.919 179.119 C 167.184 179.405,167.634 179.855,167.919 180.119 C 168.205 180.384,168.655 180.834,168.919 181.119 C 169.184 181.405,169.634 181.855,169.919 182.119 C 170.205 182.384,170.655 182.834,170.919 183.119 C 171.184 183.405,171.634 183.855,171.919 184.119 C 172.205 184.384,172.655 184.834,172.919 185.119 C 173.184 185.405,173.634 185.855,173.919 186.119 C 174.205 186.384,174.655 186.834,174.919 187.119 C 175.184 187.405,175.634 187.855,175.919 188.119 C 176.205 188.384,176.655 188.834,176.919 189.119 C 177.184 189.405,177.634 189.855,177.919 190.119 C 178.205 190.384,178.655 190.834,178.919 191.119 C 179.184 191.405,179.634 191.855,179.919 192.119 C 180.205 192.384,180.655 192.834,180.919 193.119 C 181.184 193.405,181.634 193.855,181.919 194.119 C 182.205 194.384,182.655 194.831,182.919 195.114 C 183.531 195.768,184.232 196.469,184.886 197.081 C 185.169 197.345,185.616 197.795,185.881 198.081 C 186.145 198.366,186.640 198.832,186.981 199.116 C 187.763 199.768,187.763 200.232,186.981 200.884 C 186.640 201.168,186.145 201.634,185.881 201.919 C 185.616 202.205,185.166 202.655,184.881 202.919 C 184.595 203.184,184.145 203.634,183.881 203.919 C 183.616 204.205,183.166 204.655,182.881 204.919 C 182.595 205.184,182.145 205.634,181.881 205.919 C 181.616 206.205,181.166 206.655,180.881 206.919 C 180.595 207.184,180.145 207.634,179.881 207.919 C 179.616 208.205,179.166 208.655,178.881 208.919 C 178.595 209.184,178.145 209.634,177.881 209.919 C 177.616 210.205,177.166 210.655,176.881 210.919 C 176.595 211.184,176.145 211.634,175.881 211.919 C 175.616 212.205,175.166 212.655,174.881 212.919 C 174.595 213.184,174.145 213.634,173.881 213.919 C 173.616 214.205,173.166 214.655,172.881 214.919 C 172.595 215.184,172.145 215.634,171.881 215.919 C 171.616 216.205,171.166 216.655,170.881 216.919 C 170.595 217.184,170.145 217.634,169.881 217.919 C 169.616 218.205,169.166 218.655,168.881 218.919 C 168.595 219.184,168.145 219.634,167.881 219.919 C 167.616 220.205,167.166 220.655,166.881 220.919 C 166.595 221.184,166.145 221.634,165.881 221.919 C 165.616 222.205,165.166 222.655,164.881 222.919 C 164.595 223.184,164.145 223.634,163.881 223.919 C 163.616 224.205,163.166 224.655,162.881 224.919 C 162.595 225.184,162.145 225.634,161.881 225.919 C 161.616 226.205,161.166 226.655,160.881 226.919 C 160.595 227.184,160.145 227.634,159.881 227.919 C 159.616 228.205,159.166 228.655,158.881 228.919 C 158.595 229.184,158.145 229.634,157.881 229.919 C 157.616 230.205,157.166 230.655,156.881 230.919 C 156.595 231.184,156.145 231.634,155.881 231.919 C 155.616 232.205,155.166 232.655,154.881 232.919 C 154.595 233.184,154.145 233.634,153.881 233.919 C 153.616 234.205,153.166 234.655,152.881 234.919 C 152.595 235.184,152.145 235.634,151.881 235.919 C 151.616 236.205,151.166 236.655,150.881 236.919 C 150.595 237.184,150.145 237.634,149.881 237.919 C 149.616 238.205,149.166 238.655,148.881 238.919 C 148.595 239.184,148.145 239.634,147.881 239.919 C 147.616 240.205,147.166 240.655,146.881 240.919 C 146.595 241.184,146.145 241.634,145.881 241.919 C 145.616 242.205,145.166 242.655,144.881 242.919 C 144.595 243.184,144.145 243.634,143.881 243.919 C 143.616 244.205,143.166 244.655,142.881 244.919 C 142.595 245.184,142.145 245.634,141.881 245.919 C 141.616 246.205,141.166 246.655,140.881 246.919 C 140.595 247.184,140.145 247.634,139.881 247.919 C 139.616 248.205,139.166 248.655,138.881 248.919 C 138.595 249.184,138.145 249.634,137.881 249.919 C 137.616 250.205,137.166 250.655,136.881 250.919 C 136.595 251.184,136.145 251.634,135.881 251.919 C 135.616 252.205,135.166 252.655,134.881 252.919 C 134.595 253.184,134.145 253.634,133.881 253.919 C 133.616 254.205,133.166 254.655,132.881 254.919 C 132.595 255.184,132.145 255.634,131.881 255.919 C 131.616 256.205,131.166 256.655,130.881 256.919 C 130.595 257.184,130.145 257.634,129.881 257.919 C 129.616 258.205,129.166 258.655,128.881 258.919 C 128.595 259.184,128.145 259.634,127.881 259.919 C 127.616 260.205,127.166 260.655,126.881 260.919 C 126.595 261.184,126.145 261.634,125.881 261.919 C 125.616 262.205,125.166 262.655,124.881 262.919 C 124.595 263.184,124.145 263.634,123.881 263.919 C 123.616 264.205,123.166 264.655,122.881 264.919 C 122.595 265.184,122.145 265.634,121.881 265.919 C 121.616 266.205,121.166 266.655,120.881 266.919 C 120.595 267.184,120.145 267.634,119.881 267.919 C 119.616 268.205,119.166 268.655,118.881 268.919 C 118.595 269.184,118.145 269.634,117.881 269.919 C 117.616 270.205,117.166 270.655,116.881 270.919 C 116.595 271.184,116.145 271.634,115.881 271.919 C 115.616 272.205,115.169 272.655,114.886 272.919 C 114.232 273.531,113.531 274.232,112.919 274.886 C 112.655 275.169,112.205 275.616,111.919 275.881 C 111.634 276.145,111.184 276.595,110.919 276.881 C 110.655 277.166,110.205 277.616,109.919 277.881 C 109.634 278.145,109.184 278.595,108.919 278.881 C 108.655 279.166,108.205 279.616,107.919 279.881 C 107.634 280.145,107.184 280.595,106.919 280.881 C 106.655 281.166,106.205 281.616,105.919 281.881 C 105.634 282.145,105.184 282.595,104.919 282.881 C 104.655 283.166,104.205 283.616,103.919 283.881 C 103.634 284.145,103.184 284.595,102.919 284.881 C 102.655 285.166,102.205 285.616,101.919 285.881 C 101.634 286.145,101.184 286.595,100.919 286.881 C 100.655 287.166,100.205 287.616,99.919 287.881 C 99.634 288.145,99.184 288.595,98.919 288.881 C 98.655 289.166,98.205 289.616,97.919 289.881 C 97.634 290.145,97.184 290.595,96.919 290.881 C 96.655 291.166,96.205 291.616,95.919 291.881 C 95.634 292.145,95.184 292.595,94.919 292.881 C 94.655 293.166,94.205 293.616,93.919 293.881 C 93.634 294.145,93.184 294.595,92.919 294.881 C 92.655 295.166,92.205 295.616,91.919 295.881 C 91.634 296.145,91.184 296.595,90.919 296.881 C 90.655 297.166,90.205 297.616,89.919 297.881 C 89.634 298.145,89.184 298.595,88.919 298.881 C 88.655 299.166,88.205 299.616,87.919 299.881 C 87.634 300.145,87.184 300.595,86.919 300.881 C 86.655 301.166,86.205 301.616,85.919 301.881 C 85.011 302.722,84.400 303.554,84.400 303.950 C 84.400 304.161,84.175 304.408,83.900 304.500 C 83.547 304.618,83.400 305.780,83.400 308.453 L 83.400 312.238 85.581 314.419 L 87.762 316.600 91.547 316.600 C 94.220 316.600,95.382 316.453,95.500 316.100 C 95.592 315.825,95.839 315.600,96.050 315.600 C 96.446 315.600,97.278 314.989,98.119 314.081 C 98.384 313.795,98.834 313.345,99.119 313.081 C 99.405 312.816,99.855 312.366,100.119 312.081 C 100.384 311.795,100.834 311.345,101.119 311.081 C 101.405 310.816,101.855 310.366,102.119 310.081 C 102.384 309.795,102.834 309.345,103.119 309.081 C 103.405 308.816,103.855 308.366,104.119 308.081 C 104.384 307.795,104.834 307.345,105.119 307.081 C 105.405 306.816,105.855 306.366,106.119 306.081 C 106.384 305.795,106.834 305.345,107.119 305.081 C 107.405 304.816,107.855 304.366,108.119 304.081 C 108.384 303.795,108.834 303.345,109.119 303.081 C 109.405 302.816,109.855 302.366,110.119 302.081 C 110.384 301.795,110.834 301.345,111.119 301.081 C 111.405 300.816,111.855 300.366,112.119 300.081 C 112.384 299.795,112.834 299.345,113.119 299.081 C 113.405 298.816,113.855 298.366,114.119 298.081 C 114.384 297.795,114.834 297.345,115.119 297.081 C 115.405 296.816,115.855 296.366,116.119 296.081 C 116.384 295.795,116.834 295.345,117.119 295.081 C 117.405 294.816,117.855 294.366,118.119 294.081 C 118.384 293.795,118.834 293.345,119.119 293.081 C 119.405 292.816,119.855 292.366,120.119 292.081 C 120.384 291.795,120.834 291.345,121.119 291.081 C 121.405 290.816,121.855 290.366,122.119 290.081 C 122.384 289.795,122.834 289.345,123.119 289.081 C 123.405 288.816,123.855 288.366,124.119 288.081 C 124.384 287.795,124.834 287.345,125.119 287.081 C 125.405 286.816,125.855 286.366,126.119 286.081 C 126.384 285.795,126.834 285.345,127.119 285.081 C 127.405 284.816,127.855 284.366,128.119 284.081 C 128.384 283.795,128.834 283.345,129.119 283.081 C 129.405 282.816,129.855 282.366,130.119 282.081 C 130.384 281.795,130.834 281.345,131.119 281.081 C 131.405 280.816,131.855 280.366,132.119 280.081 C 132.384 279.795,132.834 279.345,133.119 279.081 C 133.405 278.816,133.855 278.366,134.119 278.081 C 134.384 277.795,134.834 277.345,135.119 277.081 C 135.405 276.816,135.855 276.366,136.119 276.081 C 136.384 275.795,136.834 275.345,137.119 275.081 C 137.405 274.816,137.855 274.366,138.119 274.081 C 138.384 273.795,138.834 273.345,139.119 273.081 C 139.405 272.816,139.855 272.366,140.119 272.081 C 140.384 271.795,140.834 271.345,141.119 271.081 C 141.405 270.816,141.855 270.366,142.119 270.081 C 142.384 269.795,142.834 269.345,143.119 269.081 C 143.405 268.816,143.855 268.366,144.119 268.081 C 144.384 267.795,144.834 267.345,145.119 267.081 C 145.405 266.816,145.855 266.369,146.119 266.086 C 146.731 265.432,147.432 264.731,148.086 264.119 C 148.369 263.855,148.816 263.405,149.081 263.119 C 149.345 262.834,149.795 262.384,150.081 262.119 C 150.366 261.855,150.816 261.405,151.081 261.119 C 151.345 260.834,151.795 260.384,152.081 260.119 C 152.366 259.855,152.816 259.405,153.081 259.119 C 153.345 258.834,153.795 258.384,154.081 258.119 C 154.366 257.855,154.816 257.405,155.081 257.119 C 155.345 256.834,155.795 256.384,156.081 256.119 C 156.366 255.855,156.816 255.405,157.081 255.119 C 157.345 254.834,157.795 254.384,158.081 254.119 C 158.366 253.855,158.816 253.405,159.081 253.119 C 159.345 252.834,159.795 252.384,160.081 252.119 C 160.366 251.855,160.816 251.405,161.081 251.119 C 161.345 250.834,161.795 250.384,162.081 250.119 C 162.366 249.855,162.816 249.405,163.081 249.119 C 163.345 248.834,163.795 248.384,164.081 248.119 C 164.366 247.855,164.816 247.405,165.081 247.119 C 165.345 246.834,165.795 246.384,166.081 246.119 C 166.366 245.855,166.816 245.405,167.081 245.119 C 167.345 244.834,167.795 244.384,168.081 244.119 C 168.366 243.855,168.816 243.405,169.081 243.119 C 169.345 242.834,169.795 242.384,170.081 242.119 C 170.366 241.855,170.816 241.405,171.081 241.119 C 171.345 240.834,171.795 240.384,172.081 240.119 C 172.366 239.855,172.816 239.405,173.081 239.119 C 173.345 238.834,173.795 238.384,174.081 238.119 C 174.366 237.855,174.816 237.405,175.081 237.119 C 175.345 236.834,175.795 236.384,176.081 236.119 C 176.366 235.855,176.816 235.405,177.081 235.119 C 177.345 234.834,177.795 234.384,178.081 234.119 C 178.366 233.855,178.816 233.405,179.081 233.119 C 179.345 232.834,179.795 232.384,180.081 232.119 C 180.366 231.855,180.816 231.405,181.081 231.119 C 181.345 230.834,181.795 230.384,182.081 230.119 C 182.366 229.855,182.816 229.405,183.081 229.119 C 183.345 228.834,183.795 228.384,184.081 228.119 C 184.366 227.855,184.816 227.405,185.081 227.119 C 185.345 226.834,185.795 226.384,186.081 226.119 C 186.366 225.855,186.816 225.405,187.081 225.119 C 187.345 224.834,187.795 224.384,188.081 224.119 C 188.366 223.855,188.816 223.405,189.081 223.119 C 189.345 222.834,189.795 222.384,190.081 222.119 C 190.366 221.855,190.816 221.405,191.081 221.119 C 191.345 220.834,191.795 220.384,192.081 220.119 C 192.366 219.855,192.816 219.405,193.081 219.119 C 193.345 218.834,193.795 218.384,194.081 218.119 C 194.366 217.855,194.816 217.405,195.081 217.119 C 195.345 216.834,195.795 216.384,196.081 216.119 C 196.366 215.855,196.816 215.405,197.081 215.119 C 197.345 214.834,197.795 214.384,198.081 214.119 C 198.366 213.855,198.832 213.360,199.116 213.019 C 199.399 212.679,199.797 212.400,200.000 212.400 C 200.203 212.400,200.601 212.679,200.884 213.019 C 201.168 213.360,201.634 213.855,201.919 214.119 C 202.205 214.384,202.655 214.834,202.919 215.119 C 203.184 215.405,203.634 215.855,203.919 216.119 C 204.205 216.384,204.655 216.834,204.919 217.119 C 205.184 217.405,205.634 217.855,205.919 218.119 C 206.205 218.384,206.655 218.834,206.919 219.119 C 207.184 219.405,207.634 219.855,207.919 220.119 C 208.205 220.384,208.655 220.834,208.919 221.119 C 209.184 221.405,209.634 221.855,209.919 222.119 C 210.205 222.384,210.655 222.834,210.919 223.119 C 211.184 223.405,211.634 223.855,211.919 224.119 C 212.205 224.384,212.655 224.834,212.919 225.119 C 213.184 225.405,213.634 225.855,213.919 226.119 C 214.205 226.384,214.655 226.834,214.919 227.119 C 215.184 227.405,215.634 227.855,215.919 228.119 C 216.205 228.384,216.655 228.834,216.919 229.119 C 217.184 229.405,217.634 229.855,217.919 230.119 C 218.205 230.384,218.655 230.834,218.919 231.119 C 219.184 231.405,219.634 231.855,219.919 232.119 C 220.205 232.384,220.655 232.834,220.919 233.119 C 221.184 233.405,221.634 233.855,221.919 234.119 C 222.205 234.384,222.655 234.834,222.919 235.119 C 223.184 235.405,223.634 235.855,223.919 236.119 C 224.205 236.384,224.655 236.834,224.919 237.119 C 225.184 237.405,225.634 237.855,225.919 238.119 C 226.205 238.384,226.655 238.834,226.919 239.119 C 227.184 239.405,227.634 239.855,227.919 240.119 C 228.205 240.384,228.655 240.834,228.919 241.119 C 229.184 241.405,229.634 241.855,229.919 242.119 C 230.205 242.384,230.655 242.834,230.919 243.119 C 231.184 243.405,231.634 243.855,231.919 244.119 C 232.205 244.384,232.655 244.834,232.919 245.119 C 233.184 245.405,233.631 245.855,233.914 246.119 C 234.197 246.384,234.647 246.819,234.914 247.086 C 235.181 247.353,235.616 247.803,235.881 248.086 C 236.145 248.369,236.595 248.816,236.881 249.081 C 237.166 249.345,237.616 249.795,237.881 250.081 C 238.145 250.366,238.595 250.816,238.881 251.081 C 239.166 251.345,239.616 251.795,239.881 252.081 C 240.145 252.366,240.595 252.816,240.881 253.081 C 241.166 253.345,241.616 253.795,241.881 254.081 C 242.145 254.366,242.595 254.816,242.881 255.081 C 243.166 255.345,243.616 255.795,243.881 256.081 C 244.145 256.366,244.595 256.816,244.881 257.081 C 245.166 257.345,245.616 257.795,245.881 258.081 C 246.145 258.366,246.595 258.816,246.881 259.081 C 247.166 259.345,247.616 259.795,247.881 260.081 C 248.145 260.366,248.595 260.816,248.881 261.081 C 249.166 261.345,249.616 261.795,249.881 262.081 C 250.145 262.366,250.595 262.816,250.881 263.081 C 251.166 263.345,251.616 263.795,251.881 264.081 C 252.145 264.366,252.595 264.816,252.881 265.081 C 253.166 265.345,253.616 265.795,253.881 266.081 C 254.145 266.366,254.595 266.816,254.881 267.081 C 255.166 267.345,255.616 267.795,255.881 268.081 C 256.145 268.366,256.595 268.816,256.881 269.081 C 257.166 269.345,257.616 269.795,257.881 270.081 C 258.145 270.366,258.595 270.816,258.881 271.081 C 259.166 271.345,259.616 271.795,259.881 272.081 C 260.145 272.366,260.595 272.816,260.881 273.081 C 261.166 273.345,261.616 273.795,261.881 274.081 C 262.145 274.366,262.595 274.816,262.881 275.081 C 263.166 275.345,263.616 275.795,263.881 276.081 C 264.145 276.366,264.595 276.816,264.881 277.081 C 265.166 277.345,265.616 277.795,265.881 278.081 C 266.145 278.366,266.595 278.816,266.881 279.081 C 267.166 279.345,267.616 279.795,267.881 280.081 C 268.145 280.366,268.595 280.816,268.881 281.081 C 269.166 281.345,269.616 281.795,269.881 282.081 C 270.145 282.366,270.595 282.816,270.881 283.081 C 271.166 283.345,271.616 283.795,271.881 284.081 C 272.145 284.366,272.595 284.816,272.881 285.081 C 273.166 285.345,273.616 285.795,273.881 286.081 C 274.145 286.366,274.595 286.816,274.881 287.081 C 275.166 287.345,275.616 287.795,275.881 288.081 C 276.145 288.366,276.595 288.816,276.881 289.081 C 277.166 289.345,277.616 289.795,277.881 290.081 C 278.145 290.366,278.595 290.816,278.881 291.081 C 279.166 291.345,279.616 291.795,279.881 292.081 C 280.145 292.366,280.595 292.816,280.881 293.081 C 281.166 293.345,281.616 293.795,281.881 294.081 C 282.145 294.366,282.595 294.816,282.881 295.081 C 283.166 295.345,283.616 295.795,283.881 296.081 C 284.145 296.366,284.595 296.816,284.881 297.081 C 285.166 297.345,285.616 297.795,285.881 298.081 C 286.145 298.366,286.595 298.816,286.881 299.081 C 287.166 299.345,287.616 299.795,287.881 300.081 C 288.145 300.366,288.595 300.816,288.881 301.081 C 289.166 301.345,289.616 301.795,289.881 302.081 C 290.145 302.366,290.595 302.816,290.881 303.081 C 291.166 303.345,291.616 303.795,291.881 304.081 C 292.145 304.366,292.595 304.816,292.881 305.081 C 293.166 305.345,293.616 305.795,293.881 306.081 C 294.145 306.366,294.595 306.816,294.881 307.081 C 295.166 307.345,295.616 307.795,295.881 308.081 C 296.145 308.366,296.595 308.816,296.881 309.081 C 297.166 309.345,297.616 309.795,297.881 310.081 C 298.145 310.366,298.595 310.816,298.881 311.081 C 299.166 311.345,299.616 311.795,299.881 312.081 C 300.145 312.366,300.595 312.816,300.881 313.081 C 301.166 313.345,301.616 313.795,301.881 314.081 C 302.722 314.989,303.554 315.600,303.950 315.600 C 304.161 315.600,304.408 315.825,304.500 316.100 C 304.618 316.453,305.780 316.600,308.453 316.600 L 312.238 316.600 314.419 314.419 L 316.600 312.238 316.600 308.453 C 316.600 305.780,316.453 304.618,316.100 304.500 C 315.825 304.408,315.600 304.161,315.600 303.950 C 315.600 303.554,314.989 302.722,314.081 301.881 C 313.795 301.616,313.345 301.166,313.081 300.881 C 312.816 300.595,312.366 300.145,312.081 299.881 C 311.795 299.616,311.345 299.166,311.081 298.881 C 310.816 298.595,310.366 298.145,310.081 297.881 C 309.795 297.616,309.345 297.166,309.081 296.881 C 308.816 296.595,308.366 296.145,308.081 295.881 C 307.795 295.616,307.345 295.166,307.081 294.881 C 306.816 294.595,306.366 294.145,306.081 293.881 C 305.795 293.616,305.345 293.166,305.081 292.881 C 304.816 292.595,304.366 292.145,304.081 291.881 C 303.795 291.616,303.345 291.166,303.081 290.881 C 302.816 290.595,302.366 290.145,302.081 289.881 C 301.795 289.616,301.345 289.166,301.081 288.881 C 300.816 288.595,300.366 288.145,300.081 287.881 C 299.795 287.616,299.345 287.166,299.081 286.881 C 298.816 286.595,298.366 286.145,298.081 285.881 C 297.795 285.616,297.345 285.166,297.081 284.881 C 296.816 284.595,296.366 284.145,296.081 283.881 C 295.795 283.616,295.345 283.166,295.081 282.881 C 294.816 282.595,294.366 282.145,294.081 281.881 C 293.795 281.616,293.345 281.166,293.081 280.881 C 292.816 280.595,292.366 280.145,292.081 279.881 C 291.795 279.616,291.345 279.166,291.081 278.881 C 290.816 278.595,290.366 278.145,290.081 277.881 C 289.795 277.616,289.345 277.166,289.081 276.881 C 288.816 276.595,288.366 276.145,288.081 275.881 C 287.795 275.616,287.345 275.166,287.081 274.881 C 286.816 274.595,286.366 274.145,286.081 273.881 C 285.795 273.616,285.345 273.166,285.081 272.881 C 284.816 272.595,284.366 272.145,284.081 271.881 C 283.795 271.616,283.345 271.166,283.081 270.881 C 282.816 270.595,282.366 270.145,282.081 269.881 C 281.795 269.616,281.345 269.166,281.081 268.881 C 280.816 268.595,280.366 268.145,280.081 267.881 C 279.795 267.616,279.345 267.166,279.081 266.881 C 278.816 266.595,278.366 266.145,278.081 265.881 C 277.795 265.616,277.345 265.166,277.081 264.881 C 276.816 264.595,276.366 264.145,276.081 263.881 C 275.795 263.616,275.345 263.169,275.081 262.886 C 274.816 262.603,274.381 262.153,274.114 261.886 C 273.847 261.619,273.397 261.184,273.114 260.919 C 272.831 260.655,272.384 260.205,272.119 259.919 C 271.855 259.634,271.405 259.184,271.119 258.919 C 270.834 258.655,270.384 258.205,270.119 257.919 C 269.855 257.634,269.405 257.184,269.119 256.919 C 268.834 256.655,268.384 256.205,268.119 255.919 C 267.855 255.634,267.405 255.184,267.119 254.919 C 266.834 254.655,266.384 254.205,266.119 253.919 C 265.855 253.634,265.405 253.184,265.119 252.919 C 264.834 252.655,264.384 252.205,264.119 251.919 C 263.855 251.634,263.405 251.184,263.119 250.919 C 262.834 250.655,262.384 250.205,262.119 249.919 C 261.855 249.634,261.405 249.184,261.119 248.919 C 260.834 248.655,260.384 248.205,260.119 247.919 C 259.855 247.634,259.405 247.184,259.119 246.919 C 258.834 246.655,258.384 246.205,258.119 245.919 C 257.855 245.634,257.405 245.184,257.119 244.919 C 256.834 244.655,256.384 244.205,256.119 243.919 C 255.855 243.634,255.405 243.184,255.119 242.919 C 254.834 242.655,254.384 242.205,254.119 241.919 C 253.855 241.634,253.405 241.184,253.119 240.919 C 252.834 240.655,252.384 240.205,252.119 239.919 C 251.855 239.634,251.405 239.184,251.119 238.919 C 250.834 238.655,250.384 238.205,250.119 237.919 C 249.855 237.634,249.405 237.184,249.119 236.919 C 248.834 236.655,248.384 236.205,248.119 235.919 C 247.855 235.634,247.405 235.184,247.119 234.919 C 246.834 234.655,246.384 234.205,246.119 233.919 C 245.855 233.634,245.405 233.184,245.119 232.919 C 244.834 232.655,244.384 232.205,244.119 231.919 C 243.855 231.634,243.405 231.184,243.119 230.919 C 242.834 230.655,242.384 230.205,242.119 229.919 C 241.855 229.634,241.405 229.184,241.119 228.919 C 240.834 228.655,240.384 228.205,240.119 227.919 C 239.855 227.634,239.405 227.184,239.119 226.919 C 238.834 226.655,238.384 226.205,238.119 225.919 C 237.855 225.634,237.405 225.184,237.119 224.919 C 236.834 224.655,236.384 224.205,236.119 223.919 C 235.855 223.634,235.405 223.184,235.119 222.919 C 234.834 222.655,234.384 222.205,234.119 221.919 C 233.855 221.634,233.405 221.184,233.119 220.919 C 232.834 220.655,232.384 220.205,232.119 219.919 C 231.855 219.634,231.405 219.184,231.119 218.919 C 230.834 218.655,230.384 218.205,230.119 217.919 C 229.855 217.634,229.405 217.184,229.119 216.919 C 228.834 216.655,228.384 216.205,228.119 215.919 C 227.855 215.634,227.405 215.184,227.119 214.919 C 226.834 214.655,226.384 214.205,226.119 213.919 C 225.855 213.634,225.405 213.184,225.119 212.919 C 224.834 212.655,224.384 212.205,224.119 211.919 C 223.855 211.634,223.405 211.184,223.119 210.919 C 222.834 210.655,222.384 210.205,222.119 209.919 C 221.855 209.634,221.405 209.184,221.119 208.919 C 220.834 208.655,220.384 208.205,220.119 207.919 C 219.855 207.634,219.405 207.184,219.119 206.919 C 218.834 206.655,218.384 206.205,218.119 205.919 C 217.855 205.634,217.405 205.184,217.119 204.919 C 216.834 204.655,216.384 204.205,216.119 203.919 C 215.855 203.634,215.405 203.184,215.119 202.919 C 214.834 202.655,214.384 202.205,214.119 201.919 C 213.855 201.634,213.360 201.168,213.019 200.884 C 212.237 200.232,212.237 199.768,213.019 199.116 C 213.360 198.832,213.855 198.366,214.119 198.081 C 214.384 197.795,214.834 197.345,215.119 197.081 C 215.405 196.816,215.855 196.366,216.119 196.081 C 216.384 195.795,216.834 195.345,217.119 195.081 C 217.405 194.816,217.855 194.366,218.119 194.081 C 218.384 193.795,218.834 193.345,219.119 193.081 C 219.405 192.816,219.855 192.366,220.119 192.081 C 220.384 191.795,220.834 191.345,221.119 191.081 C 221.405 190.816,221.855 190.366,222.119 190.081 C 222.384 189.795,222.834 189.345,223.119 189.081 C 223.405 188.816,223.855 188.366,224.119 188.081 C 224.384 187.795,224.834 187.345,225.119 187.081 C 225.405 186.816,225.855 186.366,226.119 186.081 C 226.384 185.795,226.834 185.345,227.119 185.081 C 227.405 184.816,227.855 184.366,228.119 184.081 C 228.384 183.795,228.834 183.345,229.119 183.081 C 229.405 182.816,229.855 182.366,230.119 182.081 C 230.384 181.795,230.834 181.345,231.119 181.081 C 231.405 180.816,231.855 180.366,232.119 180.081 C 232.384 179.795,232.834 179.345,233.119 179.081 C 233.405 178.816,233.855 178.366,234.119 178.081 C 234.384 177.795,234.834 177.345,235.119 177.081 C 235.405 176.816,235.855 176.366,236.119 176.081 C 236.384 175.795,236.834 175.345,237.119 175.081 C 237.405 174.816,237.855 174.366,238.119 174.081 C 238.384 173.795,238.834 173.345,239.119 173.081 C 239.405 172.816,239.855 172.366,240.119 172.081 C 240.384 171.795,240.834 171.345,241.119 171.081 C 241.405 170.816,241.855 170.366,242.119 170.081 C 242.384 169.795,242.834 169.345,243.119 169.081 C 243.405 168.816,243.855 168.366,244.119 168.081 C 244.384 167.795,244.834 167.345,245.119 167.081 C 245.405 166.816,245.855 166.366,246.119 166.081 C 246.384 165.795,246.834 165.345,247.119 165.081 C 247.405 164.816,247.855 164.366,248.119 164.081 C 248.384 163.795,248.834 163.345,249.119 163.081 C 249.405 162.816,249.855 162.366,250.119 162.081 C 250.384 161.795,250.834 161.345,251.119 161.081 C 251.405 160.816,251.855 160.366,252.119 160.081 C 252.384 159.795,252.834 159.345,253.119 159.081 C 253.405 158.816,253.855 158.366,254.119 158.081 C 254.384 157.795,254.834 157.345,255.119 157.081 C 255.405 156.816,255.855 156.369,256.119 156.086 C 256.731 155.432,257.432 154.731,258.086 154.119 C 258.369 153.855,258.816 153.405,259.081 153.119 C 259.345 152.834,259.795 152.384,260.081 152.119 C 260.366 151.855,260.816 151.405,261.081 151.119 C 261.345 150.834,261.795 150.384,262.081 150.119 C 262.366 149.855,262.816 149.405,263.081 149.119 C 263.345 148.834,263.795 148.384,264.081 148.119 C 264.366 147.855,264.816 147.405,265.081 147.119 C 265.345 146.834,265.795 146.384,266.081 146.119 C 266.366 145.855,266.816 145.405,267.081 145.119 C 267.345 144.834,267.795 144.384,268.081 144.119 C 268.366 143.855,268.816 143.405,269.081 143.119 C 269.345 142.834,269.795 142.384,270.081 142.119 C 270.366 141.855,270.816 141.405,271.081 141.119 C 271.345 140.834,271.795 140.384,272.081 140.119 C 272.366 139.855,272.816 139.405,273.081 139.119 C 273.345 138.834,273.795 138.384,274.081 138.119 C 274.366 137.855,274.816 137.405,275.081 137.119 C 275.345 136.834,275.795 136.384,276.081 136.119 C 276.366 135.855,276.816 135.405,277.081 135.119 C 277.345 134.834,277.795 134.384,278.081 134.119 C 278.366 133.855,278.816 133.405,279.081 133.119 C 279.345 132.834,279.795 132.384,280.081 132.119 C 280.366 131.855,280.816 131.405,281.081 131.119 C 281.345 130.834,281.795 130.384,282.081 130.119 C 282.366 129.855,282.816 129.405,283.081 129.119 C 283.345 128.834,283.795 128.384,284.081 128.119 C 284.366 127.855,284.816 127.405,285.081 127.119 C 285.345 126.834,285.795 126.384,286.081 126.119 C 286.366 125.855,286.816 125.405,287.081 125.119 C 287.345 124.834,287.795 124.384,288.081 124.119 C 288.366 123.855,288.816 123.405,289.081 123.119 C 289.345 122.834,289.795 122.384,290.081 122.119 C 290.366 121.855,290.816 121.405,291.081 121.119 C 291.345 120.834,291.795 120.384,292.081 120.119 C 292.366 119.855,292.816 119.405,293.081 119.119 C 293.345 118.834,293.795 118.384,294.081 118.119 C 294.366 117.855,294.816 117.405,295.081 117.119 C 295.345 116.834,295.795 116.384,296.081 116.119 C 296.366 115.855,296.816 115.405,297.081 115.119 C 297.345 114.834,297.795 114.384,298.081 114.119 C 298.366 113.855,298.816 113.405,299.081 113.119 C 299.345 112.834,299.795 112.384,300.081 112.119 C 300.366 111.855,300.816 111.405,301.081 111.119 C 301.345 110.834,301.795 110.384,302.081 110.119 C 302.366 109.855,302.816 109.405,303.081 109.119 C 303.345 108.834,303.795 108.384,304.081 108.119 C 304.366 107.855,304.816 107.405,305.081 107.119 C 305.345 106.834,305.795 106.384,306.081 106.119 C 306.366 105.855,306.816 105.405,307.081 105.119 C 307.345 104.834,307.795 104.384,308.081 104.119 C 308.366 103.855,308.816 103.405,309.081 103.119 C 309.345 102.834,309.795 102.384,310.081 102.119 C 310.366 101.855,310.816 101.405,311.081 101.119 C 311.345 100.834,311.795 100.384,312.081 100.119 C 312.366 99.855,312.816 99.405,313.081 99.119 C 313.345 98.834,313.795 98.384,314.081 98.119 C 314.989 97.278,315.600 96.446,315.600 96.050 C 315.600 95.839,315.825 95.592,316.100 95.500 C 316.453 95.382,316.600 94.220,316.600 91.547 L 316.600 87.762 314.419 85.581 L 312.238 83.400 308.453 83.400 C 305.780 83.400,304.618 83.547,304.500 83.900 C 304.408 84.175,304.161 84.400,303.950 84.400 C 303.554 84.400,302.722 85.011,301.881 85.919 C 301.616 86.205,301.166 86.655,300.881 86.919 C 300.595 87.184,300.145 87.634,299.881 87.919 C 299.616 88.205,299.166 88.655,298.881 88.919 C 298.595 89.184,298.145 89.634,297.881 89.919 C 297.616 90.205,297.166 90.655,296.881 90.919 C 296.595 91.184,296.145 91.634,295.881 91.919 C 295.616 92.205,295.166 92.655,294.881 92.919 C 294.595 93.184,294.145 93.634,293.881 93.919 C 293.616 94.205,293.166 94.655,292.881 94.919 C 292.595 95.184,292.145 95.634,291.881 95.919 C 291.616 96.205,291.166 96.655,290.881 96.919 C 290.595 97.184,290.145 97.634,289.881 97.919 C 289.616 98.205,289.166 98.655,288.881 98.919 C 288.595 99.184,288.145 99.634,287.881 99.919 C 287.616 100.205,287.169 100.655,286.886 100.919 C 286.232 101.531,285.531 102.232,284.919 102.886 C 284.655 103.169,284.205 103.616,283.919 103.881 C 283.634 104.145,283.184 104.595,282.919 104.881 C 282.655 105.166,282.205 105.616,281.919 105.881 C 281.634 106.145,281.184 106.595,280.919 106.881 C 280.655 107.166,280.205 107.616,279.919 107.881 C 279.634 108.145,279.184 108.595,278.919 108.881 C 278.655 109.166,278.205 109.616,277.919 109.881 C 277.634 110.145,277.184 110.595,276.919 110.881 C 276.655 111.166,276.205 111.616,275.919 111.881 C 275.634 112.145,275.184 112.595,274.919 112.881 C 274.655 113.166,274.205 113.616,273.919 113.881 C 273.634 114.145,273.184 114.595,272.919 114.881 C 272.655 115.166,272.205 115.616,271.919 115.881 C 271.634 116.145,271.184 116.595,270.919 116.881 C 270.655 117.166,270.205 117.616,269.919 117.881 C 269.634 118.145,269.184 118.595,268.919 118.881 C 268.655 119.166,268.205 119.616,267.919 119.881 C 267.634 120.145,267.184 120.595,266.919 120.881 C 266.655 121.166,266.205 121.616,265.919 121.881 C 265.634 122.145,265.184 122.595,264.919 122.881 C 264.655 123.166,264.205 123.616,263.919 123.881 C 263.634 124.145,263.184 124.595,262.919 124.881 C 262.655 125.166,262.205 125.616,261.919 125.881 C 261.634 126.145,261.184 126.595,260.919 126.881 C 260.655 127.166,260.205 127.616,259.919 127.881 C 259.634 128.145,259.184 128.595,258.919 128.881 C 258.655 129.166,258.205 129.616,257.919 129.881 C 257.634 130.145,257.184 130.595,256.919 130.881 C 256.655 131.166,256.205 131.616,255.919 131.881 C 255.634 132.145,255.184 132.595,254.919 132.881 C 254.655 133.166,254.205 133.616,253.919 133.881 C 253.634 134.145,253.184 134.595,252.919 134.881 C 252.655 135.166,252.205 135.616,251.919 135.881 C 251.634 136.145,251.184 136.595,250.919 136.881 C 250.655 137.166,250.205 137.616,249.919 137.881 C 249.634 138.145,249.184 138.595,248.919 138.881 C 248.655 139.166,248.205 139.616,247.919 139.881 C 247.634 140.145,247.184 140.595,246.919 140.881 C 246.655 141.166,246.205 141.616,245.919 141.881 C 245.634 142.145,245.184 142.595,244.919 142.881 C 244.655 143.166,244.205 143.616,243.919 143.881 C 243.634 144.145,243.184 144.595,242.919 144.881 C 242.655 145.166,242.205 145.616,241.919 145.881 C 241.634 146.145,241.184 146.595,240.919 146.881 C 240.655 147.166,240.205 147.616,239.919 147.881 C 239.634 148.145,239.184 148.595,238.919 148.881 C 238.655 149.166,238.205 149.616,237.919 149.881 C 237.634 150.145,237.184 150.595,236.919 150.881 C 236.655 151.166,236.205 151.616,235.919 151.881 C 235.634 152.145,235.184 152.595,234.919 152.881 C 234.655 153.166,234.205 153.616,233.919 153.881 C 233.634 154.145,233.184 154.595,232.919 154.881 C 232.655 155.166,232.205 155.616,231.919 155.881 C 231.634 156.145,231.184 156.595,230.919 156.881 C 230.655 157.166,230.205 157.616,229.919 157.881 C 229.634 158.145,229.184 158.595,228.919 158.881 C 228.655 159.166,228.205 159.616,227.919 159.881 C 227.634 160.145,227.184 160.595,226.919 160.881 C 226.655 161.166,226.205 161.616,225.919 161.881 C 225.634 162.145,225.184 162.595,224.919 162.881 C 224.655 163.166,224.205 163.616,223.919 163.881 C 223.634 164.145,223.184 164.595,222.919 164.881 C 222.655 165.166,222.205 165.616,221.919 165.881 C 221.634 166.145,221.184 166.595,220.919 166.881 C 220.655 167.166,220.205 167.616,219.919 167.881 C 219.634 168.145,219.184 168.595,218.919 168.881 C 218.655 169.166,218.205 169.616,217.919 169.881 C 217.634 170.145,217.184 170.595,216.919 170.881 C 216.655 171.166,216.205 171.616,215.919 171.881 C 215.634 172.145,215.184 172.595,214.919 172.881 C 214.655 173.166,214.205 173.616,213.919 173.881 C 213.634 174.145,213.184 174.595,212.919 174.881 C 212.655 175.166,212.205 175.616,211.919 175.881 C 211.634 176.145,211.184 176.595,210.919 176.881 C 210.655 177.166,210.205 177.616,209.919 177.881 C 209.634 178.145,209.184 178.595,208.919 178.881 C 208.655 179.166,208.205 179.616,207.919 179.881 C 207.634 180.145,207.184 180.595,206.919 180.881 C 206.655 181.166,206.205 181.616,205.919 181.881 C 205.634 182.145,205.184 182.595,204.919 182.881 C 204.655 183.166,204.205 183.616,203.919 183.881 C 203.634 184.145,203.184 184.595,202.919 184.881 C 202.655 185.166,202.205 185.616,201.919 185.881 C 201.634 186.145,201.168 186.640,200.884 186.981 C 200.232 187.763,199.768 187.763,199.116 186.981 C 198.832 186.640,198.366 186.145,198.081 185.881 C 197.795 185.616,197.345 185.166,197.081 184.881 C 196.816 184.595,196.366 184.145,196.081 183.881 C 195.795 183.616,195.345 183.166,195.081 182.881 C 194.816 182.595,194.366 182.145,194.081 181.881 C 193.795 181.616,193.345 181.166,193.081 180.881 C 192.816 180.595,192.366 180.145,192.081 179.881 C 191.795 179.616,191.345 179.166,191.081 178.881 C 190.816 178.595,190.366 178.145,190.081 177.881 C 189.795 177.616,189.345 177.166,189.081 176.881 C 188.816 176.595,188.366 176.145,188.081 175.881 C 187.795 175.616,187.345 175.166,187.081 174.881 C 186.816 174.595,186.366 174.145,186.081 173.881 C 185.795 173.616,185.345 173.166,185.081 172.881 C 184.816 172.595,184.366 172.145,184.081 171.881 C 183.795 171.616,183.345 171.166,183.081 170.881 C 182.816 170.595,182.366 170.145,182.081 169.881 C 181.795 169.616,181.345 169.166,181.081 168.881 C 180.816 168.595,180.366 168.145,180.081 167.881 C 179.795 167.616,179.345 167.166,179.081 166.881 C 178.816 166.595,178.366 166.145,178.081 165.881 C 177.795 165.616,177.345 165.166,177.081 164.881 C 176.816 164.595,176.366 164.145,176.081 163.881 C 175.795 163.616,175.345 163.166,175.081 162.881 C 174.816 162.595,174.366 162.145,174.081 161.881 C 173.795 161.616,173.345 161.166,173.081 160.881 C 172.816 160.595,172.366 160.145,172.081 159.881 C 171.795 159.616,171.345 159.166,171.081 158.881 C 170.816 158.595,170.366 158.145,170.081 157.881 C 169.795 157.616,169.345 157.166,169.081 156.881 C 168.816 156.595,168.366 156.145,168.081 155.881 C 167.795 155.616,167.345 155.166,167.081 154.881 C 166.816 154.595,166.366 154.145,166.081 153.881 C 165.795 153.616,165.345 153.166,165.081 152.881 C 164.816 152.595,164.366 152.145,164.081 151.881 C 163.795 151.616,163.345 151.166,163.081 150.881 C 162.816 150.595,162.369 150.145,162.086 149.881 C 161.803 149.616,161.353 149.181,161.086 148.914 C 160.819 148.647,160.384 148.197,160.119 147.914 C 159.855 147.631,159.405 147.184,159.119 146.919 C 158.834 146.655,158.384 146.205,158.119 145.919 C 157.855 145.634,157.405 145.184,157.119 144.919 C 156.834 144.655,156.384 144.205,156.119 143.919 C 155.855 143.634,155.405 143.184,155.119 142.919 C 154.834 142.655,154.384 142.205,154.119 141.919 C 153.855 141.634,153.405 141.184,153.119 140.919 C 152.834 140.655,152.384 140.205,152.119 139.919 C 151.855 139.634,151.405 139.184,151.119 138.919 C 150.834 138.655,150.384 138.205,150.119 137.919 C 149.855 137.634,149.405 137.184,149.119 136.919 C 148.834 136.655,148.384 136.205,148.119 135.919 C 147.855 135.634,147.405 135.184,147.119 134.919 C 146.834 134.655,146.384 134.205,146.119 133.919 C 145.855 133.634,145.405 133.184,145.119 132.919 C 144.834 132.655,144.384 132.205,144.119 131.919 C 143.855 131.634,143.405 131.184,143.119 130.919 C 142.834 130.655,142.384 130.205,142.119 129.919 C 141.855 129.634,141.405 129.184,141.119 128.919 C 140.834 128.655,140.384 128.205,140.119 127.919 C 139.855 127.634,139.405 127.184,139.119 126.919 C 138.834 126.655,138.384 126.205,138.119 125.919 C 137.855 125.634,137.405 125.184,137.119 124.919 C 136.834 124.655,136.384 124.205,136.119 123.919 C 135.855 123.634,135.405 123.184,135.119 122.919 C 134.834 122.655,134.384 122.205,134.119 121.919 C 133.855 121.634,133.405 121.184,133.119 120.919 C 132.834 120.655,132.384 120.205,132.119 119.919 C 131.855 119.634,131.405 119.184,131.119 118.919 C 130.834 118.655,130.384 118.205,130.119 117.919 C 129.855 117.634,129.405 117.184,129.119 116.919 C 128.834 116.655,128.384 116.205,128.119 115.919 C 127.855 115.634,127.405 115.184,127.119 114.919 C 126.834 114.655,126.384 114.205,126.119 113.919 C 125.855 113.634,125.405 113.184,125.119 112.919 C 124.834 112.655,124.384 112.205,124.119 111.919 C 123.855 111.634,123.405 111.184,123.119 110.919 C 122.834 110.655,122.384 110.205,122.119 109.919 C 121.855 109.634,121.405 109.184,121.119 108.919 C 120.834 108.655,120.384 108.205,120.119 107.919 C 119.855 107.634,119.405 107.184,119.119 106.919 C 118.834 106.655,118.384 106.205,118.119 105.919 C 117.855 105.634,117.405 105.184,117.119 104.919 C 116.834 104.655,116.384 104.205,116.119 103.919 C 115.855 103.634,115.405 103.184,115.119 102.919 C 114.834 102.655,114.384 102.205,114.119 101.919 C 113.855 101.634,113.405 101.184,113.119 100.919 C 112.834 100.655,112.384 100.205,112.119 99.919 C 111.855 99.634,111.405 99.184,111.119 98.919 C 110.834 98.655,110.384 98.205,110.119 97.919 C 109.855 97.634,109.405 97.184,109.119 96.919 C 108.834 96.655,108.384 96.205,108.119 95.919 C 107.855 95.634,107.405 95.184,107.119 94.919 C 106.834 94.655,106.384 94.205,106.119 93.919 C 105.855 93.634,105.405 93.184,105.119 92.919 C 104.834 92.655,104.384 92.205,104.119 91.919 C 103.855 91.634,103.405 91.184,103.119 90.919 C 102.834 90.655,102.384 90.205,102.119 89.919 C 101.855 89.634,101.405 89.184,101.119 88.919 C 100.834 88.655,100.384 88.205,100.119 87.919 C 99.855 87.634,99.405 87.184,99.119 86.919 C 98.834 86.655,98.384 86.205,98.119 85.919 C 97.278 85.011,96.446 84.400,96.050 84.400 C 95.839 84.400,95.598 84.195,95.515 83.945 C 95.354 83.463,90.124 83.108,88.446 83.466 " stroke="none" fill="#0c1c2c" fill-rule="evenodd"></path><path id="path1" d="" stroke="none" fill="#101c2c" fill-rule="evenodd"></path><path id="path2" d="" stroke="none" fill="#101c2c" fill-rule="evenodd"></path><path id="path3" d="" stroke="none" fill="#101c2c" fill-rule="evenodd"></path><path id="path4" d="" stroke="none" fill="#101c2c" fill-rule="evenodd"></path></g></svg>